<svg xmlns="http://www.w3.org/2000/svg" xmlns:xlink="http://www.w3.org/1999/xlink" xmlns:lucid="lucid" width="764" height="858"><g transform="translate(-2350 2331)" lucid:page-tab-id="eCwN1xG57If6"><path d="M2380.82-2291a6 6 0 0 1 6-6h688a6 6 0 0 1 6 6v768a6 6 0 0 1-6 6h-688a6 6 0 0 1-6-6z" fill-opacity="0"/><path d="M2417.4-2297h30.57m15.3 0h30.57m15.3 0h30.57m15.3 0h30.57m15.3 0h30.57m15.3 0h30.57m15.3 0h30.57m15.3 0h30.57m15.3 0h30.57m15.3 0h30.57m15.3 0h30.57m15.3 0h30.57m15.3 0h30.57m15.3 0h30.57m15.3 0h15.28l.93.08.92.22.87.36.8.5.72.6.6.72.5.8.36.88.22.9.08.95v15.07m0 15.06v30.1m0 15.07v30.12m0 15.06v30.12m0 15.06v30.1m0 15.07v30.12m0 15.06v30.13m0 15.06v30.1m0 15.06v30.12m0 15.06v30.12m0 15.05v30.13m0 15.06v30.1m0 15.07v30.12m0 15.04v30.12m0 15.06v30.12m0 15.06v30.12m0 15.05v30.12m0 15.05v15.06l-.08.95-.22.9-.36.88-.5.8-.6.72-.72.6-.8.5-.87.37-.9.2-.95.1h-15.3m-15.28 0h-30.58m-15.3 0h-30.57m-15.3 0h-30.57m-15.3 0h-30.57m-15.3 0h-30.57m-15.3 0h-30.57m-15.3 0h-30.57m-15.3 0h-30.57m-15.3 0h-30.57m-15.3 0h-30.57m-15.3 0H2555m-15.3 0h-30.57m-15.3 0h-30.57m-15.3 0h-30.57m-15.3 0h-15.28l-.94-.08-.92-.22-.87-.37-.8-.5-.73-.6-.6-.7-.5-.82-.36-.87-.2-.9-.08-.95v-15.05m0-15.06v-30.13m0-15.06v-30.1m0-15.06v-30.12m0-15.06v-30.12m0-15.05v-30.13m0-15.06v-30.1m0-15.07v-30.12m0-15.04v-30.12m0-15.06v-30.12m0-15.06v-30.1m0-15.07V-2035m0-15.05v-30.12m0-15.06v-30.1m0-15.07v-30.12m0-15.06v-30.12m0-15.06v-30.1m0-15.07V-2291l.07-.93.2-.9.37-.9.5-.8.6-.7.72-.6.8-.5.86-.37.92-.22.94-.07h15.28" stroke="#5e5e5e" stroke-width="3" fill="none"/><path d="M2400-2197.98a6 6 0 0 1 6-6h249.63a6 6 0 0 1 6 6v136.66a6 6 0 0 1-6 6H2406a6 6 0 0 1-6-6z" stroke="#552cff" stroke-width="3" fill="#ded3ff"/><use xlink:href="#a" transform="matrix(1,0,0,1,2405,-2198.9812047325904) translate(76.70987654320987 22.12152777777778)"/><use xlink:href="#b" transform="matrix(1,0,0,1,2405,-2198.9812047325904) translate(63.925925925925995 52.343749999999986)"/><use xlink:href="#c" transform="matrix(1,0,0,1,2405,-2198.9812047325904) translate(126 80.7881944444444)"/><use xlink:href="#d" transform="matrix(1,0,0,1,2405,-2198.9812047325904) translate(18.654320987654444 107.45486111111104)"/><use xlink:href="#e" transform="matrix(1,0,0,1,2405,-2198.9812047325904) translate(88.962962962963 107.45486111111104)"/><use xlink:href="#f" transform="matrix(1,0,0,1,2405,-2198.9812047325904) translate(113.65432098765433 107.45486111111104)"/><use xlink:href="#g" transform="matrix(1,0,0,1,2405,-2198.9812047325904) translate(208.65432098765422 107.45486111111104)"/><use xlink:href="#h" transform="matrix(1,0,0,1,2405,-2198.9812047325904) translate(97.60493827160496 134.12152777777766)"/><path d="M2400-1708.6a6 6 0 0 1 6-6h249.63a6 6 0 0 1 6 6v136.66a6 6 0 0 1-6 6H2406a6 6 0 0 1-6-6z" stroke="#0057d2" stroke-width="3" fill="#d1efff"/><use xlink:href="#i" transform="matrix(1,0,0,1,2405,-1709.6102808644382) translate(75.41358024691357 22.12152777777778)"/><use xlink:href="#j" transform="matrix(1,0,0,1,2405,-1709.6102808644382) translate(7.740740740740847 52.343749999999986)"/><use xlink:href="#k" transform="matrix(1,0,0,1,2405,-1709.6102808644382) translate(115.5925925925926 52.343749999999986)"/><use xlink:href="#l" transform="matrix(1,0,0,1,2405,-1709.6102808644382) translate(126 80.7881944444444)"/><use xlink:href="#m" transform="matrix(1,0,0,1,2405,-1709.6102808644382) translate(15.907407407407518 107.45486111111104)"/><use xlink:href="#n" transform="matrix(1,0,0,1,2405,-1709.6102808644382) translate(113.37654320987654 107.45486111111104)"/><use xlink:href="#o" transform="matrix(1,0,0,1,2405,-1709.6102808644382) translate(210.2283950617283 107.45486111111104)"/><use xlink:href="#p" transform="matrix(1,0,0,1,2405,-1709.6102808644382) translate(24.888888888889 134.12152777777766)"/><use xlink:href="#q" transform="matrix(1,0,0,1,2405,-1709.6102808644382) translate(137.1111111111111 134.12152777777766)"/><path d="M2780-1708.6a6 6 0 0 1 6-6h249.63a6 6 0 0 1 6 6v136.66a6 6 0 0 1-6 6H2786a6 6 0 0 1-6-6z" stroke="#0057d2" stroke-width="3" fill="#d1efff"/><use xlink:href="#r" transform="matrix(1,0,0,1,2785,-1709.6102808644382) translate(75.41358024691357 22.12152777777778)"/><use xlink:href="#s" transform="matrix(1,0,0,1,2785,-1709.6102808644382) translate(95.7777777777778 52.343749999999986)"/><use xlink:href="#l" transform="matrix(1,0,0,1,2785,-1709.6102808644382) translate(126 80.7881944444444)"/><use xlink:href="#t" transform="matrix(1,0,0,1,2785,-1709.6102808644382) translate(47.29629629629639 107.45486111111104)"/><use xlink:href="#u" transform="matrix(1,0,0,1,2785,-1709.6102808644382) translate(143.037037037037 107.45486111111104)"/><use xlink:href="#v" transform="matrix(1,0,0,1,2785,-1709.6102808644382) translate(161.55555555555551 107.45486111111104)"/><use xlink:href="#w" transform="matrix(1,0,0,1,2785,-1709.6102808644382) translate(72.38888888888894 134.12152777777766)"/><path d="M2780-1953.3a6 6 0 0 1 6-6h249.63a6 6 0 0 1 6 6v136.67a6 6 0 0 1-6 6H2786a6 6 0 0 1-6-6z" stroke="#0057d2" stroke-width="3" fill="#d1efff"/><use xlink:href="#x" transform="matrix(1,0,0,1,2785,-1954.2957427985143) translate(75.41358024691357 22.12152777777778)"/><use xlink:href="#y" transform="matrix(1,0,0,1,2785,-1954.2957427985143) translate(36.85185185185193 52.343749999999986)"/><use xlink:href="#z" transform="matrix(1,0,0,1,2785,-1954.2957427985143) translate(159.51851851851848 52.343749999999986)"/><use xlink:href="#A" transform="matrix(1,0,0,1,2785,-1954.2957427985143) translate(126 80.7881944444444)"/><use xlink:href="#B" transform="matrix(1,0,0,1,2785,-1954.2957427985143) translate(8.839506172839634 107.45486111111104)"/><use xlink:href="#C" transform="matrix(1,0,0,1,2785,-1954.2957427985143) translate(118.65432098765432 107.45486111111104)"/><use xlink:href="#D" transform="matrix(1,0,0,1,2785,-1954.2957427985143) translate(214.82716049382705 107.45486111111104)"/><use xlink:href="#E" transform="matrix(1,0,0,1,2785,-1954.2957427985143) translate(103.40740740740743 134.12152777777766)"/><path d="M2530.82-2052.8v73.5" stroke="#5e5e5e" stroke-width="2" fill="none"/><path d="M2531.82-2052.8h-2v-1h2z" stroke="#5e5e5e" stroke-width=".05" fill="#5e5e5e"/><path d="M2530.82-1964.03l-4.64-14.27h9.27z" stroke="#5e5e5e" stroke-width="2" fill="#5e5e5e"/><use xlink:href="#F" transform="matrix(1,0,0,1,2434.075585789871,-2033.8363938926443) translate(0.005000000000002558 14.222222222222223)"/><use xlink:href="#G" transform="matrix(1,0,0,1,2434.075585789871,-2033.8363938926443) translate(22.202530864197545 35.55555555555556)"/><path d="M2780-2197.98a6 6 0 0 1 6-6h249.63a6 6 0 0 1 6 6v110a6 6 0 0 1-6 6H2786a6 6 0 0 1-6-6z" stroke="#552cff" stroke-width="3" fill="#ded3ff"/><g><use xlink:href="#a" transform="matrix(1,0,0,1,2785,-2198.9812047325904) translate(76.70987654320987 21.27777777777778)"/><use xlink:href="#H" transform="matrix(1,0,0,1,2785,-2198.9812047325904) translate(84.62962962962966 51.499999999999986)"/><use xlink:href="#c" transform="matrix(1,0,0,1,2785,-2198.9812047325904) translate(126 79.9444444444444)"/><use xlink:href="#d" transform="matrix(1,0,0,1,2785,-2198.9812047325904) translate(1.462962962963104 106.61111111111104)"/><use xlink:href="#e" transform="matrix(1,0,0,1,2785,-2198.9812047325904) translate(71.77160493827166 106.61111111111104)"/><use xlink:href="#I" transform="matrix(1,0,0,1,2785,-2198.9812047325904) translate(96.46296296296299 106.61111111111104)"/><use xlink:href="#J" transform="matrix(1,0,0,1,2785,-2198.9812047325904) translate(179.1172839506172 106.61111111111104)"/></g><path d="M2910.82-2079.48v100.18" stroke="#5e5e5e" stroke-width="2" stroke-linejoin="round" fill="none"/><path d="M2911.82-2079.45h-2v-1.03h2z" stroke="#5e5e5e" stroke-width=".05" fill="#5e5e5e"/><path d="M2910.82-1964.03l-4.64-14.27h9.27z" stroke="#5e5e5e" stroke-width="2" fill="#5e5e5e"/><g><use xlink:href="#K" transform="matrix(1,0,0,1,2918.8163265140693,-2038.2461594525773) translate(0.004999999999999005 14.222222222222223)"/></g><path d="M2400-1953.3a6 6 0 0 1 6-6h249.63a6 6 0 0 1 6 6v136.67a6 6 0 0 1-6 6H2406a6 6 0 0 1-6-6z" stroke="#0057d2" stroke-width="3" fill="#d1efff"/><g><use xlink:href="#x" transform="matrix(1,0,0,1,2405,-1954.2957427985143) translate(75.41358024691357 22.12152777777778)"/><use xlink:href="#y" transform="matrix(1,0,0,1,2405,-1954.2957427985143) translate(6.481481481481609 52.343749999999986)"/><use xlink:href="#L" transform="matrix(1,0,0,1,2405,-1954.2957427985143) translate(129.14814814814815 52.343749999999986)"/><use xlink:href="#A" transform="matrix(1,0,0,1,2405,-1954.2957427985143) translate(126 80.7881944444444)"/><use xlink:href="#B" transform="matrix(1,0,0,1,2405,-1954.2957427985143) translate(8.839506172839634 107.45486111111104)"/><use xlink:href="#C" transform="matrix(1,0,0,1,2405,-1954.2957427985143) translate(118.65432098765432 107.45486111111104)"/><use xlink:href="#D" transform="matrix(1,0,0,1,2405,-1954.2957427985143) translate(214.82716049382705 107.45486111111104)"/><use xlink:href="#M" transform="matrix(1,0,0,1,2405,-1954.2957427985143) translate(80.4444444444445 134.12152777777766)"/></g><path d="M2531.75-2053.45l230.92 89.08" stroke="#5e5e5e" stroke-width="2" fill="none"/><path d="M2531.4-2052.5l-3.36-1.32h3.88z" stroke="#5e5e5e" stroke-width=".05" fill="#5e5e5e"/><path d="M2776.9-1958.87l-14.97-.8 3.34-8.66z" stroke="#5e5e5e" stroke-width="2" fill="#5e5e5e"/><path d="M2530.82-1808.13v73.52" stroke="#5e5e5e" stroke-width="2" stroke-linejoin="round" fill="none"/><path d="M2531.82-1808.1h-2v-1.03h2z" stroke="#5e5e5e" stroke-width=".05" fill="#5e5e5e"/><path d="M2530.82-1719.35l-4.64-14.26h9.27z" stroke="#5e5e5e" stroke-width="2" fill="#5e5e5e"/><path d="M2910.82-1808.13v39.5a6 6 0 0 1-6 6h-368a6 6 0 0 0-6 6v22.02" stroke="#5e5e5e" stroke-width="2" fill="none"/><path d="M2911.82-1808.1h-2v-1.03h2z" stroke="#5e5e5e" stroke-width=".05" fill="#5e5e5e"/><path d="M2530.82-1719.35l-4.64-14.26h9.27z" stroke="#5e5e5e" stroke-width="2" fill="#5e5e5e"/><g><use xlink:href="#N" transform="matrix(1,0,0,1,2562.3161141723713,-1787.9530116648098) translate(0.0049999999999954525 14.222222222222223)"/><use xlink:href="#O" transform="matrix(1,0,0,1,2562.3161141723713,-1787.9530116648098) translate(93.68401234567904 14.222222222222223)"/></g><path d="M2910.82-1808.13v73.52" stroke="#5e5e5e" stroke-width="2" stroke-linejoin="round" fill="none"/><path d="M2911.82-1808.1h-2v-1.03h2z" stroke="#5e5e5e" stroke-width=".05" fill="#5e5e5e"/><path d="M2910.82-1719.35l-4.64-14.26h9.27z" stroke="#5e5e5e" stroke-width="2" fill="#5e5e5e"/><g><use xlink:href="#P" transform="matrix(1,0,0,1,2918.8163265306125,-1783.9523140300741) translate(0.005000000000002558 14.222222222222223)"/><use xlink:href="#Q" transform="matrix(1,0,0,1,2918.8163265306125,-1783.9523140300741) translate(70.96796296296296 14.222222222222223)"/><use xlink:href="#R" transform="matrix(1,0,0,1,2918.8163265306125,-1783.9523140300741) translate(6.918580246913585 35.55555555555556)"/></g><path d="M2777.5-1829.63h-.1l-1.06.07-1.05.1-1.04.17-1.03.2-1 .24-1.03.28-1 .33-1.03.38-1.03.44-1.05.5-1.07.54-1.08.64-1.1.7-1.15.8-1.18.9-1.22 1-1.3 1.16-1.33 1.32-1.42 1.5-1.5 1.76-1.63 2.05-1.75 2.4-1.9 2.88-2.12 3.5-2.37 4.32-2.72 5.5-3.24 7.3-4.1 10.43-6.26 18.1-21.93 68.48-4.12 10.43-3.22 7.3-2.73 5.5-2.37 4.3-2.1 3.5-1.92 2.88-1.75 2.4-1.6 2.05-1.52 1.74-1.42 1.52-1.34 1.32-1.28 1.15-1.2 1" stroke="#5e5e5e" stroke-width="2" stroke-linejoin="round" fill="none"/><path d="M2778.5-1828.65l-1 .02-.05-2 1.05-.02z" stroke="#5e5e5e" stroke-width=".05" fill="#5e5e5e"/><path d="M2666.17-1641.4l11.76-9.3 3.23 8.7z" stroke="#5e5e5e" stroke-width="2" fill="#5e5e5e"/><g><use xlink:href="#S" transform="matrix(1,0,0,1,2699.645010212177,-1676.3140873675923) translate(11.338333333333331 14.222222222222223)"/><use xlink:href="#T" transform="matrix(1,0,0,1,2699.645010212177,-1676.3140873675923) translate(0.004999999999999005 35.55555555555556)"/></g><path d="M2380-2291a6 6 0 0 1 6-6h188a6 6 0 0 1 6 6v48a6 6 0 0 1-6 6h-188a6 6 0 0 1-6-6z" stroke="#000" stroke-opacity="0" stroke-width="3" fill="#fff" fill-opacity="0"/><g><use xlink:href="#U" transform="matrix(1,0,0,1,2385,-2291.990602366295) translate(12.592592592592638 38.68055555555554)"/></g><defs><path fill="#552cff" d="M142-25L97-88v-13l45-64h42c-9 30-32 46-45 71l45 63v6h-42zm-80 0L16-88v-13l46-64h41c-9 30-32 46-45 71l45 63v6H62" id="V"/><path fill="#552cff" d="M135-194c53 0 70 44 70 98 0 56-19 98-73 100-31 1-45-17-59-34 3 33 2 69 2 105H25l-1-265h48c2 10 0 23 3 31 11-24 29-35 60-35zM114-30c33 0 39-31 40-66 0-38-9-64-40-64-56 0-55 130 0 130" id="W"/><path fill="#552cff" d="M185-48c-13 30-37 53-82 52C43 2 14-33 14-96s30-98 90-98c62 0 83 45 84 108H66c0 31 8 55 39 56 18 0 30-7 34-22zm-45-69c5-46-57-63-70-21-2 6-4 13-4 21h74" id="X"/><path fill="#552cff" d="M135-150c-39-12-60 13-60 57V0H25l-1-190h47c2 13-1 29 3 40 6-28 27-53 61-41v41" id="Y"/><path fill="#552cff" d="M137-138c1-29-70-34-71-4 15 46 118 7 119 86 1 83-164 76-172 9l43-7c4 19 20 25 44 25 33 8 57-30 24-41C81-84 22-81 20-136c-2-80 154-74 161-7" id="Z"/><path fill="#552cff" d="M110-194c64 0 96 36 96 99 0 64-35 99-97 99-61 0-95-36-95-99 0-62 34-99 96-99zm-1 164c35 0 45-28 45-65 0-40-10-65-43-65-34 0-45 26-45 65 0 36 10 65 43 65" id="aa"/><path fill="#552cff" d="M135-194c87-1 58 113 63 194h-50c-7-57 23-157-34-157-59 0-34 97-39 157H25l-1-190h47c2 12-1 28 3 38 12-26 28-41 61-42" id="ab"/><path fill="#552cff" d="M16-25v-6l45-63-44-65v-6h42l45 64v13L59-25H16zm81 0v-6l45-63-45-65v-6h42l45 64v13l-45 63H97" id="ac"/><g id="a"><use transform="matrix(0.06172839506172839,0,0,0.06172839506172839,0,0)" xlink:href="#V"/><use transform="matrix(0.06172839506172839,0,0,0.06172839506172839,12.345679012345679,0)" xlink:href="#W"/><use transform="matrix(0.06172839506172839,0,0,0.06172839506172839,25.864197530864196,0)" xlink:href="#X"/><use transform="matrix(0.06172839506172839,0,0,0.06172839506172839,38.20987654320987,0)" xlink:href="#Y"/><use transform="matrix(0.06172839506172839,0,0,0.06172839506172839,46.85185185185185,0)" xlink:href="#Z"/><use transform="matrix(0.06172839506172839,0,0,0.06172839506172839,59.197530864197525,0)" xlink:href="#aa"/><use transform="matrix(0.06172839506172839,0,0,0.06172839506172839,72.71604938271604,0)" xlink:href="#ab"/><use transform="matrix(0.06172839506172839,0,0,0.06172839506172839,86.23456790123456,0)" xlink:href="#ac"/></g><path fill="#552cff" d="M67-125c0 53 21 87 73 88 37 1 54-22 65-47l45 17C233-25 199 4 140 4 58 4 20-42 15-125 8-235 124-281 211-232c18 10 29 29 36 50l-46 12c-8-25-30-41-62-41-52 0-71 34-72 86" id="ad"/><path fill="#552cff" d="M85 4C-2 5 27-109 22-190h50c7 57-23 150 33 157 60-5 35-97 40-157h50l1 190h-47c-2-12 1-28-3-38-12 25-28 42-61 42" id="ae"/><path fill="#552cff" d="M115-3C79 11 28 4 28-45v-112H4v-33h27l15-45h31v45h36v33H77v99c-1 23 16 31 38 25v30" id="af"/><path fill="#552cff" d="M220-157c-53 9-28 100-34 157h-49v-107c1-27-5-49-29-50C55-147 81-57 75 0H25l-1-190h47c2 12-1 28 3 38 10-53 101-56 108 0 13-22 24-43 59-42 82 1 51 116 57 194h-49v-107c-1-25-5-48-29-50" id="ag"/><g id="b"><use transform="matrix(0.074074074074074,0,0,0.074074074074074,0,0)" xlink:href="#ad"/><use transform="matrix(0.074074074074074,0,0,0.074074074074074,19.185185185185166,0)" xlink:href="#ae"/><use transform="matrix(0.074074074074074,0,0,0.074074074074074,35.407407407407376,0)" xlink:href="#Z"/><use transform="matrix(0.074074074074074,0,0,0.074074074074074,50.22222222222218,0)" xlink:href="#af"/><use transform="matrix(0.074074074074074,0,0,0.074074074074074,59.03703703703698,0)" xlink:href="#aa"/><use transform="matrix(0.074074074074074,0,0,0.074074074074074,75.25925925925918,0)" xlink:href="#ag"/><use transform="matrix(0.074074074074074,0,0,0.074074074074074,98.96296296296286,0)" xlink:href="#X"/><use transform="matrix(0.074074074074074,0,0,0.074074074074074,113.77777777777766,0)" xlink:href="#Y"/></g><path fill="#552cff" d="M190 0L58-211 59 0H30v-248h39L202-35l-2-213h31V0h-41" id="ah"/><path fill="#552cff" d="M100-194c63 0 86 42 84 106H49c0 40 14 67 53 68 26 1 43-12 49-29l28 8c-11 28-37 45-77 45C44 4 14-33 15-96c1-61 26-98 85-98zm52 81c6-60-76-77-97-28-3 7-6 17-6 28h103" id="ai"/><path fill="#552cff" d="M85-194c31 0 48 13 60 33l-1-100h32l1 261h-30c-2-10 0-23-3-31C134-8 116 4 85 4 32 4 16-35 15-94c0-66 23-100 70-100zm9 24c-40 0-46 34-46 75 0 40 6 74 45 74 42 0 51-32 51-76 0-42-9-74-50-73" id="aj"/><path fill="#552cff" d="M135-143c-3-34-86-38-87 0 15 53 115 12 119 90S17 21 10-45l28-5c4 36 97 45 98 0-10-56-113-15-118-90-4-57 82-63 122-42 12 7 21 19 24 35" id="ak"/><g id="d"><use transform="matrix(0.06172839506172832,0,0,0.06172839506172832,0,0)" xlink:href="#ah"/><use transform="matrix(0.06172839506172832,0,0,0.06172839506172832,15.987654320987636,0)" xlink:href="#ai"/><use transform="matrix(0.06172839506172832,0,0,0.06172839506172832,28.3333333333333,0)" xlink:href="#ai"/><use transform="matrix(0.06172839506172832,0,0,0.06172839506172832,40.67901234567896,0)" xlink:href="#aj"/><use transform="matrix(0.06172839506172832,0,0,0.06172839506172832,53.024691358024626,0)" xlink:href="#ak"/></g><path fill="#552cff" d="M59-47c-2 24 18 29 38 22v24C64 9 27 4 27-40v-127H5v-23h24l9-43h21v43h35v23H59v120" id="al"/><path fill="#552cff" d="M100-194c62-1 85 37 85 99 1 63-27 99-86 99S16-35 15-95c0-66 28-99 85-99zM99-20c44 1 53-31 53-75 0-43-8-75-51-75s-53 32-53 75 10 74 51 75" id="am"/><g id="e"><use transform="matrix(0.06172839506172832,0,0,0.06172839506172832,0,0)" xlink:href="#al"/><use transform="matrix(0.06172839506172832,0,0,0.06172839506172832,6.172839506172832,0)" xlink:href="#am"/></g><path fill="#552cff" d="M96-169c-40 0-48 33-48 73s9 75 48 75c24 0 41-14 43-38l32 2c-6 37-31 61-74 61-59 0-76-41-82-99-10-93 101-131 147-64 4 7 5 14 7 22l-32 3c-4-21-16-35-41-35" id="an"/><path fill="#552cff" d="M106-169C34-169 62-67 57 0H25v-261h32l-1 103c12-21 28-36 61-36 89 0 53 116 60 194h-32v-121c2-32-8-49-39-48" id="ao"/><path fill="#552cff" d="M84 4C-5 8 30-112 23-190h32v120c0 31 7 50 39 49 72-2 45-101 50-169h31l1 190h-30c-1-10 1-25-2-33-11 22-28 36-60 37" id="ap"/><path fill="#552cff" d="M24 0v-261h32V0H24" id="aq"/><g id="f"><use transform="matrix(0.06172839506172832,0,0,0.06172839506172832,0,0)" xlink:href="#ak"/><use transform="matrix(0.06172839506172832,0,0,0.06172839506172832,11.111111111111098,0)" xlink:href="#an"/><use transform="matrix(0.06172839506172832,0,0,0.06172839506172832,22.222222222222197,0)" xlink:href="#ao"/><use transform="matrix(0.06172839506172832,0,0,0.06172839506172832,34.56790123456786,0)" xlink:href="#ai"/><use transform="matrix(0.06172839506172832,0,0,0.06172839506172832,46.913580246913526,0)" xlink:href="#aj"/><use transform="matrix(0.06172839506172832,0,0,0.06172839506172832,59.25925925925919,0)" xlink:href="#ap"/><use transform="matrix(0.06172839506172832,0,0,0.06172839506172832,71.60493827160485,0)" xlink:href="#aq"/><use transform="matrix(0.06172839506172832,0,0,0.06172839506172832,76.48148148148138,0)" xlink:href="#ai"/></g><path fill="#552cff" d="M141-36C126-15 110 5 73 4 37 3 15-17 15-53c-1-64 63-63 125-63 3-35-9-54-41-54-24 1-41 7-42 31l-33-3c5-37 33-52 76-52 45 0 72 20 72 64v82c-1 20 7 32 28 27v20c-31 9-61-2-59-35zM48-53c0 20 12 33 32 33 41-3 63-29 60-74-43 2-92-5-92 41" id="ar"/><path fill="#552cff" d="M117-194c89-4 53 116 60 194h-32v-121c0-31-8-49-39-48C34-167 62-67 57 0H25l-1-190h30c1 10-1 24 2 32 11-22 29-35 61-36" id="as"/><g id="g"><use transform="matrix(0.06172839506172832,0,0,0.06172839506172832,0,0)" xlink:href="#ar"/><use transform="matrix(0.06172839506172832,0,0,0.06172839506172832,12.345679012345665,0)" xlink:href="#as"/></g><path fill="#552cff" d="M30 0v-248h187v28H63v79h144v27H63v87h162V0H30" id="at"/><path fill="#552cff" d="M108 0H70L1-190h34L89-25l56-165h34" id="au"/><g id="h"><use transform="matrix(0.06172839506172832,0,0,0.06172839506172832,0,0)" xlink:href="#at"/><use transform="matrix(0.06172839506172832,0,0,0.06172839506172832,14.814814814814797,0)" xlink:href="#au"/><use transform="matrix(0.06172839506172832,0,0,0.06172839506172832,25.925925925925895,0)" xlink:href="#ai"/><use transform="matrix(0.06172839506172832,0,0,0.06172839506172832,38.27160493827156,0)" xlink:href="#as"/><use transform="matrix(0.06172839506172832,0,0,0.06172839506172832,50.61728395061722,0)" xlink:href="#al"/></g><path fill="#0057d2" d="M142-25L97-88v-13l45-64h42c-9 30-32 46-45 71l45 63v6h-42zm-80 0L16-88v-13l46-64h41c-9 30-32 46-45 71l45 63v6H62" id="av"/><path fill="#0057d2" d="M137-138c1-29-70-34-71-4 15 46 118 7 119 86 1 83-164 76-172 9l43-7c4 19 20 25 44 25 33 8 57-30 24-41C81-84 22-81 20-136c-2-80 154-74 161-7" id="aw"/><path fill="#0057d2" d="M123 10C108 53 80 86 19 72V37c35 8 53-11 59-39L3-190h52l48 148c12-52 28-100 44-148h51" id="ax"/><path fill="#0057d2" d="M115-3C79 11 28 4 28-45v-112H4v-33h27l15-45h31v45h36v33H77v99c-1 23 16 31 38 25v30" id="ay"/><path fill="#0057d2" d="M185-48c-13 30-37 53-82 52C43 2 14-33 14-96s30-98 90-98c62 0 83 45 84 108H66c0 31 8 55 39 56 18 0 30-7 34-22zm-45-69c5-46-57-63-70-21-2 6-4 13-4 21h74" id="az"/><path fill="#0057d2" d="M220-157c-53 9-28 100-34 157h-49v-107c1-27-5-49-29-50C55-147 81-57 75 0H25l-1-190h47c2 12-1 28 3 38 10-53 101-56 108 0 13-22 24-43 59-42 82 1 51 116 57 194h-49v-107c-1-25-5-48-29-50" id="aA"/><path fill="#0057d2" d="M16-25v-6l45-63-44-65v-6h42l45 64v13L59-25H16zm81 0v-6l45-63-45-65v-6h42l45 64v13l-45 63H97" id="aB"/><g id="i"><use transform="matrix(0.06172839506172839,0,0,0.06172839506172839,0,0)" xlink:href="#av"/><use transform="matrix(0.06172839506172839,0,0,0.06172839506172839,12.345679012345679,0)" xlink:href="#aw"/><use transform="matrix(0.06172839506172839,0,0,0.06172839506172839,24.691358024691358,0)" xlink:href="#ax"/><use transform="matrix(0.06172839506172839,0,0,0.06172839506172839,37.03703703703704,0)" xlink:href="#aw"/><use transform="matrix(0.06172839506172839,0,0,0.06172839506172839,49.382716049382715,0)" xlink:href="#ay"/><use transform="matrix(0.06172839506172839,0,0,0.06172839506172839,56.72839506172839,0)" xlink:href="#az"/><use transform="matrix(0.06172839506172839,0,0,0.06172839506172839,69.07407407407408,0)" xlink:href="#aA"/><use transform="matrix(0.06172839506172839,0,0,0.06172839506172839,88.82716049382717,0)" xlink:href="#aB"/></g><path fill="#0057d2" d="M230 0l2-204L168 0h-37L68-204 70 0H24v-248h70l56 185 57-185h69V0h-46" id="aC"/><path fill="#0057d2" d="M25-224v-37h50v37H25zM25 0v-190h50V0H25" id="aD"/><path fill="#0057d2" d="M135-194c87-1 58 113 63 194h-50c-7-57 23-157-34-157-59 0-34 97-39 157H25l-1-190h47c2 12-1 28 3 38 12-26 28-41 61-42" id="aE"/><path fill="#0057d2" d="M195-6C206 82 75 100 31 46c-4-6-6-13-8-21l49-6c3 16 16 24 34 25 40 0 42-37 40-79-11 22-30 35-61 35-53 0-70-43-70-97 0-56 18-96 73-97 30 0 46 14 59 34l2-30h47zm-90-29c32 0 41-27 41-63 0-35-9-62-40-62-32 0-39 29-40 63 0 36 9 62 39 62" id="aF"/><g id="j"><use transform="matrix(0.074074074074074,0,0,0.074074074074074,0,0)" xlink:href="#aC"/><use transform="matrix(0.074074074074074,0,0,0.074074074074074,22.148148148148127,0)" xlink:href="#az"/><use transform="matrix(0.074074074074074,0,0,0.074074074074074,36.962962962962926,0)" xlink:href="#az"/><use transform="matrix(0.074074074074074,0,0,0.074074074074074,51.77777777777773,0)" xlink:href="#ay"/><use transform="matrix(0.074074074074074,0,0,0.074074074074074,60.59259259259254,0)" xlink:href="#aD"/><use transform="matrix(0.074074074074074,0,0,0.074074074074074,67.99999999999994,0)" xlink:href="#aE"/><use transform="matrix(0.074074074074074,0,0,0.074074074074074,84.22222222222214,0)" xlink:href="#aF"/></g><path fill="#0057d2" d="M169-182c-1-43-94-46-97-3 18 66 151 10 154 114 3 95-165 93-204 36-6-8-10-19-12-30l50-8c3 46 112 56 116 5-17-69-150-10-154-114-4-87 153-88 188-35 5 8 8 18 10 28" id="aG"/><path fill="#0057d2" d="M190-63c-7 42-38 67-86 67-59 0-84-38-90-98-12-110 154-137 174-36l-49 2c-2-19-15-32-35-32-30 0-35 28-38 64-6 74 65 87 74 30" id="aH"/><path fill="#0057d2" d="M114-157C55-157 80-60 75 0H25v-261h50l-1 109c12-26 28-41 61-42 86-1 58 113 63 194h-50c-7-57 23-157-34-157" id="aI"/><path fill="#0057d2" d="M88-194c31-1 46 15 58 34l-1-101h50l1 261h-48c-2-10 0-23-3-31C134-8 116 4 84 4 32 4 16-41 15-95c0-56 19-97 73-99zm17 164c33 0 40-30 41-66 1-37-9-64-41-64s-38 30-39 65c0 43 13 65 39 65" id="aJ"/><path fill="#0057d2" d="M85 4C-2 5 27-109 22-190h50c7 57-23 150 33 157 60-5 35-97 40-157h50l1 190h-47c-2-12 1-28-3-38-12 25-28 42-61 42" id="aK"/><path fill="#0057d2" d="M25 0v-261h50V0H25" id="aL"/><path fill="#0057d2" d="M135-150c-39-12-60 13-60 57V0H25l-1-190h47c2 13-1 29 3 40 6-28 27-53 61-41v41" id="aM"/><g id="k"><use transform="matrix(0.074074074074074,0,0,0.074074074074074,0,0)" xlink:href="#aG"/><use transform="matrix(0.074074074074074,0,0,0.074074074074074,17.77777777777776,0)" xlink:href="#aH"/><use transform="matrix(0.074074074074074,0,0,0.074074074074074,32.59259259259256,0)" xlink:href="#aI"/><use transform="matrix(0.074074074074074,0,0,0.074074074074074,48.81481481481477,0)" xlink:href="#az"/><use transform="matrix(0.074074074074074,0,0,0.074074074074074,63.62962962962957,0)" xlink:href="#aJ"/><use transform="matrix(0.074074074074074,0,0,0.074074074074074,79.85185185185178,0)" xlink:href="#aK"/><use transform="matrix(0.074074074074074,0,0,0.074074074074074,96.07407407407399,0)" xlink:href="#aL"/><use transform="matrix(0.074074074074074,0,0,0.074074074074074,103.4814814814814,0)" xlink:href="#az"/><use transform="matrix(0.074074074074074,0,0,0.074074074074074,118.29629629629619,0)" xlink:href="#aM"/></g><path fill="#0057d2" d="M240 0l2-218c-23 76-54 145-80 218h-23L58-218 59 0H30v-248h44l77 211c21-75 51-140 76-211h43V0h-30" id="aN"/><path fill="#0057d2" d="M141-36C126-15 110 5 73 4 37 3 15-17 15-53c-1-64 63-63 125-63 3-35-9-54-41-54-24 1-41 7-42 31l-33-3c5-37 33-52 76-52 45 0 72 20 72 64v82c-1 20 7 32 28 27v20c-31 9-61-2-59-35zM48-53c0 20 12 33 32 33 41-3 63-29 60-74-43 2-92-5-92 41" id="aO"/><path fill="#0057d2" d="M117-194c89-4 53 116 60 194h-32v-121c0-31-8-49-39-48C34-167 62-67 57 0H25l-1-190h30c1 10-1 24 2 32 11-22 29-35 61-36" id="aP"/><path fill="#0057d2" d="M177-190C167-65 218 103 67 71c-23-6-38-20-44-43l32-5c15 47 100 32 89-28v-30C133-14 115 1 83 1 29 1 15-40 15-95c0-56 16-97 71-98 29-1 48 16 59 35 1-10 0-23 2-32h30zM94-22c36 0 50-32 50-73 0-42-14-75-50-75-39 0-46 34-46 75s6 73 46 73" id="aQ"/><path fill="#0057d2" d="M100-194c63 0 86 42 84 106H49c0 40 14 67 53 68 26 1 43-12 49-29l28 8c-11 28-37 45-77 45C44 4 14-33 15-96c1-61 26-98 85-98zm52 81c6-60-76-77-97-28-3 7-6 17-6 28h103" id="aR"/><path fill="#0057d2" d="M135-143c-3-34-86-38-87 0 15 53 115 12 119 90S17 21 10-45l28-5c4 36 97 45 98 0-10-56-113-15-118-90-4-57 82-63 122-42 12 7 21 19 24 35" id="aS"/><g id="m"><use transform="matrix(0.06172839506172832,0,0,0.06172839506172832,0,0)" xlink:href="#aN"/><use transform="matrix(0.06172839506172832,0,0,0.06172839506172832,18.45679012345677,0)" xlink:href="#aO"/><use transform="matrix(0.06172839506172832,0,0,0.06172839506172832,30.802469135802433,0)" xlink:href="#aP"/><use transform="matrix(0.06172839506172832,0,0,0.06172839506172832,43.148148148148096,0)" xlink:href="#aO"/><use transform="matrix(0.06172839506172832,0,0,0.06172839506172832,55.49382716049376,0)" xlink:href="#aQ"/><use transform="matrix(0.06172839506172832,0,0,0.06172839506172832,67.83950617283942,0)" xlink:href="#aR"/><use transform="matrix(0.06172839506172832,0,0,0.06172839506172832,80.18518518518509,0)" xlink:href="#aS"/></g><path fill="#0057d2" d="M266 0h-40l-56-210L115 0H75L2-248h35L96-30l15-64 43-154h32l59 218 59-218h35" id="aT"/><path fill="#0057d2" d="M100-194c62-1 85 37 85 99 1 63-27 99-86 99S16-35 15-95c0-66 28-99 85-99zM99-20c44 1 53-31 53-75 0-43-8-75-51-75s-53 32-53 75 10 74 51 75" id="aU"/><path fill="#0057d2" d="M114-163C36-179 61-72 57 0H25l-1-190h30c1 12-1 29 2 39 6-27 23-49 58-41v29" id="aV"/><path fill="#0057d2" d="M143 0L79-87 56-68V0H24v-261h32v163l83-92h37l-77 82L181 0h-38" id="aW"/><path fill="#0057d2" d="M101-234c-31-9-42 10-38 44h38v23H63V0H32v-167H5v-23h27c-7-52 17-82 69-68v24" id="aX"/><path fill="#0057d2" d="M24 0v-261h32V0H24" id="aY"/><path fill="#0057d2" d="M206 0h-36l-40-164L89 0H53L-1-190h32L70-26l43-164h34l41 164 42-164h31" id="aZ"/><g id="n"><use transform="matrix(0.06172839506172832,0,0,0.06172839506172832,0,0)" xlink:href="#aT"/><use transform="matrix(0.06172839506172832,0,0,0.06172839506172832,20.493827160493804,0)" xlink:href="#aU"/><use transform="matrix(0.06172839506172832,0,0,0.06172839506172832,32.83950617283947,0)" xlink:href="#aV"/><use transform="matrix(0.06172839506172832,0,0,0.06172839506172832,40.18518518518514,0)" xlink:href="#aW"/><use transform="matrix(0.06172839506172832,0,0,0.06172839506172832,51.29629629629624,0)" xlink:href="#aX"/><use transform="matrix(0.06172839506172832,0,0,0.06172839506172832,57.469135802469076,0)" xlink:href="#aY"/><use transform="matrix(0.06172839506172832,0,0,0.06172839506172832,62.34567901234561,0)" xlink:href="#aU"/><use transform="matrix(0.06172839506172832,0,0,0.06172839506172832,74.69135802469128,0)" xlink:href="#aZ"/></g><g id="o"><use transform="matrix(0.06172839506172832,0,0,0.06172839506172832,0,0)" xlink:href="#aX"/><use transform="matrix(0.06172839506172832,0,0,0.06172839506172832,6.172839506172832,0)" xlink:href="#aU"/><use transform="matrix(0.06172839506172832,0,0,0.06172839506172832,18.518518518518498,0)" xlink:href="#aV"/></g><path fill="#0057d2" d="M96-169c-40 0-48 33-48 73s9 75 48 75c24 0 41-14 43-38l32 2c-6 37-31 61-74 61-59 0-76-41-82-99-10-93 101-131 147-64 4 7 5 14 7 22l-32 3c-4-21-16-35-41-35" id="ba"/><path fill="#0057d2" d="M106-169C34-169 62-67 57 0H25v-261h32l-1 103c12-21 28-36 61-36 89 0 53 116 60 194h-32v-121c2-32-8-49-39-48" id="bb"/><path fill="#0057d2" d="M85-194c31 0 48 13 60 33l-1-100h32l1 261h-30c-2-10 0-23-3-31C134-8 116 4 85 4 32 4 16-35 15-94c0-66 23-100 70-100zm9 24c-40 0-46 34-46 75 0 40 6 74 45 74 42 0 51-32 51-76 0-42-9-74-50-73" id="bc"/><path fill="#0057d2" d="M84 4C-5 8 30-112 23-190h32v120c0 31 7 50 39 49 72-2 45-101 50-169h31l1 190h-30c-1-10 1-25-2-33-11 22-28 36-60 37" id="bd"/><path fill="#0057d2" d="M24-231v-30h32v30H24zM24 0v-190h32V0H24" id="be"/><g id="p"><use transform="matrix(0.06172839506172832,0,0,0.06172839506172832,0,0)" xlink:href="#aS"/><use transform="matrix(0.06172839506172832,0,0,0.06172839506172832,11.111111111111098,0)" xlink:href="#ba"/><use transform="matrix(0.06172839506172832,0,0,0.06172839506172832,22.222222222222197,0)" xlink:href="#bb"/><use transform="matrix(0.06172839506172832,0,0,0.06172839506172832,34.56790123456786,0)" xlink:href="#aR"/><use transform="matrix(0.06172839506172832,0,0,0.06172839506172832,46.913580246913526,0)" xlink:href="#bc"/><use transform="matrix(0.06172839506172832,0,0,0.06172839506172832,59.25925925925919,0)" xlink:href="#bd"/><use transform="matrix(0.06172839506172832,0,0,0.06172839506172832,71.60493827160485,0)" xlink:href="#aY"/><use transform="matrix(0.06172839506172832,0,0,0.06172839506172832,76.48148148148138,0)" xlink:href="#be"/><use transform="matrix(0.06172839506172832,0,0,0.06172839506172832,81.35802469135791,0)" xlink:href="#aP"/><use transform="matrix(0.06172839506172832,0,0,0.06172839506172832,93.70370370370358,0)" xlink:href="#aQ"/></g><path fill="#0057d2" d="M210-169c-67 3-38 105-44 169h-31v-121c0-29-5-50-35-48C34-165 62-65 56 0H25l-1-190h30c1 10-1 24 2 32 10-44 99-50 107 0 11-21 27-35 58-36 85-2 47 119 55 194h-31v-121c0-29-5-49-35-48" id="bf"/><path fill="#0057d2" d="M59-47c-2 24 18 29 38 22v24C64 9 27 4 27-40v-127H5v-23h24l9-43h21v43h35v23H59v120" id="bg"/><g id="q"><use transform="matrix(0.06172839506172832,0,0,0.06172839506172832,0,0)" xlink:href="#bf"/><use transform="matrix(0.06172839506172832,0,0,0.06172839506172832,18.45679012345677,0)" xlink:href="#aR"/><use transform="matrix(0.06172839506172832,0,0,0.06172839506172832,30.802469135802433,0)" xlink:href="#aR"/><use transform="matrix(0.06172839506172832,0,0,0.06172839506172832,43.148148148148096,0)" xlink:href="#bg"/><use transform="matrix(0.06172839506172832,0,0,0.06172839506172832,49.32098765432093,0)" xlink:href="#be"/><use transform="matrix(0.06172839506172832,0,0,0.06172839506172832,54.19753086419747,0)" xlink:href="#aP"/><use transform="matrix(0.06172839506172832,0,0,0.06172839506172832,66.54320987654313,0)" xlink:href="#aQ"/><use transform="matrix(0.06172839506172832,0,0,0.06172839506172832,78.8888888888888,0)" xlink:href="#aS"/></g><g id="r"><use transform="matrix(0.06172839506172839,0,0,0.06172839506172839,0,0)" xlink:href="#av"/><use transform="matrix(0.06172839506172839,0,0,0.06172839506172839,12.345679012345679,0)" xlink:href="#aw"/><use transform="matrix(0.06172839506172839,0,0,0.06172839506172839,24.691358024691358,0)" xlink:href="#ax"/><use transform="matrix(0.06172839506172839,0,0,0.06172839506172839,37.03703703703704,0)" xlink:href="#aw"/><use transform="matrix(0.06172839506172839,0,0,0.06172839506172839,49.382716049382715,0)" xlink:href="#ay"/><use transform="matrix(0.06172839506172839,0,0,0.06172839506172839,56.72839506172839,0)" xlink:href="#az"/><use transform="matrix(0.06172839506172839,0,0,0.06172839506172839,69.07407407407408,0)" xlink:href="#aA"/><use transform="matrix(0.06172839506172839,0,0,0.06172839506172839,88.82716049382717,0)" xlink:href="#aB"/></g><path fill="#0057d2" d="M199 0l-22-63H83L61 0H9l90-248h61L250 0h-51zm-33-102l-36-108c-10 38-24 72-36 108h72" id="bh"/><g id="s"><use transform="matrix(0.074074074074074,0,0,0.074074074074074,0,0)" xlink:href="#bh"/><use transform="matrix(0.074074074074074,0,0,0.074074074074074,19.185185185185166,0)" xlink:href="#aK"/><use transform="matrix(0.074074074074074,0,0,0.074074074074074,35.407407407407376,0)" xlink:href="#ay"/><use transform="matrix(0.074074074074074,0,0,0.074074074074074,44.222222222222186,0)" xlink:href="#aI"/></g><path fill="#0057d2" d="M137 0h-34L2-248h35l83 218 83-218h36" id="bi"/><g id="t"><use transform="matrix(0.06172839506172832,0,0,0.06172839506172832,0,0)" xlink:href="#bi"/><use transform="matrix(0.06172839506172832,0,0,0.06172839506172832,13.148148148148133,0)" xlink:href="#aO"/><use transform="matrix(0.06172839506172832,0,0,0.06172839506172832,25.493827160493797,0)" xlink:href="#aY"/><use transform="matrix(0.06172839506172832,0,0,0.06172839506172832,30.370370370370335,0)" xlink:href="#be"/><use transform="matrix(0.06172839506172832,0,0,0.06172839506172832,35.24691358024687,0)" xlink:href="#bc"/><use transform="matrix(0.06172839506172832,0,0,0.06172839506172832,47.59259259259253,0)" xlink:href="#aO"/><use transform="matrix(0.06172839506172832,0,0,0.06172839506172832,59.938271604938194,0)" xlink:href="#bg"/><use transform="matrix(0.06172839506172832,0,0,0.06172839506172832,66.11111111111103,0)" xlink:href="#aR"/><use transform="matrix(0.06172839506172832,0,0,0.06172839506172832,78.4567901234567,0)" xlink:href="#aS"/></g><use transform="matrix(0.06172839506172832,0,0,0.06172839506172832,0,0)" xlink:href="#aO" id="u"/><g id="v"><use transform="matrix(0.06172839506172832,0,0,0.06172839506172832,0,0)" xlink:href="#bd"/><use transform="matrix(0.06172839506172832,0,0,0.06172839506172832,12.345679012345665,0)" xlink:href="#aS"/><use transform="matrix(0.06172839506172832,0,0,0.06172839506172832,23.456790123456763,0)" xlink:href="#aR"/><use transform="matrix(0.06172839506172832,0,0,0.06172839506172832,35.802469135802426,0)" xlink:href="#aV"/></g><g id="w"><use transform="matrix(0.06172839506172832,0,0,0.06172839506172832,0,0)" xlink:href="#ba"/><use transform="matrix(0.06172839506172832,0,0,0.06172839506172832,11.111111111111098,0)" xlink:href="#aV"/><use transform="matrix(0.06172839506172832,0,0,0.06172839506172832,18.45679012345677,0)" xlink:href="#aR"/><use transform="matrix(0.06172839506172832,0,0,0.06172839506172832,30.802469135802433,0)" xlink:href="#bc"/><use transform="matrix(0.06172839506172832,0,0,0.06172839506172832,43.148148148148096,0)" xlink:href="#aR"/><use transform="matrix(0.06172839506172832,0,0,0.06172839506172832,55.49382716049376,0)" xlink:href="#aP"/><use transform="matrix(0.06172839506172832,0,0,0.06172839506172832,67.83950617283942,0)" xlink:href="#bg"/><use transform="matrix(0.06172839506172832,0,0,0.06172839506172832,74.01234567901226,0)" xlink:href="#be"/><use transform="matrix(0.06172839506172832,0,0,0.06172839506172832,78.8888888888888,0)" xlink:href="#aO"/><use transform="matrix(0.06172839506172832,0,0,0.06172839506172832,91.23456790123447,0)" xlink:href="#aY"/><use transform="matrix(0.06172839506172832,0,0,0.06172839506172832,96.111111111111,0)" xlink:href="#aS"/></g><g id="x"><use transform="matrix(0.06172839506172839,0,0,0.06172839506172839,0,0)" xlink:href="#av"/><use transform="matrix(0.06172839506172839,0,0,0.06172839506172839,12.345679012345679,0)" xlink:href="#aw"/><use transform="matrix(0.06172839506172839,0,0,0.06172839506172839,24.691358024691358,0)" xlink:href="#ax"/><use transform="matrix(0.06172839506172839,0,0,0.06172839506172839,37.03703703703704,0)" xlink:href="#aw"/><use transform="matrix(0.06172839506172839,0,0,0.06172839506172839,49.382716049382715,0)" xlink:href="#ay"/><use transform="matrix(0.06172839506172839,0,0,0.06172839506172839,56.72839506172839,0)" xlink:href="#az"/><use transform="matrix(0.06172839506172839,0,0,0.06172839506172839,69.07407407407408,0)" xlink:href="#aA"/><use transform="matrix(0.06172839506172839,0,0,0.06172839506172839,88.82716049382717,0)" xlink:href="#aB"/></g><g id="y"><use transform="matrix(0.074074074074074,0,0,0.074074074074074,0,0)" xlink:href="#aC"/><use transform="matrix(0.074074074074074,0,0,0.074074074074074,22.148148148148127,0)" xlink:href="#az"/><use transform="matrix(0.074074074074074,0,0,0.074074074074074,36.962962962962926,0)" xlink:href="#az"/><use transform="matrix(0.074074074074074,0,0,0.074074074074074,51.77777777777773,0)" xlink:href="#ay"/><use transform="matrix(0.074074074074074,0,0,0.074074074074074,60.59259259259254,0)" xlink:href="#aD"/><use transform="matrix(0.074074074074074,0,0,0.074074074074074,67.99999999999994,0)" xlink:href="#aE"/><use transform="matrix(0.074074074074074,0,0,0.074074074074074,84.22222222222214,0)" xlink:href="#aF"/><use transform="matrix(0.074074074074074,0,0,0.074074074074074,100.44444444444434,0)" xlink:href="#aw"/></g><path fill="#0057d2" d="M275 0h-61l-44-196L126 0H64L0-248h53L97-49l45-199h58l43 199 44-199h52" id="bj"/><path fill="#0057d2" d="M135-194c52 0 70 43 70 98 0 56-19 99-73 100-30 1-46-15-58-35L72 0H24l1-261h50v104c11-23 29-37 60-37zM114-30c31 0 40-27 40-66 0-37-7-63-39-63s-41 28-41 65c0 36 8 64 40 64" id="bk"/><g id="z"><use transform="matrix(0.074074074074074,0,0,0.074074074074074,0,0)" xlink:href="#bj"/><use transform="matrix(0.074074074074074,0,0,0.074074074074074,24.592592592592567,0)" xlink:href="#az"/><use transform="matrix(0.074074074074074,0,0,0.074074074074074,39.40740740740737,0)" xlink:href="#bk"/></g><path fill="#0057d2" d="M185-189c-5-48-123-54-124 2 14 75 158 14 163 119 3 78-121 87-175 55-17-10-28-26-33-46l33-7c5 56 141 63 141-1 0-78-155-14-162-118-5-82 145-84 179-34 5 7 8 16 11 25" id="bl"/><g id="B"><use transform="matrix(0.06172839506172832,0,0,0.06172839506172832,0,0)" xlink:href="#bl"/><use transform="matrix(0.06172839506172832,0,0,0.06172839506172832,14.814814814814797,0)" xlink:href="#ba"/><use transform="matrix(0.06172839506172832,0,0,0.06172839506172832,25.925925925925895,0)" xlink:href="#bb"/><use transform="matrix(0.06172839506172832,0,0,0.06172839506172832,38.27160493827156,0)" xlink:href="#aR"/><use transform="matrix(0.06172839506172832,0,0,0.06172839506172832,50.61728395061722,0)" xlink:href="#bc"/><use transform="matrix(0.06172839506172832,0,0,0.06172839506172832,62.962962962962884,0)" xlink:href="#bd"/><use transform="matrix(0.06172839506172832,0,0,0.06172839506172832,75.30864197530855,0)" xlink:href="#aY"/><use transform="matrix(0.06172839506172832,0,0,0.06172839506172832,80.18518518518508,0)" xlink:href="#aR"/><use transform="matrix(0.06172839506172832,0,0,0.06172839506172832,92.53086419753075,0)" xlink:href="#aS"/></g><g id="C"><use transform="matrix(0.06172839506172832,0,0,0.06172839506172832,0,0)" xlink:href="#aN"/><use transform="matrix(0.06172839506172832,0,0,0.06172839506172832,18.45679012345677,0)" xlink:href="#aR"/><use transform="matrix(0.06172839506172832,0,0,0.06172839506172832,30.802469135802433,0)" xlink:href="#aR"/><use transform="matrix(0.06172839506172832,0,0,0.06172839506172832,43.148148148148096,0)" xlink:href="#bg"/><use transform="matrix(0.06172839506172832,0,0,0.06172839506172832,49.32098765432093,0)" xlink:href="#be"/><use transform="matrix(0.06172839506172832,0,0,0.06172839506172832,54.19753086419747,0)" xlink:href="#aP"/><use transform="matrix(0.06172839506172832,0,0,0.06172839506172832,66.54320987654313,0)" xlink:href="#aQ"/><use transform="matrix(0.06172839506172832,0,0,0.06172839506172832,78.8888888888888,0)" xlink:href="#aS"/></g><path fill="#0057d2" d="M108 0H70L1-190h34L89-25l56-165h34" id="bm"/><g id="D"><use transform="matrix(0.06172839506172832,0,0,0.06172839506172832,0,0)" xlink:href="#bm"/><use transform="matrix(0.06172839506172832,0,0,0.06172839506172832,11.111111111111098,0)" xlink:href="#be"/><use transform="matrix(0.06172839506172832,0,0,0.06172839506172832,15.987654320987636,0)" xlink:href="#aO"/></g><path fill="#0057d2" d="M115-194c53 0 69 39 70 98 0 66-23 100-70 100C84 3 66-7 56-30L54 0H23l1-261h32v101c10-23 28-34 59-34zm-8 174c40 0 45-34 45-75 0-40-5-75-45-74-42 0-51 32-51 76 0 43 10 73 51 73" id="bn"/><g id="E"><use transform="matrix(0.06172839506172832,0,0,0.06172839506172832,0,0)" xlink:href="#aT"/><use transform="matrix(0.06172839506172832,0,0,0.06172839506172832,20.493827160493804,0)" xlink:href="#aR"/><use transform="matrix(0.06172839506172832,0,0,0.06172839506172832,32.83950617283947,0)" xlink:href="#bn"/></g><path fill="#333" d="M169-182c-1-43-94-46-97-3 18 66 151 10 154 114 3 95-165 93-204 36-6-8-10-19-12-30l50-8c3 46 112 56 116 5-17-69-150-10-154-114-4-87 153-88 188-35 5 8 8 18 10 28" id="bo"/><path fill="#333" d="M190-63c-7 42-38 67-86 67-59 0-84-38-90-98-12-110 154-137 174-36l-49 2c-2-19-15-32-35-32-30 0-35 28-38 64-6 74 65 87 74 30" id="bp"/><path fill="#333" d="M114-157C55-157 80-60 75 0H25v-261h50l-1 109c12-26 28-41 61-42 86-1 58 113 63 194h-50c-7-57 23-157-34-157" id="bq"/><path fill="#333" d="M185-48c-13 30-37 53-82 52C43 2 14-33 14-96s30-98 90-98c62 0 83 45 84 108H66c0 31 8 55 39 56 18 0 30-7 34-22zm-45-69c5-46-57-63-70-21-2 6-4 13-4 21h74" id="br"/><path fill="#333" d="M88-194c31-1 46 15 58 34l-1-101h50l1 261h-48c-2-10 0-23-3-31C134-8 116 4 84 4 32 4 16-41 15-95c0-56 19-97 73-99zm17 164c33 0 40-30 41-66 1-37-9-64-41-64s-38 30-39 65c0 43 13 65 39 65" id="bs"/><path fill="#333" d="M85 4C-2 5 27-109 22-190h50c7 57-23 150 33 157 60-5 35-97 40-157h50l1 190h-47c-2-12 1-28-3-38-12 25-28 42-61 42" id="bt"/><path fill="#333" d="M25 0v-261h50V0H25" id="bu"/><path fill="#333" d="M137-138c1-29-70-34-71-4 15 46 118 7 119 86 1 83-164 76-172 9l43-7c4 19 20 25 44 25 33 8 57-30 24-41C81-84 22-81 20-136c-2-80 154-74 161-7" id="bv"/><g id="F"><use transform="matrix(0.04938271604938272,0,0,0.04938271604938272,0,0)" xlink:href="#bo"/><use transform="matrix(0.04938271604938272,0,0,0.04938271604938272,11.851851851851853,0)" xlink:href="#bp"/><use transform="matrix(0.04938271604938272,0,0,0.04938271604938272,21.7283950617284,0)" xlink:href="#bq"/><use transform="matrix(0.04938271604938272,0,0,0.04938271604938272,32.543209876543216,0)" xlink:href="#br"/><use transform="matrix(0.04938271604938272,0,0,0.04938271604938272,42.41975308641976,0)" xlink:href="#bs"/><use transform="matrix(0.04938271604938272,0,0,0.04938271604938272,53.23456790123457,0)" xlink:href="#bt"/><use transform="matrix(0.04938271604938272,0,0,0.04938271604938272,64.0493827160494,0)" xlink:href="#bu"/><use transform="matrix(0.04938271604938272,0,0,0.04938271604938272,68.98765432098767,0)" xlink:href="#br"/><use transform="matrix(0.04938271604938272,0,0,0.04938271604938272,78.86419753086422,0)" xlink:href="#bv"/></g><path fill="#333" d="M76-208v77h127v40H76V0H24v-248h183v40H76" id="bw"/><path fill="#333" d="M135-150c-39-12-60 13-60 57V0H25l-1-190h47c2 13-1 29 3 40 6-28 27-53 61-41v41" id="bx"/><path fill="#333" d="M110-194c64 0 96 36 96 99 0 64-35 99-97 99-61 0-95-36-95-99 0-62 34-99 96-99zm-1 164c35 0 45-28 45-65 0-40-10-65-43-65-34 0-45 26-45 65 0 36 10 65 43 65" id="by"/><path fill="#333" d="M220-157c-53 9-28 100-34 157h-49v-107c1-27-5-49-29-50C55-147 81-57 75 0H25l-1-190h47c2 12-1 28 3 38 10-53 101-56 108 0 13-22 24-43 59-42 82 1 51 116 57 194h-49v-107c-1-25-5-48-29-50" id="bz"/><g id="G"><use transform="matrix(0.04938271604938272,0,0,0.04938271604938272,0,0)" xlink:href="#bw"/><use transform="matrix(0.04938271604938272,0,0,0.04938271604938272,10.814814814814815,0)" xlink:href="#bx"/><use transform="matrix(0.04938271604938272,0,0,0.04938271604938272,17.728395061728396,0)" xlink:href="#by"/><use transform="matrix(0.04938271604938272,0,0,0.04938271604938272,28.543209876543205,0)" xlink:href="#bz"/></g><path fill="#552cff" d="M199 0l-22-63H83L61 0H9l90-248h61L250 0h-51zm-33-102l-36-108c-10 38-24 72-36 108h72" id="bA"/><path fill="#552cff" d="M88-194c31-1 46 15 58 34l-1-101h50l1 261h-48c-2-10 0-23-3-31C134-8 116 4 84 4 32 4 16-41 15-95c0-56 19-97 73-99zm17 164c33 0 40-30 41-66 1-37-9-64-41-64s-38 30-39 65c0 43 13 65 39 65" id="bB"/><path fill="#552cff" d="M25-224v-37h50v37H25zM25 0v-190h50V0H25" id="bC"/><g id="H"><use transform="matrix(0.074074074074074,0,0,0.074074074074074,0,0)" xlink:href="#bA"/><use transform="matrix(0.074074074074074,0,0,0.074074074074074,19.185185185185166,0)" xlink:href="#bB"/><use transform="matrix(0.074074074074074,0,0,0.074074074074074,35.407407407407376,0)" xlink:href="#ag"/><use transform="matrix(0.074074074074074,0,0,0.074074074074074,59.11111111111106,0)" xlink:href="#bC"/><use transform="matrix(0.074074074074074,0,0,0.074074074074074,66.51851851851846,0)" xlink:href="#ab"/></g><path fill="#552cff" d="M179-190L93 31C79 59 56 82 12 73V49c39 6 53-20 64-50L1-190h34L92-34l54-156h33" id="bD"/><path fill="#552cff" d="M9 0v-24l116-142H16v-24h144v24L44-24h123V0H9" id="bE"/><g id="I"><use transform="matrix(0.06172839506172832,0,0,0.06172839506172832,0,0)" xlink:href="#ar"/><use transform="matrix(0.06172839506172832,0,0,0.06172839506172832,12.345679012345665,0)" xlink:href="#as"/><use transform="matrix(0.06172839506172832,0,0,0.06172839506172832,24.69135802469133,0)" xlink:href="#ar"/><use transform="matrix(0.06172839506172832,0,0,0.06172839506172832,37.037037037036995,0)" xlink:href="#aq"/><use transform="matrix(0.06172839506172832,0,0,0.06172839506172832,41.91358024691353,0)" xlink:href="#bD"/><use transform="matrix(0.06172839506172832,0,0,0.06172839506172832,53.02469135802463,0)" xlink:href="#bE"/><use transform="matrix(0.06172839506172832,0,0,0.06172839506172832,64.13580246913573,0)" xlink:href="#ai"/></g><path fill="#552cff" d="M210-169c-67 3-38 105-44 169h-31v-121c0-29-5-50-35-48C34-165 62-65 56 0H25l-1-190h30c1 10-1 24 2 32 10-44 99-50 107 0 11-21 27-35 58-36 85-2 47 119 55 194h-31v-121c0-29-5-49-35-48" id="bF"/><path fill="#552cff" d="M114-163C36-179 61-72 57 0H25l-1-190h30c1 12-1 29 2 39 6-27 23-49 58-41v29" id="bG"/><path fill="#552cff" d="M24-231v-30h32v30H24zM24 0v-190h32V0H24" id="bH"/><g id="J"><use transform="matrix(0.06172839506172832,0,0,0.06172839506172832,0,0)" xlink:href="#bF"/><use transform="matrix(0.06172839506172832,0,0,0.06172839506172832,18.45679012345677,0)" xlink:href="#ai"/><use transform="matrix(0.06172839506172832,0,0,0.06172839506172832,30.802469135802433,0)" xlink:href="#al"/><use transform="matrix(0.06172839506172832,0,0,0.06172839506172832,36.97530864197527,0)" xlink:href="#bG"/><use transform="matrix(0.06172839506172832,0,0,0.06172839506172832,44.32098765432094,0)" xlink:href="#bH"/><use transform="matrix(0.06172839506172832,0,0,0.06172839506172832,49.197530864197475,0)" xlink:href="#an"/><use transform="matrix(0.06172839506172832,0,0,0.06172839506172832,60.308641975308575,0)" xlink:href="#ak"/></g><path fill="#333" d="M238-95c0 69-44 99-111 99C63 4 22-25 22-93v-155h51v151c-1 38 19 59 55 60 90 1 49-130 58-211h52v153" id="bI"/><g id="K"><use transform="matrix(0.04938271604938272,0,0,0.04938271604938272,0,0)" xlink:href="#bI"/><use transform="matrix(0.04938271604938272,0,0,0.04938271604938272,12.790123456790125,0)" xlink:href="#bv"/><use transform="matrix(0.04938271604938272,0,0,0.04938271604938272,22.66666666666667,0)" xlink:href="#br"/><use transform="matrix(0.04938271604938272,0,0,0.04938271604938272,32.543209876543216,0)" xlink:href="#bv"/></g><path fill="#0057d2" d="M136-208V0H84v-208H4v-40h212v40h-80" id="bJ"/><path fill="#0057d2" d="M133-34C117-15 103 5 69 4 32 3 11-16 11-54c-1-60 55-63 116-61 1-26-3-47-28-47-18 1-26 9-28 27l-52-2c7-38 36-58 82-57s74 22 75 68l1 82c-1 14 12 18 25 15v27c-30 8-71 5-69-32zm-48 3c29 0 43-24 42-57-32 0-66-3-65 30 0 17 8 27 23 27" id="bK"/><g id="L"><use transform="matrix(0.074074074074074,0,0,0.074074074074074,0,0)" xlink:href="#bJ"/><use transform="matrix(0.074074074074074,0,0,0.074074074074074,14.222222222222207,0)" xlink:href="#az"/><use transform="matrix(0.074074074074074,0,0,0.074074074074074,29.03703703703701,0)" xlink:href="#aL"/><use transform="matrix(0.074074074074074,0,0,0.074074074074074,36.44444444444441,0)" xlink:href="#az"/><use transform="matrix(0.074074074074074,0,0,0.074074074074074,51.25925925925921,0)" xlink:href="#aF"/><use transform="matrix(0.074074074074074,0,0,0.074074074074074,67.48148148148141,0)" xlink:href="#aM"/><use transform="matrix(0.074074074074074,0,0,0.074074074074074,77.85185185185176,0)" xlink:href="#bK"/><use transform="matrix(0.074074074074074,0,0,0.074074074074074,92.66666666666656,0)" xlink:href="#aA"/></g><path fill="#0057d2" d="M127-220V0H93v-220H8v-28h204v28h-85" id="bL"/><g id="M"><use transform="matrix(0.06172839506172832,0,0,0.06172839506172832,0,0)" xlink:href="#bL"/><use transform="matrix(0.06172839506172832,0,0,0.06172839506172832,11.04938271604937,0)" xlink:href="#aR"/><use transform="matrix(0.06172839506172832,0,0,0.06172839506172832,23.395061728395035,0)" xlink:href="#aY"/><use transform="matrix(0.06172839506172832,0,0,0.06172839506172832,28.271604938271572,0)" xlink:href="#aR"/><use transform="matrix(0.06172839506172832,0,0,0.06172839506172832,40.617283950617235,0)" xlink:href="#aQ"/><use transform="matrix(0.06172839506172832,0,0,0.06172839506172832,52.9629629629629,0)" xlink:href="#aV"/><use transform="matrix(0.06172839506172832,0,0,0.06172839506172832,60.30864197530857,0)" xlink:href="#aO"/><use transform="matrix(0.06172839506172832,0,0,0.06172839506172832,72.65432098765423,0)" xlink:href="#bf"/></g><g id="N"><use transform="matrix(0.04938271604938272,0,0,0.04938271604938272,0,0)" xlink:href="#bo"/><use transform="matrix(0.04938271604938272,0,0,0.04938271604938272,11.851851851851853,0)" xlink:href="#bp"/><use transform="matrix(0.04938271604938272,0,0,0.04938271604938272,21.7283950617284,0)" xlink:href="#bq"/><use transform="matrix(0.04938271604938272,0,0,0.04938271604938272,32.543209876543216,0)" xlink:href="#br"/><use transform="matrix(0.04938271604938272,0,0,0.04938271604938272,42.41975308641976,0)" xlink:href="#bs"/><use transform="matrix(0.04938271604938272,0,0,0.04938271604938272,53.23456790123457,0)" xlink:href="#bt"/><use transform="matrix(0.04938271604938272,0,0,0.04938271604938272,64.0493827160494,0)" xlink:href="#bu"/><use transform="matrix(0.04938271604938272,0,0,0.04938271604938272,68.98765432098767,0)" xlink:href="#br"/><use transform="matrix(0.04938271604938272,0,0,0.04938271604938272,78.86419753086422,0)" xlink:href="#bv"/></g><path fill="#333" d="M24 0v-248h195v40H76v63h132v40H76v65h150V0H24" id="bM"/><path fill="#333" d="M128 0H69L1-190h53L99-40l48-150h52" id="bN"/><path fill="#333" d="M135-194c87-1 58 113 63 194h-50c-7-57 23-157-34-157-59 0-34 97-39 157H25l-1-190h47c2 12-1 28 3 38 12-26 28-41 61-42" id="bO"/><path fill="#333" d="M115-3C79 11 28 4 28-45v-112H4v-33h27l15-45h31v45h36v33H77v99c-1 23 16 31 38 25v30" id="bP"/><g id="O"><use transform="matrix(0.04938271604938272,0,0,0.04938271604938272,0,0)" xlink:href="#bM"/><use transform="matrix(0.04938271604938272,0,0,0.04938271604938272,11.851851851851853,0)" xlink:href="#bN"/><use transform="matrix(0.04938271604938272,0,0,0.04938271604938272,21.7283950617284,0)" xlink:href="#br"/><use transform="matrix(0.04938271604938272,0,0,0.04938271604938272,31.60493827160494,0)" xlink:href="#bO"/><use transform="matrix(0.04938271604938272,0,0,0.04938271604938272,42.41975308641976,0)" xlink:href="#bP"/></g><path fill="#333" d="M140-251c80 0 125 45 125 126S219 4 139 4C58 4 15-44 15-125s44-126 125-126zm-1 214c52 0 73-35 73-88 0-50-21-86-72-86-52 0-73 35-73 86s22 88 72 88" id="bQ"/><path fill="#333" d="M135-194c52 0 70 43 70 98 0 56-19 99-73 100-30 1-46-15-58-35L72 0H24l1-261h50v104c11-23 29-37 60-37zM114-30c31 0 40-27 40-66 0-37-7-63-39-63s-41 28-41 65c0 36 8 64 40 64" id="bR"/><path fill="#333" d="M133-34C117-15 103 5 69 4 32 3 11-16 11-54c-1-60 55-63 116-61 1-26-3-47-28-47-18 1-26 9-28 27l-52-2c7-38 36-58 82-57s74 22 75 68l1 82c-1 14 12 18 25 15v27c-30 8-71 5-69-32zm-48 3c29 0 43-24 42-57-32 0-66-3-65 30 0 17 8 27 23 27" id="bS"/><path fill="#333" d="M25-224v-37h50v37H25zM25 0v-190h50V0H25" id="bT"/><g id="P"><use transform="matrix(0.04938271604938272,0,0,0.04938271604938272,0,0)" xlink:href="#bQ"/><use transform="matrix(0.04938271604938272,0,0,0.04938271604938272,13.827160493827162,0)" xlink:href="#bR"/><use transform="matrix(0.04938271604938272,0,0,0.04938271604938272,24.641975308641975,0)" xlink:href="#bP"/><use transform="matrix(0.04938271604938272,0,0,0.04938271604938272,30.518518518518523,0)" xlink:href="#bS"/><use transform="matrix(0.04938271604938272,0,0,0.04938271604938272,40.39506172839506,0)" xlink:href="#bT"/><use transform="matrix(0.04938271604938272,0,0,0.04938271604938272,45.333333333333336,0)" xlink:href="#bO"/><use transform="matrix(0.04938271604938272,0,0,0.04938271604938272,56.14814814814815,0)" xlink:href="#bv"/></g><g id="Q"><use transform="matrix(0.04938271604938272,0,0,0.04938271604938272,0,0)" xlink:href="#bI"/><use transform="matrix(0.04938271604938272,0,0,0.04938271604938272,12.790123456790125,0)" xlink:href="#bv"/><use transform="matrix(0.04938271604938272,0,0,0.04938271604938272,22.66666666666667,0)" xlink:href="#br"/><use transform="matrix(0.04938271604938272,0,0,0.04938271604938272,32.543209876543216,0)" xlink:href="#bx"/></g><path fill="#333" d="M67-125c0 53 21 87 73 88 37 1 54-22 65-47l45 17C233-25 199 4 140 4 58 4 20-42 15-125 8-235 124-281 211-232c18 10 29 29 36 50l-46 12c-8-25-30-41-62-41-52 0-71 34-72 86" id="bU"/><g id="R"><use transform="matrix(0.04938271604938272,0,0,0.04938271604938272,0,0)" xlink:href="#bU"/><use transform="matrix(0.04938271604938272,0,0,0.04938271604938272,12.790123456790125,0)" xlink:href="#bx"/><use transform="matrix(0.04938271604938272,0,0,0.04938271604938272,19.703703703703706,0)" xlink:href="#br"/><use transform="matrix(0.04938271604938272,0,0,0.04938271604938272,29.58024691358025,0)" xlink:href="#bs"/><use transform="matrix(0.04938271604938272,0,0,0.04938271604938272,40.39506172839506,0)" xlink:href="#br"/><use transform="matrix(0.04938271604938272,0,0,0.04938271604938272,50.27160493827161,0)" xlink:href="#bO"/><use transform="matrix(0.04938271604938272,0,0,0.04938271604938272,61.086419753086425,0)" xlink:href="#bP"/><use transform="matrix(0.04938271604938272,0,0,0.04938271604938272,66.96296296296296,0)" xlink:href="#bT"/><use transform="matrix(0.04938271604938272,0,0,0.04938271604938272,71.90123456790124,0)" xlink:href="#bS"/><use transform="matrix(0.04938271604938272,0,0,0.04938271604938272,81.77777777777779,0)" xlink:href="#bu"/><use transform="matrix(0.04938271604938272,0,0,0.04938271604938272,86.71604938271605,0)" xlink:href="#bv"/></g><path fill="#333" d="M67-125c0 54 23 88 75 88 28 0 53-7 68-21v-34h-60v-39h108v91C232-14 192 4 140 4 58 4 20-42 15-125 8-236 126-280 215-234c19 10 29 26 37 47l-47 15c-11-23-29-39-63-39-53 1-75 33-75 86" id="bV"/><g id="S"><use transform="matrix(0.04938271604938272,0,0,0.04938271604938272,0,0)" xlink:href="#bV"/><use transform="matrix(0.04938271604938272,0,0,0.04938271604938272,13.827160493827162,0)" xlink:href="#br"/><use transform="matrix(0.04938271604938272,0,0,0.04938271604938272,23.703703703703706,0)" xlink:href="#bP"/><use transform="matrix(0.04938271604938272,0,0,0.04938271604938272,29.58024691358025,0)" xlink:href="#bv"/></g><path fill="#333" d="M230 0l2-204L168 0h-37L68-204 70 0H24v-248h70l56 185 57-185h69V0h-46" id="bW"/><g id="T"><use transform="matrix(0.04938271604938272,0,0,0.04938271604938272,0,0)" xlink:href="#bW"/><use transform="matrix(0.04938271604938272,0,0,0.04938271604938272,14.765432098765434,0)" xlink:href="#br"/><use transform="matrix(0.04938271604938272,0,0,0.04938271604938272,24.641975308641978,0)" xlink:href="#bP"/><use transform="matrix(0.04938271604938272,0,0,0.04938271604938272,30.518518518518523,0)" xlink:href="#bx"/><use transform="matrix(0.04938271604938272,0,0,0.04938271604938272,37.4320987654321,0)" xlink:href="#bT"/><use transform="matrix(0.04938271604938272,0,0,0.04938271604938272,42.370370370370374,0)" xlink:href="#bp"/><use transform="matrix(0.04938271604938272,0,0,0.04938271604938272,52.24691358024692,0)" xlink:href="#bv"/></g><path fill="#4c535d" d="M67-125c0 53 21 87 73 88 37 1 54-22 65-47l45 17C233-25 199 4 140 4 58 4 20-42 15-125 8-235 124-281 211-232c18 10 29 29 36 50l-46 12c-8-25-30-41-62-41-52 0-71 34-72 86" id="bX"/><path fill="#4c535d" d="M110-194c64 0 96 36 96 99 0 64-35 99-97 99-61 0-95-36-95-99 0-62 34-99 96-99zm-1 164c35 0 45-28 45-65 0-40-10-65-43-65-34 0-45 26-45 65 0 36 10 65 43 65" id="bY"/><path fill="#4c535d" d="M135-194c87-1 58 113 63 194h-50c-7-57 23-157-34-157-59 0-34 97-39 157H25l-1-190h47c2 12-1 28 3 38 12-26 28-41 61-42" id="bZ"/><path fill="#4c535d" d="M115-3C79 11 28 4 28-45v-112H4v-33h27l15-45h31v45h36v33H77v99c-1 23 16 31 38 25v30" id="ca"/><path fill="#4c535d" d="M185-48c-13 30-37 53-82 52C43 2 14-33 14-96s30-98 90-98c62 0 83 45 84 108H66c0 31 8 55 39 56 18 0 30-7 34-22zm-45-69c5-46-57-63-70-21-2 6-4 13-4 21h74" id="cb"/><path fill="#4c535d" d="M144 0l-44-69L55 0H2l70-98-66-92h53l41 62 40-62h54l-67 91 71 99h-54" id="cc"/><g id="U"><use transform="matrix(0.12345679012345674,0,0,0.12345679012345674,0,0)" xlink:href="#bX"/><use transform="matrix(0.12345679012345674,0,0,0.12345679012345674,31.975308641975296,0)" xlink:href="#bY"/><use transform="matrix(0.12345679012345674,0,0,0.12345679012345674,59.01234567901233,0)" xlink:href="#bZ"/><use transform="matrix(0.12345679012345674,0,0,0.12345679012345674,86.04938271604935,0)" xlink:href="#ca"/><use transform="matrix(0.12345679012345674,0,0,0.12345679012345674,100.7407407407407,0)" xlink:href="#cb"/><use transform="matrix(0.12345679012345674,0,0,0.12345679012345674,125.43209876543204,0)" xlink:href="#cc"/><use transform="matrix(0.12345679012345674,0,0,0.12345679012345674,150.12345679012338,0)" xlink:href="#ca"/></g></defs></g></svg>