<svg xmlns="http://www.w3.org/2000/svg" xmlns:xlink="http://www.w3.org/1999/xlink" xmlns:lucid="lucid" width="1269" height="907"><g transform="translate(-248 2352)" lucid:page-tab-id="eCwN1xG57If6"><path d="M281.77-2311a6 6 0 0 1 6-6h1188a6 6 0 0 1 6 6v828a6 6 0 0 1-6 6h-1188a6 6 0 0 1-6-6z" fill-opacity="0"/><path d="M318.23-2317h30.47m15.23 0h30.46m15.22 0h30.46m15.23 0h30.47m15.23 0h30.47m15.23 0h30.46m15.23 0h30.45m15.23 0h30.46m15.23 0h30.46m15.24 0h30.46m15.23 0h30.46m15.23 0h30.46m15.24 0H897m15.23 0h30.47m15.23 0h30.46m15.22 0h30.46m15.23 0h30.47m15.23 0h30.46m15.24 0h30.46m15.23 0h30.45m15.23 0h30.46m15.23 0h30.46m15.23 0h30.47m15.23 0h30.46m15.23 0h30.46m15.24 0h15.23l.94.08.93.22.87.36.8.5.72.6.6.72.5.8.36.88.22.9.07.95v15.34m0 15.34v30.66m0 15.34v30.66m0 15.34v30.66m0 15.34v30.66m0 15.34v30.66m0 15.34v30.66m0 15.34v30.66m0 15.34v30.66m0 15.34v30.66m0 15.34v30.66m0 15.34v30.66m0 15.34v30.66m0 15.34v30.66m0 15.34v30.66m0 15.34v30.66m0 15.34v30.66m0 15.34v30.66m0 15.34v15.33l-.07.95-.22.9-.36.88-.5.8-.6.72-.72.6-.8.5-.87.37-.92.2-.93.1h-15.23m-15.23 0h-30.45m-15.23 0h-30.46m-15.23 0h-30.47m-15.23 0h-30.46m-15.23 0h-30.46m-15.23 0h-30.46m-15.24 0h-30.46m-15.24 0H1095m-15.23 0h-30.46m-15.22 0h-30.46m-15.23 0h-30.47m-15.23 0h-30.47m-15.23 0h-30.46m-15.23 0h-30.45m-15.23 0h-30.46m-15.23 0h-30.46m-15.24 0h-30.46m-15.23 0h-30.46m-15.23 0H592.4m-15.24 0H546.7m-15.24 0H501m-15.23 0H455.3m-15.22 0h-30.46m-15.23 0h-30.47m-15.23 0h-30.47m-15.23 0h-15.23l-.94-.08-.9-.22-.88-.37-.8-.5-.72-.6-.6-.7-.5-.82-.36-.87-.22-.9-.08-.95v-15.32m0-15.34v-30.66m0-15.34v-30.66m0-15.34v-30.66m0-15.34v-30.66m0-15.34v-30.66m0-15.34v-30.66m0-15.34v-30.66m0-15.34v-30.66m0-15.34v-30.66m0-15.34v-30.66m0-15.34v-30.66m0-15.34v-30.66m0-15.34v-30.66m0-15.34v-30.66m0-15.34v-30.66m0-15.34v-30.66m0-15.34v-30.66m0-15.34V-2311l.08-.93.22-.9.36-.9.5-.8.6-.7.72-.6.8-.5.87-.37.9-.22.95-.07H303" stroke="#5e5e5e" stroke-width="3" fill="none"/><path d="M314.42-2134a6 6 0 0 1 6-6h249.63a6 6 0 0 1 6 6v136.67a6 6 0 0 1-6 6H320.42a6 6 0 0 1-6-6z" stroke="#552cff" stroke-width="3" fill="#ded3ff"/><use xlink:href="#a" transform="matrix(1,0,0,1,319.41723781999804,-2135.0000000000005) translate(76.70987654320987 22.12152777777778)"/><use xlink:href="#b" transform="matrix(1,0,0,1,319.41723781999804,-2135.0000000000005) translate(63.925925925925995 52.343749999999986)"/><use xlink:href="#c" transform="matrix(1,0,0,1,319.41723781999804,-2135.0000000000005) translate(126 80.7881944444444)"/><use xlink:href="#d" transform="matrix(1,0,0,1,319.41723781999804,-2135.0000000000005) translate(18.654320987654444 107.45486111111104)"/><use xlink:href="#e" transform="matrix(1,0,0,1,319.41723781999804,-2135.0000000000005) translate(88.962962962963 107.45486111111104)"/><use xlink:href="#f" transform="matrix(1,0,0,1,319.41723781999804,-2135.0000000000005) translate(113.65432098765433 107.45486111111104)"/><use xlink:href="#g" transform="matrix(1,0,0,1,319.41723781999804,-2135.0000000000005) translate(208.65432098765422 107.45486111111104)"/><use xlink:href="#h" transform="matrix(1,0,0,1,319.41723781999804,-2135.0000000000005) translate(97.60493827160496 134.12152777777766)"/><path d="M541.3-1711.16a6 6 0 0 1 6-6h895.83a6 6 0 0 1 6 6v136.67a6 6 0 0 1-6 6H547.3a6 6 0 0 1-6-6z" stroke="#0057d2" stroke-width="3" fill="#d1efff"/><use xlink:href="#i" transform="matrix(1,0,0,1,546.3082624847722,-1712.1619678498141) translate(398.41358024691357 30.80902777777778)"/><use xlink:href="#j" transform="matrix(1,0,0,1,546.3082624847722,-1712.1619678498141) translate(326.2962962962964 61.031249999999986)"/><use xlink:href="#k" transform="matrix(1,0,0,1,546.3082624847722,-1712.1619678498141) translate(448.96296296296293 61.031249999999986)"/><use xlink:href="#l" transform="matrix(1,0,0,1,546.3082624847722,-1712.1619678498141) translate(527.3333333333333 61.031249999999986)"/><use xlink:href="#m" transform="matrix(1,0,0,1,546.3082624847722,-1712.1619678498141) translate(449 89.4756944444444)"/><use xlink:href="#n" transform="matrix(1,0,0,1,546.3082624847722,-1712.1619678498141) translate(191.71604938271634 116.14236111111104)"/><use xlink:href="#o" transform="matrix(1,0,0,1,546.3082624847722,-1712.1619678498141) translate(283.07407407407425 116.14236111111104)"/><use xlink:href="#p" transform="matrix(1,0,0,1,546.3082624847722,-1712.1619678498141) translate(357.14814814814827 116.14236111111104)"/><use xlink:href="#q" transform="matrix(1,0,0,1,546.3082624847722,-1712.1619678498141) translate(454 116.14236111111104)"/><use xlink:href="#r" transform="matrix(1,0,0,1,546.3082624847722,-1712.1619678498141) translate(497.2098765432098 116.14236111111104)"/><use xlink:href="#s" transform="matrix(1,0,0,1,546.3082624847722,-1712.1619678498141) translate(610.6049382716047 116.14236111111104)"/><path d="M855.08-2112.67a6 6 0 0 1 6-6h249.64a6 6 0 0 1 6 6V-1976a6 6 0 0 1-6 6H861.08a6 6 0 0 1-6-6z" stroke="#0057d2" stroke-width="3" fill="#d1efff"/><use xlink:href="#t" transform="matrix(1,0,0,1,860.0839044866644,-2113.666666668881) translate(75.41358024691357 22.12152777777778)"/><use xlink:href="#j" transform="matrix(1,0,0,1,860.0839044866644,-2113.666666668881) translate(36.85185185185193 52.343749999999986)"/><use xlink:href="#u" transform="matrix(1,0,0,1,860.0839044866644,-2113.666666668881) translate(159.51851851851848 52.343749999999986)"/><use xlink:href="#m" transform="matrix(1,0,0,1,860.0839044866644,-2113.666666668881) translate(126 80.7881944444444)"/><use xlink:href="#v" transform="matrix(1,0,0,1,860.0839044866644,-2113.666666668881) translate(26.09259259259271 107.45486111111104)"/><use xlink:href="#w" transform="matrix(1,0,0,1,860.0839044866644,-2113.666666668881) translate(135.9074074074074 107.45486111111104)"/><use xlink:href="#x" transform="matrix(1,0,0,1,860.0839044866644,-2113.666666668881) translate(96.43209876543213 134.12152777777766)"/><path d="M578.55-2065.67h256.53" stroke="#5e5e5e" stroke-width="2" fill="none"/><path d="M578.58-2064.67h-1.03v-2h1.03z" stroke="#5e5e5e" stroke-width=".05" fill="#5e5e5e"/><path d="M850.35-2065.67l-14.27 4.64v-9.27z" stroke="#5e5e5e" stroke-width="2" fill="#5e5e5e"/><use xlink:href="#y" transform="matrix(1,0,0,1,628.5378815196532,-2091.0000000617347) translate(0.0049999999999954525 14.222222222222223)"/><use xlink:href="#z" transform="matrix(1,0,0,1,628.5378815196532,-2091.0000000617347) translate(93.68401234567904 14.222222222222223)"/><path d="M852.88-1973.83l-9.7 2.52-10.08 3.06-9.58 3.36-9.1 3.63-8.7 3.9-8.3 4.14-7.97 4.4-7.63 4.64-7.33 4.9-7.06 5.14-6.8 5.4-6.54 5.7-6.32 5.95-6.1 6.26-5.88 6.56-5.67 6.9-5.48 7.24-5.27 7.63-5.06 8.02-4.85 8.45-4.63 8.9-4.4 9.42-4.14 9.93-3.88 10.5-3.58 11.12-3.25 11.77-2.9 12.46-2.48 13.2-2.03 14-1.53 14.8-.76 12.74" stroke="#5e5e5e" stroke-width="2" stroke-linejoin="round" fill="none"/><path d="M853.67-1974.83l.28 1.15.22.55-1.06.28-.5-1.94 1.05-.26z" stroke="#5e5e5e" stroke-width=".05" fill="#5e5e5e"/><path d="M675.5-1721.9l-4.25-14.38 9.26.24z" stroke="#5e5e5e" stroke-width="2" fill="#5e5e5e"/><g><use xlink:href="#A" transform="matrix(1,0,0,1,604.4995980874721,-1873.4555657902185) translate(0.005000000000002558 14.222222222222223)"/><use xlink:href="#B" transform="matrix(1,0,0,1,604.4995980874721,-1873.4555657902185) translate(15.288950617283959 35.55555555555556)"/></g><path d="M883.75-1967.5v230.34" stroke="#5e5e5e" stroke-width="2" stroke-linejoin="round" fill="none"/><path d="M884.75-1967.47h-2v-1.03h2z" stroke="#5e5e5e" stroke-width=".05" fill="#5e5e5e"/><path d="M883.75-1721.9l-4.63-14.26h9.27z" stroke="#5e5e5e" stroke-width="2" fill="#5e5e5e"/><g><use xlink:href="#C" transform="matrix(1,0,0,1,805.8246435593338,-1828.5901092437748) translate(0.005000000000002558 14.222222222222223)"/><use xlink:href="#B" transform="matrix(1,0,0,1,805.8246435593338,-1828.5901092437748) translate(5.88154320987654 35.55555555555556)"/></g><path d="M950.42-1967.5v230.34" stroke="#5e5e5e" stroke-width="2" stroke-linejoin="round" fill="none"/><path d="M951.42-1967.47h-2v-1.03h2z" stroke="#5e5e5e" stroke-width=".05" fill="#5e5e5e"/><path d="M950.42-1721.9l-4.64-14.26h9.27z" stroke="#5e5e5e" stroke-width="2" fill="#5e5e5e"/><g><use xlink:href="#D" transform="matrix(1,0,0,1,958.4172329472068,-1845.9823918152222) translate(9.85685185185185 14.222222222222223)"/><use xlink:href="#E" transform="matrix(1,0,0,1,958.4172329472068,-1845.9823918152222) translate(0.004999999999999005 35.55555555555556)"/></g><path d="M1119.22-1977.82l10.9.23 11.65.74 11.44 1.2 11.23 1.66 11 2.1 10.8 2.53 10.57 2.95 10.35 3.36 10.12 3.77 9.9 4.16 9.65 4.55 9.4 4.93 9.17 5.3 8.9 5.64 8.63 6 8.36 6.35 8.07 6.68 7.78 7 7.48 7.33 7.17 7.63 6.84 7.93 6.52 8.22 6.17 8.5 5.83 8.77 5.47 9.02 5.1 9.3 4.74 9.52 4.35 9.78 3.96 10 3.57 10.24 3.15 10.46 2.74 10.68 2.32 10.9 1.88 11.1 1.43 11.35.9 10.8" stroke="#5e5e5e" stroke-width="2" stroke-linejoin="round" fill="none"/><path d="M1119.27-1978.82l-.05 2-1-.02v-2z" stroke="#5e5e5e" stroke-width=".05" fill="#5e5e5e"/><path d="M1377.3-1721.9l-5.12-14.1 9.26-.3z" stroke="#5e5e5e" stroke-width="2" fill="#5e5e5e"/><g><use xlink:href="#D" transform="matrix(1,0,0,1,1225.848151688236,-1839.6144910311891) translate(40.79512345679012 14.222222222222223)"/><use xlink:href="#F" transform="matrix(1,0,0,1,1225.848151688236,-1839.6144910311891) translate(0.005000000000002558 35.55555555555556)"/></g><path d="M1068-1967.5v230.34" stroke="#5e5e5e" stroke-width="2" stroke-linejoin="round" fill="none"/><path d="M1069-1967.47h-2v-1.03h2z" stroke="#5e5e5e" stroke-width=".05" fill="#5e5e5e"/><path d="M1068-1721.9l-4.65-14.26h9.27z" stroke="#5e5e5e" stroke-width="2" fill="#5e5e5e"/><g><use xlink:href="#D" transform="matrix(1,0,0,1,1075.9868788259985,-1864.9124638282944) translate(40.81981481481481 14.222222222222223)"/><use xlink:href="#G" transform="matrix(1,0,0,1,1075.9868788259985,-1864.9124638282944) translate(0.005000000000002558 35.55555555555556)"/></g><path d="M315.43-2274a6 6 0 0 1 6-6H494a6 6 0 0 1 6 6v48a6 6 0 0 1-6 6H321.43a6 6 0 0 1-6-6z" stroke="#000" stroke-opacity="0" stroke-width="3" fill="#fff" fill-opacity="0"/><g><use xlink:href="#H" transform="matrix(1,0,0,1,320.43307086614163,-2275) translate(5.092592592592638 38.68055555555554)"/></g><defs><path fill="#552cff" d="M142-25L97-88v-13l45-64h42c-9 30-32 46-45 71l45 63v6h-42zm-80 0L16-88v-13l46-64h41c-9 30-32 46-45 71l45 63v6H62" id="I"/><path fill="#552cff" d="M135-194c53 0 70 44 70 98 0 56-19 98-73 100-31 1-45-17-59-34 3 33 2 69 2 105H25l-1-265h48c2 10 0 23 3 31 11-24 29-35 60-35zM114-30c33 0 39-31 40-66 0-38-9-64-40-64-56 0-55 130 0 130" id="J"/><path fill="#552cff" d="M185-48c-13 30-37 53-82 52C43 2 14-33 14-96s30-98 90-98c62 0 83 45 84 108H66c0 31 8 55 39 56 18 0 30-7 34-22zm-45-69c5-46-57-63-70-21-2 6-4 13-4 21h74" id="K"/><path fill="#552cff" d="M135-150c-39-12-60 13-60 57V0H25l-1-190h47c2 13-1 29 3 40 6-28 27-53 61-41v41" id="L"/><path fill="#552cff" d="M137-138c1-29-70-34-71-4 15 46 118 7 119 86 1 83-164 76-172 9l43-7c4 19 20 25 44 25 33 8 57-30 24-41C81-84 22-81 20-136c-2-80 154-74 161-7" id="M"/><path fill="#552cff" d="M110-194c64 0 96 36 96 99 0 64-35 99-97 99-61 0-95-36-95-99 0-62 34-99 96-99zm-1 164c35 0 45-28 45-65 0-40-10-65-43-65-34 0-45 26-45 65 0 36 10 65 43 65" id="N"/><path fill="#552cff" d="M135-194c87-1 58 113 63 194h-50c-7-57 23-157-34-157-59 0-34 97-39 157H25l-1-190h47c2 12-1 28 3 38 12-26 28-41 61-42" id="O"/><path fill="#552cff" d="M16-25v-6l45-63-44-65v-6h42l45 64v13L59-25H16zm81 0v-6l45-63-45-65v-6h42l45 64v13l-45 63H97" id="P"/><g id="a"><use transform="matrix(0.06172839506172839,0,0,0.06172839506172839,0,0)" xlink:href="#I"/><use transform="matrix(0.06172839506172839,0,0,0.06172839506172839,12.345679012345679,0)" xlink:href="#J"/><use transform="matrix(0.06172839506172839,0,0,0.06172839506172839,25.864197530864196,0)" xlink:href="#K"/><use transform="matrix(0.06172839506172839,0,0,0.06172839506172839,38.20987654320987,0)" xlink:href="#L"/><use transform="matrix(0.06172839506172839,0,0,0.06172839506172839,46.85185185185185,0)" xlink:href="#M"/><use transform="matrix(0.06172839506172839,0,0,0.06172839506172839,59.197530864197525,0)" xlink:href="#N"/><use transform="matrix(0.06172839506172839,0,0,0.06172839506172839,72.71604938271604,0)" xlink:href="#O"/><use transform="matrix(0.06172839506172839,0,0,0.06172839506172839,86.23456790123456,0)" xlink:href="#P"/></g><path fill="#552cff" d="M67-125c0 53 21 87 73 88 37 1 54-22 65-47l45 17C233-25 199 4 140 4 58 4 20-42 15-125 8-235 124-281 211-232c18 10 29 29 36 50l-46 12c-8-25-30-41-62-41-52 0-71 34-72 86" id="Q"/><path fill="#552cff" d="M85 4C-2 5 27-109 22-190h50c7 57-23 150 33 157 60-5 35-97 40-157h50l1 190h-47c-2-12 1-28-3-38-12 25-28 42-61 42" id="R"/><path fill="#552cff" d="M115-3C79 11 28 4 28-45v-112H4v-33h27l15-45h31v45h36v33H77v99c-1 23 16 31 38 25v30" id="S"/><path fill="#552cff" d="M220-157c-53 9-28 100-34 157h-49v-107c1-27-5-49-29-50C55-147 81-57 75 0H25l-1-190h47c2 12-1 28 3 38 10-53 101-56 108 0 13-22 24-43 59-42 82 1 51 116 57 194h-49v-107c-1-25-5-48-29-50" id="T"/><g id="b"><use transform="matrix(0.074074074074074,0,0,0.074074074074074,0,0)" xlink:href="#Q"/><use transform="matrix(0.074074074074074,0,0,0.074074074074074,19.185185185185166,0)" xlink:href="#R"/><use transform="matrix(0.074074074074074,0,0,0.074074074074074,35.407407407407376,0)" xlink:href="#M"/><use transform="matrix(0.074074074074074,0,0,0.074074074074074,50.22222222222218,0)" xlink:href="#S"/><use transform="matrix(0.074074074074074,0,0,0.074074074074074,59.03703703703698,0)" xlink:href="#N"/><use transform="matrix(0.074074074074074,0,0,0.074074074074074,75.25925925925918,0)" xlink:href="#T"/><use transform="matrix(0.074074074074074,0,0,0.074074074074074,98.96296296296286,0)" xlink:href="#K"/><use transform="matrix(0.074074074074074,0,0,0.074074074074074,113.77777777777766,0)" xlink:href="#L"/></g><path fill="#552cff" d="M190 0L58-211 59 0H30v-248h39L202-35l-2-213h31V0h-41" id="U"/><path fill="#552cff" d="M100-194c63 0 86 42 84 106H49c0 40 14 67 53 68 26 1 43-12 49-29l28 8c-11 28-37 45-77 45C44 4 14-33 15-96c1-61 26-98 85-98zm52 81c6-60-76-77-97-28-3 7-6 17-6 28h103" id="V"/><path fill="#552cff" d="M85-194c31 0 48 13 60 33l-1-100h32l1 261h-30c-2-10 0-23-3-31C134-8 116 4 85 4 32 4 16-35 15-94c0-66 23-100 70-100zm9 24c-40 0-46 34-46 75 0 40 6 74 45 74 42 0 51-32 51-76 0-42-9-74-50-73" id="W"/><path fill="#552cff" d="M135-143c-3-34-86-38-87 0 15 53 115 12 119 90S17 21 10-45l28-5c4 36 97 45 98 0-10-56-113-15-118-90-4-57 82-63 122-42 12 7 21 19 24 35" id="X"/><g id="d"><use transform="matrix(0.06172839506172832,0,0,0.06172839506172832,0,0)" xlink:href="#U"/><use transform="matrix(0.06172839506172832,0,0,0.06172839506172832,15.987654320987636,0)" xlink:href="#V"/><use transform="matrix(0.06172839506172832,0,0,0.06172839506172832,28.3333333333333,0)" xlink:href="#V"/><use transform="matrix(0.06172839506172832,0,0,0.06172839506172832,40.67901234567896,0)" xlink:href="#W"/><use transform="matrix(0.06172839506172832,0,0,0.06172839506172832,53.024691358024626,0)" xlink:href="#X"/></g><path fill="#552cff" d="M59-47c-2 24 18 29 38 22v24C64 9 27 4 27-40v-127H5v-23h24l9-43h21v43h35v23H59v120" id="Y"/><path fill="#552cff" d="M100-194c62-1 85 37 85 99 1 63-27 99-86 99S16-35 15-95c0-66 28-99 85-99zM99-20c44 1 53-31 53-75 0-43-8-75-51-75s-53 32-53 75 10 74 51 75" id="Z"/><g id="e"><use transform="matrix(0.06172839506172832,0,0,0.06172839506172832,0,0)" xlink:href="#Y"/><use transform="matrix(0.06172839506172832,0,0,0.06172839506172832,6.172839506172832,0)" xlink:href="#Z"/></g><path fill="#552cff" d="M96-169c-40 0-48 33-48 73s9 75 48 75c24 0 41-14 43-38l32 2c-6 37-31 61-74 61-59 0-76-41-82-99-10-93 101-131 147-64 4 7 5 14 7 22l-32 3c-4-21-16-35-41-35" id="aa"/><path fill="#552cff" d="M106-169C34-169 62-67 57 0H25v-261h32l-1 103c12-21 28-36 61-36 89 0 53 116 60 194h-32v-121c2-32-8-49-39-48" id="ab"/><path fill="#552cff" d="M84 4C-5 8 30-112 23-190h32v120c0 31 7 50 39 49 72-2 45-101 50-169h31l1 190h-30c-1-10 1-25-2-33-11 22-28 36-60 37" id="ac"/><path fill="#552cff" d="M24 0v-261h32V0H24" id="ad"/><g id="f"><use transform="matrix(0.06172839506172832,0,0,0.06172839506172832,0,0)" xlink:href="#X"/><use transform="matrix(0.06172839506172832,0,0,0.06172839506172832,11.111111111111098,0)" xlink:href="#aa"/><use transform="matrix(0.06172839506172832,0,0,0.06172839506172832,22.222222222222197,0)" xlink:href="#ab"/><use transform="matrix(0.06172839506172832,0,0,0.06172839506172832,34.56790123456786,0)" xlink:href="#V"/><use transform="matrix(0.06172839506172832,0,0,0.06172839506172832,46.913580246913526,0)" xlink:href="#W"/><use transform="matrix(0.06172839506172832,0,0,0.06172839506172832,59.25925925925919,0)" xlink:href="#ac"/><use transform="matrix(0.06172839506172832,0,0,0.06172839506172832,71.60493827160485,0)" xlink:href="#ad"/><use transform="matrix(0.06172839506172832,0,0,0.06172839506172832,76.48148148148138,0)" xlink:href="#V"/></g><path fill="#552cff" d="M141-36C126-15 110 5 73 4 37 3 15-17 15-53c-1-64 63-63 125-63 3-35-9-54-41-54-24 1-41 7-42 31l-33-3c5-37 33-52 76-52 45 0 72 20 72 64v82c-1 20 7 32 28 27v20c-31 9-61-2-59-35zM48-53c0 20 12 33 32 33 41-3 63-29 60-74-43 2-92-5-92 41" id="ae"/><path fill="#552cff" d="M117-194c89-4 53 116 60 194h-32v-121c0-31-8-49-39-48C34-167 62-67 57 0H25l-1-190h30c1 10-1 24 2 32 11-22 29-35 61-36" id="af"/><g id="g"><use transform="matrix(0.06172839506172832,0,0,0.06172839506172832,0,0)" xlink:href="#ae"/><use transform="matrix(0.06172839506172832,0,0,0.06172839506172832,12.345679012345665,0)" xlink:href="#af"/></g><path fill="#552cff" d="M30 0v-248h187v28H63v79h144v27H63v87h162V0H30" id="ag"/><path fill="#552cff" d="M108 0H70L1-190h34L89-25l56-165h34" id="ah"/><g id="h"><use transform="matrix(0.06172839506172832,0,0,0.06172839506172832,0,0)" xlink:href="#ag"/><use transform="matrix(0.06172839506172832,0,0,0.06172839506172832,14.814814814814797,0)" xlink:href="#ah"/><use transform="matrix(0.06172839506172832,0,0,0.06172839506172832,25.925925925925895,0)" xlink:href="#V"/><use transform="matrix(0.06172839506172832,0,0,0.06172839506172832,38.27160493827156,0)" xlink:href="#af"/><use transform="matrix(0.06172839506172832,0,0,0.06172839506172832,50.61728395061722,0)" xlink:href="#Y"/></g><path fill="#0057d2" d="M142-25L97-88v-13l45-64h42c-9 30-32 46-45 71l45 63v6h-42zm-80 0L16-88v-13l46-64h41c-9 30-32 46-45 71l45 63v6H62" id="ai"/><path fill="#0057d2" d="M137-138c1-29-70-34-71-4 15 46 118 7 119 86 1 83-164 76-172 9l43-7c4 19 20 25 44 25 33 8 57-30 24-41C81-84 22-81 20-136c-2-80 154-74 161-7" id="aj"/><path fill="#0057d2" d="M123 10C108 53 80 86 19 72V37c35 8 53-11 59-39L3-190h52l48 148c12-52 28-100 44-148h51" id="ak"/><path fill="#0057d2" d="M115-3C79 11 28 4 28-45v-112H4v-33h27l15-45h31v45h36v33H77v99c-1 23 16 31 38 25v30" id="al"/><path fill="#0057d2" d="M185-48c-13 30-37 53-82 52C43 2 14-33 14-96s30-98 90-98c62 0 83 45 84 108H66c0 31 8 55 39 56 18 0 30-7 34-22zm-45-69c5-46-57-63-70-21-2 6-4 13-4 21h74" id="am"/><path fill="#0057d2" d="M220-157c-53 9-28 100-34 157h-49v-107c1-27-5-49-29-50C55-147 81-57 75 0H25l-1-190h47c2 12-1 28 3 38 10-53 101-56 108 0 13-22 24-43 59-42 82 1 51 116 57 194h-49v-107c-1-25-5-48-29-50" id="an"/><path fill="#0057d2" d="M16-25v-6l45-63-44-65v-6h42l45 64v13L59-25H16zm81 0v-6l45-63-45-65v-6h42l45 64v13l-45 63H97" id="ao"/><g id="i"><use transform="matrix(0.06172839506172839,0,0,0.06172839506172839,0,0)" xlink:href="#ai"/><use transform="matrix(0.06172839506172839,0,0,0.06172839506172839,12.345679012345679,0)" xlink:href="#aj"/><use transform="matrix(0.06172839506172839,0,0,0.06172839506172839,24.691358024691358,0)" xlink:href="#ak"/><use transform="matrix(0.06172839506172839,0,0,0.06172839506172839,37.03703703703704,0)" xlink:href="#aj"/><use transform="matrix(0.06172839506172839,0,0,0.06172839506172839,49.382716049382715,0)" xlink:href="#al"/><use transform="matrix(0.06172839506172839,0,0,0.06172839506172839,56.72839506172839,0)" xlink:href="#am"/><use transform="matrix(0.06172839506172839,0,0,0.06172839506172839,69.07407407407408,0)" xlink:href="#an"/><use transform="matrix(0.06172839506172839,0,0,0.06172839506172839,88.82716049382717,0)" xlink:href="#ao"/></g><path fill="#0057d2" d="M230 0l2-204L168 0h-37L68-204 70 0H24v-248h70l56 185 57-185h69V0h-46" id="ap"/><path fill="#0057d2" d="M25-224v-37h50v37H25zM25 0v-190h50V0H25" id="aq"/><path fill="#0057d2" d="M135-194c87-1 58 113 63 194h-50c-7-57 23-157-34-157-59 0-34 97-39 157H25l-1-190h47c2 12-1 28 3 38 12-26 28-41 61-42" id="ar"/><path fill="#0057d2" d="M195-6C206 82 75 100 31 46c-4-6-6-13-8-21l49-6c3 16 16 24 34 25 40 0 42-37 40-79-11 22-30 35-61 35-53 0-70-43-70-97 0-56 18-96 73-97 30 0 46 14 59 34l2-30h47zm-90-29c32 0 41-27 41-63 0-35-9-62-40-62-32 0-39 29-40 63 0 36 9 62 39 62" id="as"/><g id="j"><use transform="matrix(0.074074074074074,0,0,0.074074074074074,0,0)" xlink:href="#ap"/><use transform="matrix(0.074074074074074,0,0,0.074074074074074,22.148148148148127,0)" xlink:href="#am"/><use transform="matrix(0.074074074074074,0,0,0.074074074074074,36.962962962962926,0)" xlink:href="#am"/><use transform="matrix(0.074074074074074,0,0,0.074074074074074,51.77777777777773,0)" xlink:href="#al"/><use transform="matrix(0.074074074074074,0,0,0.074074074074074,60.59259259259254,0)" xlink:href="#aq"/><use transform="matrix(0.074074074074074,0,0,0.074074074074074,67.99999999999994,0)" xlink:href="#ar"/><use transform="matrix(0.074074074074074,0,0,0.074074074074074,84.22222222222214,0)" xlink:href="#as"/><use transform="matrix(0.074074074074074,0,0,0.074074074074074,100.44444444444434,0)" xlink:href="#aj"/></g><path fill="#0057d2" d="M240-174c0 40-23 61-54 70L253 0h-59l-57-94H76V0H24v-248c93 4 217-23 216 74zM76-134c48-2 112 12 112-38 0-48-66-32-112-35v73" id="at"/><path fill="#0057d2" d="M24 0v-248h195v40H76v63h132v40H76v65h150V0H24" id="au"/><path fill="#0057d2" d="M169-182c-1-43-94-46-97-3 18 66 151 10 154 114 3 95-165 93-204 36-6-8-10-19-12-30l50-8c3 46 112 56 116 5-17-69-150-10-154-114-4-87 153-88 188-35 5 8 8 18 10 28" id="av"/><path fill="#0057d2" d="M136-208V0H84v-208H4v-40h212v40h-80" id="aw"/><g id="k"><use transform="matrix(0.074074074074074,0,0,0.074074074074074,0,0)" xlink:href="#at"/><use transform="matrix(0.074074074074074,0,0,0.074074074074074,19.185185185185166,0)" xlink:href="#au"/><use transform="matrix(0.074074074074074,0,0,0.074074074074074,36.962962962962926,0)" xlink:href="#av"/><use transform="matrix(0.074074074074074,0,0,0.074074074074074,54.7407407407407,0)" xlink:href="#aw"/></g><path fill="#0057d2" d="M199 0l-22-63H83L61 0H9l90-248h61L250 0h-51zm-33-102l-36-108c-10 38-24 72-36 108h72" id="ax"/><path fill="#0057d2" d="M24-248c93 1 206-16 204 79-1 75-69 88-152 82V0H24v-248zm52 121c47 0 100 7 100-41 0-47-54-39-100-39v80" id="ay"/><path fill="#0057d2" d="M24 0v-248h52V0H24" id="az"/><g id="l"><use transform="matrix(0.074074074074074,0,0,0.074074074074074,0,0)" xlink:href="#ax"/><use transform="matrix(0.074074074074074,0,0,0.074074074074074,19.185185185185166,0)" xlink:href="#ay"/><use transform="matrix(0.074074074074074,0,0,0.074074074074074,36.962962962962926,0)" xlink:href="#az"/></g><path fill="#0057d2" d="M30 0v-248h187v28H63v79h144v27H63v87h162V0H30" id="aA"/><path fill="#0057d2" d="M141 0L90-78 38 0H4l68-98-65-92h35l48 74 47-74h35l-64 92 68 98h-35" id="aB"/><path fill="#0057d2" d="M115-194c55 1 70 41 70 98S169 2 115 4C84 4 66-9 55-30l1 105H24l-1-265h31l2 30c10-21 28-34 59-34zm-8 174c40 0 45-34 45-75s-6-73-45-74c-42 0-51 32-51 76 0 43 10 73 51 73" id="aC"/><path fill="#0057d2" d="M100-194c62-1 85 37 85 99 1 63-27 99-86 99S16-35 15-95c0-66 28-99 85-99zM99-20c44 1 53-31 53-75 0-43-8-75-51-75s-53 32-53 75 10 74 51 75" id="aD"/><path fill="#0057d2" d="M135-143c-3-34-86-38-87 0 15 53 115 12 119 90S17 21 10-45l28-5c4 36 97 45 98 0-10-56-113-15-118-90-4-57 82-63 122-42 12 7 21 19 24 35" id="aE"/><path fill="#0057d2" d="M100-194c63 0 86 42 84 106H49c0 40 14 67 53 68 26 1 43-12 49-29l28 8c-11 28-37 45-77 45C44 4 14-33 15-96c1-61 26-98 85-98zm52 81c6-60-76-77-97-28-3 7-6 17-6 28h103" id="aF"/><g id="n"><use transform="matrix(0.06172839506172832,0,0,0.06172839506172832,0,0)" xlink:href="#aA"/><use transform="matrix(0.06172839506172832,0,0,0.06172839506172832,14.814814814814797,0)" xlink:href="#aB"/><use transform="matrix(0.06172839506172832,0,0,0.06172839506172832,25.925925925925895,0)" xlink:href="#aC"/><use transform="matrix(0.06172839506172832,0,0,0.06172839506172832,38.27160493827156,0)" xlink:href="#aD"/><use transform="matrix(0.06172839506172832,0,0,0.06172839506172832,50.61728395061722,0)" xlink:href="#aE"/><use transform="matrix(0.06172839506172832,0,0,0.06172839506172832,61.72839506172832,0)" xlink:href="#aF"/><use transform="matrix(0.06172839506172832,0,0,0.06172839506172832,74.07407407407399,0)" xlink:href="#aE"/></g><path fill="#0057d2" d="M108 0H70L1-190h34L89-25l56-165h34" id="aG"/><path fill="#0057d2" d="M117-194c89-4 53 116 60 194h-32v-121c0-31-8-49-39-48C34-167 62-67 57 0H25l-1-190h30c1 10-1 24 2 32 11-22 29-35 61-36" id="aH"/><path fill="#0057d2" d="M59-47c-2 24 18 29 38 22v24C64 9 27 4 27-40v-127H5v-23h24l9-43h21v43h35v23H59v120" id="aI"/><g id="o"><use transform="matrix(0.06172839506172832,0,0,0.06172839506172832,0,0)" xlink:href="#aA"/><use transform="matrix(0.06172839506172832,0,0,0.06172839506172832,14.814814814814797,0)" xlink:href="#aG"/><use transform="matrix(0.06172839506172832,0,0,0.06172839506172832,25.925925925925895,0)" xlink:href="#aF"/><use transform="matrix(0.06172839506172832,0,0,0.06172839506172832,38.27160493827156,0)" xlink:href="#aH"/><use transform="matrix(0.06172839506172832,0,0,0.06172839506172832,50.61728395061722,0)" xlink:href="#aI"/><use transform="matrix(0.06172839506172832,0,0,0.06172839506172832,56.790123456790056,0)" xlink:href="#aE"/></g><path fill="#0057d2" d="M266 0h-40l-56-210L115 0H75L2-248h35L96-30l15-64 43-154h32l59 218 59-218h35" id="aJ"/><path fill="#0057d2" d="M114-163C36-179 61-72 57 0H25l-1-190h30c1 12-1 29 2 39 6-27 23-49 58-41v29" id="aK"/><path fill="#0057d2" d="M143 0L79-87 56-68V0H24v-261h32v163l83-92h37l-77 82L181 0h-38" id="aL"/><path fill="#0057d2" d="M101-234c-31-9-42 10-38 44h38v23H63V0H32v-167H5v-23h27c-7-52 17-82 69-68v24" id="aM"/><path fill="#0057d2" d="M24 0v-261h32V0H24" id="aN"/><path fill="#0057d2" d="M206 0h-36l-40-164L89 0H53L-1-190h32L70-26l43-164h34l41 164 42-164h31" id="aO"/><g id="p"><use transform="matrix(0.06172839506172832,0,0,0.06172839506172832,0,0)" xlink:href="#aJ"/><use transform="matrix(0.06172839506172832,0,0,0.06172839506172832,20.493827160493804,0)" xlink:href="#aD"/><use transform="matrix(0.06172839506172832,0,0,0.06172839506172832,32.83950617283947,0)" xlink:href="#aK"/><use transform="matrix(0.06172839506172832,0,0,0.06172839506172832,40.18518518518514,0)" xlink:href="#aL"/><use transform="matrix(0.06172839506172832,0,0,0.06172839506172832,51.29629629629624,0)" xlink:href="#aM"/><use transform="matrix(0.06172839506172832,0,0,0.06172839506172832,57.469135802469076,0)" xlink:href="#aN"/><use transform="matrix(0.06172839506172832,0,0,0.06172839506172832,62.34567901234561,0)" xlink:href="#aD"/><use transform="matrix(0.06172839506172832,0,0,0.06172839506172832,74.69135802469128,0)" xlink:href="#aO"/></g><path fill="#0057d2" d="M141-36C126-15 110 5 73 4 37 3 15-17 15-53c-1-64 63-63 125-63 3-35-9-54-41-54-24 1-41 7-42 31l-33-3c5-37 33-52 76-52 45 0 72 20 72 64v82c-1 20 7 32 28 27v20c-31 9-61-2-59-35zM48-53c0 20 12 33 32 33 41-3 63-29 60-74-43 2-92-5-92 41" id="aP"/><path fill="#0057d2" d="M85-194c31 0 48 13 60 33l-1-100h32l1 261h-30c-2-10 0-23-3-31C134-8 116 4 85 4 32 4 16-35 15-94c0-66 23-100 70-100zm9 24c-40 0-46 34-46 75 0 40 6 74 45 74 42 0 51-32 51-76 0-42-9-74-50-73" id="aQ"/><g id="q"><use transform="matrix(0.06172839506172832,0,0,0.06172839506172832,0,0)" xlink:href="#aP"/><use transform="matrix(0.06172839506172832,0,0,0.06172839506172832,12.345679012345665,0)" xlink:href="#aH"/><use transform="matrix(0.06172839506172832,0,0,0.06172839506172832,24.69135802469133,0)" xlink:href="#aQ"/></g><path fill="#0057d2" d="M212-179c-10-28-35-45-73-45-59 0-87 40-87 99 0 60 29 101 89 101 43 0 62-24 78-52l27 14C228-24 195 4 139 4 59 4 22-46 18-125c-6-104 99-153 187-111 19 9 31 26 39 46" id="aR"/><path fill="#0057d2" d="M24-231v-30h32v30H24zM24 0v-190h32V0H24" id="aS"/><g id="r"><use transform="matrix(0.06172839506172832,0,0,0.06172839506172832,0,0)" xlink:href="#aR"/><use transform="matrix(0.06172839506172832,0,0,0.06172839506172832,15.987654320987636,0)" xlink:href="#aK"/><use transform="matrix(0.06172839506172832,0,0,0.06172839506172832,23.333333333333307,0)" xlink:href="#aF"/><use transform="matrix(0.06172839506172832,0,0,0.06172839506172832,35.67901234567897,0)" xlink:href="#aQ"/><use transform="matrix(0.06172839506172832,0,0,0.06172839506172832,48.02469135802463,0)" xlink:href="#aF"/><use transform="matrix(0.06172839506172832,0,0,0.06172839506172832,60.370370370370296,0)" xlink:href="#aI"/><use transform="matrix(0.06172839506172832,0,0,0.06172839506172832,66.54320987654313,0)" xlink:href="#aS"/><use transform="matrix(0.06172839506172832,0,0,0.06172839506172832,71.41975308641966,0)" xlink:href="#aP"/><use transform="matrix(0.06172839506172832,0,0,0.06172839506172832,83.76543209876533,0)" xlink:href="#aH"/><use transform="matrix(0.06172839506172832,0,0,0.06172839506172832,96.111111111111,0)" xlink:href="#aE"/></g><path fill="#0057d2" d="M137 0h-34L2-248h35l83 218 83-218h36" id="aT"/><g id="s"><use transform="matrix(0.06172839506172832,0,0,0.06172839506172832,0,0)" xlink:href="#aT"/><use transform="matrix(0.06172839506172832,0,0,0.06172839506172832,13.148148148148133,0)" xlink:href="#aP"/><use transform="matrix(0.06172839506172832,0,0,0.06172839506172832,25.493827160493797,0)" xlink:href="#aN"/><use transform="matrix(0.06172839506172832,0,0,0.06172839506172832,30.370370370370335,0)" xlink:href="#aS"/><use transform="matrix(0.06172839506172832,0,0,0.06172839506172832,35.24691358024687,0)" xlink:href="#aQ"/><use transform="matrix(0.06172839506172832,0,0,0.06172839506172832,47.59259259259253,0)" xlink:href="#aP"/><use transform="matrix(0.06172839506172832,0,0,0.06172839506172832,59.938271604938194,0)" xlink:href="#aI"/><use transform="matrix(0.06172839506172832,0,0,0.06172839506172832,66.11111111111103,0)" xlink:href="#aS"/><use transform="matrix(0.06172839506172832,0,0,0.06172839506172832,70.98765432098756,0)" xlink:href="#aD"/><use transform="matrix(0.06172839506172832,0,0,0.06172839506172832,83.33333333333323,0)" xlink:href="#aH"/></g><g id="t"><use transform="matrix(0.06172839506172839,0,0,0.06172839506172839,0,0)" xlink:href="#ai"/><use transform="matrix(0.06172839506172839,0,0,0.06172839506172839,12.345679012345679,0)" xlink:href="#aj"/><use transform="matrix(0.06172839506172839,0,0,0.06172839506172839,24.691358024691358,0)" xlink:href="#ak"/><use transform="matrix(0.06172839506172839,0,0,0.06172839506172839,37.03703703703704,0)" xlink:href="#aj"/><use transform="matrix(0.06172839506172839,0,0,0.06172839506172839,49.382716049382715,0)" xlink:href="#al"/><use transform="matrix(0.06172839506172839,0,0,0.06172839506172839,56.72839506172839,0)" xlink:href="#am"/><use transform="matrix(0.06172839506172839,0,0,0.06172839506172839,69.07407407407408,0)" xlink:href="#an"/><use transform="matrix(0.06172839506172839,0,0,0.06172839506172839,88.82716049382717,0)" xlink:href="#ao"/></g><path fill="#0057d2" d="M275 0h-61l-44-196L126 0H64L0-248h53L97-49l45-199h58l43 199 44-199h52" id="aU"/><path fill="#0057d2" d="M135-194c52 0 70 43 70 98 0 56-19 99-73 100-30 1-46-15-58-35L72 0H24l1-261h50v104c11-23 29-37 60-37zM114-30c31 0 40-27 40-66 0-37-7-63-39-63s-41 28-41 65c0 36 8 64 40 64" id="aV"/><g id="u"><use transform="matrix(0.074074074074074,0,0,0.074074074074074,0,0)" xlink:href="#aU"/><use transform="matrix(0.074074074074074,0,0,0.074074074074074,24.592592592592567,0)" xlink:href="#am"/><use transform="matrix(0.074074074074074,0,0,0.074074074074074,39.40740740740737,0)" xlink:href="#aV"/></g><path fill="#0057d2" d="M185-189c-5-48-123-54-124 2 14 75 158 14 163 119 3 78-121 87-175 55-17-10-28-26-33-46l33-7c5 56 141 63 141-1 0-78-155-14-162-118-5-82 145-84 179-34 5 7 8 16 11 25" id="aW"/><path fill="#0057d2" d="M96-169c-40 0-48 33-48 73s9 75 48 75c24 0 41-14 43-38l32 2c-6 37-31 61-74 61-59 0-76-41-82-99-10-93 101-131 147-64 4 7 5 14 7 22l-32 3c-4-21-16-35-41-35" id="aX"/><path fill="#0057d2" d="M106-169C34-169 62-67 57 0H25v-261h32l-1 103c12-21 28-36 61-36 89 0 53 116 60 194h-32v-121c2-32-8-49-39-48" id="aY"/><path fill="#0057d2" d="M84 4C-5 8 30-112 23-190h32v120c0 31 7 50 39 49 72-2 45-101 50-169h31l1 190h-30c-1-10 1-25-2-33-11 22-28 36-60 37" id="aZ"/><g id="v"><use transform="matrix(0.06172839506172832,0,0,0.06172839506172832,0,0)" xlink:href="#aW"/><use transform="matrix(0.06172839506172832,0,0,0.06172839506172832,14.814814814814797,0)" xlink:href="#aX"/><use transform="matrix(0.06172839506172832,0,0,0.06172839506172832,25.925925925925895,0)" xlink:href="#aY"/><use transform="matrix(0.06172839506172832,0,0,0.06172839506172832,38.27160493827156,0)" xlink:href="#aF"/><use transform="matrix(0.06172839506172832,0,0,0.06172839506172832,50.61728395061722,0)" xlink:href="#aQ"/><use transform="matrix(0.06172839506172832,0,0,0.06172839506172832,62.962962962962884,0)" xlink:href="#aZ"/><use transform="matrix(0.06172839506172832,0,0,0.06172839506172832,75.30864197530855,0)" xlink:href="#aN"/><use transform="matrix(0.06172839506172832,0,0,0.06172839506172832,80.18518518518508,0)" xlink:href="#aF"/><use transform="matrix(0.06172839506172832,0,0,0.06172839506172832,92.53086419753075,0)" xlink:href="#aE"/></g><path fill="#0057d2" d="M240 0l2-218c-23 76-54 145-80 218h-23L58-218 59 0H30v-248h44l77 211c21-75 51-140 76-211h43V0h-30" id="ba"/><path fill="#0057d2" d="M177-190C167-65 218 103 67 71c-23-6-38-20-44-43l32-5c15 47 100 32 89-28v-30C133-14 115 1 83 1 29 1 15-40 15-95c0-56 16-97 71-98 29-1 48 16 59 35 1-10 0-23 2-32h30zM94-22c36 0 50-32 50-73 0-42-14-75-50-75-39 0-46 34-46 75s6 73 46 73" id="bb"/><g id="w"><use transform="matrix(0.06172839506172832,0,0,0.06172839506172832,0,0)" xlink:href="#ba"/><use transform="matrix(0.06172839506172832,0,0,0.06172839506172832,18.45679012345677,0)" xlink:href="#aF"/><use transform="matrix(0.06172839506172832,0,0,0.06172839506172832,30.802469135802433,0)" xlink:href="#aF"/><use transform="matrix(0.06172839506172832,0,0,0.06172839506172832,43.148148148148096,0)" xlink:href="#aI"/><use transform="matrix(0.06172839506172832,0,0,0.06172839506172832,49.32098765432093,0)" xlink:href="#aS"/><use transform="matrix(0.06172839506172832,0,0,0.06172839506172832,54.19753086419747,0)" xlink:href="#aH"/><use transform="matrix(0.06172839506172832,0,0,0.06172839506172832,66.54320987654313,0)" xlink:href="#bb"/><use transform="matrix(0.06172839506172832,0,0,0.06172839506172832,78.8888888888888,0)" xlink:href="#aE"/></g><g id="x"><use transform="matrix(0.06172839506172832,0,0,0.06172839506172832,0,0)" xlink:href="#aD"/><use transform="matrix(0.06172839506172832,0,0,0.06172839506172832,12.345679012345665,0)" xlink:href="#aH"/><use transform="matrix(0.06172839506172832,0,0,0.06172839506172832,24.69135802469133,0)" xlink:href="#aN"/><use transform="matrix(0.06172839506172832,0,0,0.06172839506172832,29.567901234567866,0)" xlink:href="#aS"/><use transform="matrix(0.06172839506172832,0,0,0.06172839506172832,34.4444444444444,0)" xlink:href="#aH"/><use transform="matrix(0.06172839506172832,0,0,0.06172839506172832,46.79012345679006,0)" xlink:href="#aF"/></g><path fill="#333" d="M169-182c-1-43-94-46-97-3 18 66 151 10 154 114 3 95-165 93-204 36-6-8-10-19-12-30l50-8c3 46 112 56 116 5-17-69-150-10-154-114-4-87 153-88 188-35 5 8 8 18 10 28" id="bc"/><path fill="#333" d="M190-63c-7 42-38 67-86 67-59 0-84-38-90-98-12-110 154-137 174-36l-49 2c-2-19-15-32-35-32-30 0-35 28-38 64-6 74 65 87 74 30" id="bd"/><path fill="#333" d="M114-157C55-157 80-60 75 0H25v-261h50l-1 109c12-26 28-41 61-42 86-1 58 113 63 194h-50c-7-57 23-157-34-157" id="be"/><path fill="#333" d="M185-48c-13 30-37 53-82 52C43 2 14-33 14-96s30-98 90-98c62 0 83 45 84 108H66c0 31 8 55 39 56 18 0 30-7 34-22zm-45-69c5-46-57-63-70-21-2 6-4 13-4 21h74" id="bf"/><path fill="#333" d="M88-194c31-1 46 15 58 34l-1-101h50l1 261h-48c-2-10 0-23-3-31C134-8 116 4 84 4 32 4 16-41 15-95c0-56 19-97 73-99zm17 164c33 0 40-30 41-66 1-37-9-64-41-64s-38 30-39 65c0 43 13 65 39 65" id="bg"/><path fill="#333" d="M85 4C-2 5 27-109 22-190h50c7 57-23 150 33 157 60-5 35-97 40-157h50l1 190h-47c-2-12 1-28-3-38-12 25-28 42-61 42" id="bh"/><path fill="#333" d="M25 0v-261h50V0H25" id="bi"/><path fill="#333" d="M137-138c1-29-70-34-71-4 15 46 118 7 119 86 1 83-164 76-172 9l43-7c4 19 20 25 44 25 33 8 57-30 24-41C81-84 22-81 20-136c-2-80 154-74 161-7" id="bj"/><g id="y"><use transform="matrix(0.04938271604938272,0,0,0.04938271604938272,0,0)" xlink:href="#bc"/><use transform="matrix(0.04938271604938272,0,0,0.04938271604938272,11.851851851851853,0)" xlink:href="#bd"/><use transform="matrix(0.04938271604938272,0,0,0.04938271604938272,21.7283950617284,0)" xlink:href="#be"/><use transform="matrix(0.04938271604938272,0,0,0.04938271604938272,32.543209876543216,0)" xlink:href="#bf"/><use transform="matrix(0.04938271604938272,0,0,0.04938271604938272,42.41975308641976,0)" xlink:href="#bg"/><use transform="matrix(0.04938271604938272,0,0,0.04938271604938272,53.23456790123457,0)" xlink:href="#bh"/><use transform="matrix(0.04938271604938272,0,0,0.04938271604938272,64.0493827160494,0)" xlink:href="#bi"/><use transform="matrix(0.04938271604938272,0,0,0.04938271604938272,68.98765432098767,0)" xlink:href="#bf"/><use transform="matrix(0.04938271604938272,0,0,0.04938271604938272,78.86419753086422,0)" xlink:href="#bj"/></g><path fill="#333" d="M76-208v77h127v40H76V0H24v-248h183v40H76" id="bk"/><path fill="#333" d="M135-150c-39-12-60 13-60 57V0H25l-1-190h47c2 13-1 29 3 40 6-28 27-53 61-41v41" id="bl"/><path fill="#333" d="M110-194c64 0 96 36 96 99 0 64-35 99-97 99-61 0-95-36-95-99 0-62 34-99 96-99zm-1 164c35 0 45-28 45-65 0-40-10-65-43-65-34 0-45 26-45 65 0 36 10 65 43 65" id="bm"/><path fill="#333" d="M220-157c-53 9-28 100-34 157h-49v-107c1-27-5-49-29-50C55-147 81-57 75 0H25l-1-190h47c2 12-1 28 3 38 10-53 101-56 108 0 13-22 24-43 59-42 82 1 51 116 57 194h-49v-107c-1-25-5-48-29-50" id="bn"/><g id="z"><use transform="matrix(0.04938271604938272,0,0,0.04938271604938272,0,0)" xlink:href="#bk"/><use transform="matrix(0.04938271604938272,0,0,0.04938271604938272,10.814814814814815,0)" xlink:href="#bl"/><use transform="matrix(0.04938271604938272,0,0,0.04938271604938272,17.728395061728396,0)" xlink:href="#bm"/><use transform="matrix(0.04938271604938272,0,0,0.04938271604938272,28.543209876543205,0)" xlink:href="#bn"/></g><g id="A"><use transform="matrix(0.04938271604938272,0,0,0.04938271604938272,0,0)" xlink:href="#bc"/><use transform="matrix(0.04938271604938272,0,0,0.04938271604938272,11.851851851851853,0)" xlink:href="#bd"/><use transform="matrix(0.04938271604938272,0,0,0.04938271604938272,21.7283950617284,0)" xlink:href="#be"/><use transform="matrix(0.04938271604938272,0,0,0.04938271604938272,32.543209876543216,0)" xlink:href="#bf"/><use transform="matrix(0.04938271604938272,0,0,0.04938271604938272,42.41975308641976,0)" xlink:href="#bg"/><use transform="matrix(0.04938271604938272,0,0,0.04938271604938272,53.23456790123457,0)" xlink:href="#bh"/><use transform="matrix(0.04938271604938272,0,0,0.04938271604938272,64.0493827160494,0)" xlink:href="#bi"/><use transform="matrix(0.04938271604938272,0,0,0.04938271604938272,68.98765432098767,0)" xlink:href="#bf"/><use transform="matrix(0.04938271604938272,0,0,0.04938271604938272,78.86419753086422,0)" xlink:href="#bj"/></g><path fill="#333" d="M24 0v-248h195v40H76v63h132v40H76v65h150V0H24" id="bo"/><path fill="#333" d="M128 0H69L1-190h53L99-40l48-150h52" id="bp"/><path fill="#333" d="M135-194c87-1 58 113 63 194h-50c-7-57 23-157-34-157-59 0-34 97-39 157H25l-1-190h47c2 12-1 28 3 38 12-26 28-41 61-42" id="bq"/><path fill="#333" d="M115-3C79 11 28 4 28-45v-112H4v-33h27l15-45h31v45h36v33H77v99c-1 23 16 31 38 25v30" id="br"/><g id="B"><use transform="matrix(0.04938271604938272,0,0,0.04938271604938272,0,0)" xlink:href="#bo"/><use transform="matrix(0.04938271604938272,0,0,0.04938271604938272,11.851851851851853,0)" xlink:href="#bp"/><use transform="matrix(0.04938271604938272,0,0,0.04938271604938272,21.7283950617284,0)" xlink:href="#bf"/><use transform="matrix(0.04938271604938272,0,0,0.04938271604938272,31.60493827160494,0)" xlink:href="#bq"/><use transform="matrix(0.04938271604938272,0,0,0.04938271604938272,42.41975308641976,0)" xlink:href="#br"/><use transform="matrix(0.04938271604938272,0,0,0.04938271604938272,48.296296296296305,0)" xlink:href="#bj"/></g><path fill="#333" d="M238-95c0 69-44 99-111 99C63 4 22-25 22-93v-155h51v151c-1 38 19 59 55 60 90 1 49-130 58-211h52v153" id="bs"/><path fill="#333" d="M135-194c53 0 70 44 70 98 0 56-19 98-73 100-31 1-45-17-59-34 3 33 2 69 2 105H25l-1-265h48c2 10 0 23 3 31 11-24 29-35 60-35zM114-30c33 0 39-31 40-66 0-38-9-64-40-64-56 0-55 130 0 130" id="bt"/><path fill="#333" d="M133-34C117-15 103 5 69 4 32 3 11-16 11-54c-1-60 55-63 116-61 1-26-3-47-28-47-18 1-26 9-28 27l-52-2c7-38 36-58 82-57s74 22 75 68l1 82c-1 14 12 18 25 15v27c-30 8-71 5-69-32zm-48 3c29 0 43-24 42-57-32 0-66-3-65 30 0 17 8 27 23 27" id="bu"/><g id="C"><use transform="matrix(0.04938271604938272,0,0,0.04938271604938272,0,0)" xlink:href="#bs"/><use transform="matrix(0.04938271604938272,0,0,0.04938271604938272,12.790123456790125,0)" xlink:href="#bt"/><use transform="matrix(0.04938271604938272,0,0,0.04938271604938272,23.60493827160494,0)" xlink:href="#bg"/><use transform="matrix(0.04938271604938272,0,0,0.04938271604938272,34.41975308641975,0)" xlink:href="#bu"/><use transform="matrix(0.04938271604938272,0,0,0.04938271604938272,44.2962962962963,0)" xlink:href="#br"/><use transform="matrix(0.04938271604938272,0,0,0.04938271604938272,50.17283950617284,0)" xlink:href="#bf"/><use transform="matrix(0.04938271604938272,0,0,0.04938271604938272,60.04938271604939,0)" xlink:href="#bj"/></g><path fill="#333" d="M199 0l-22-63H83L61 0H9l90-248h61L250 0h-51zm-33-102l-36-108c-10 38-24 72-36 108h72" id="bv"/><path fill="#333" d="M147 0L96-86 75-71V0H25v-261h50v150l67-79h53l-66 74L201 0h-54" id="bw"/><g id="D"><use transform="matrix(0.04938271604938272,0,0,0.04938271604938272,0,0)" xlink:href="#bv"/><use transform="matrix(0.04938271604938272,0,0,0.04938271604938272,12.790123456790125,0)" xlink:href="#bj"/><use transform="matrix(0.04938271604938272,0,0,0.04938271604938272,22.66666666666667,0)" xlink:href="#bw"/><use transform="matrix(0.04938271604938272,0,0,0.04938271604938272,32.543209876543216,0)" xlink:href="#bj"/></g><path fill="#333" d="M230 0l2-204L168 0h-37L68-204 70 0H24v-248h70l56 185 57-185h69V0h-46" id="bx"/><path fill="#333" d="M25-224v-37h50v37H25zM25 0v-190h50V0H25" id="by"/><g id="E"><use transform="matrix(0.04938271604938272,0,0,0.04938271604938272,0,0)" xlink:href="#bx"/><use transform="matrix(0.04938271604938272,0,0,0.04938271604938272,14.765432098765434,0)" xlink:href="#bf"/><use transform="matrix(0.04938271604938272,0,0,0.04938271604938272,24.641975308641978,0)" xlink:href="#br"/><use transform="matrix(0.04938271604938272,0,0,0.04938271604938272,30.518518518518523,0)" xlink:href="#bl"/><use transform="matrix(0.04938271604938272,0,0,0.04938271604938272,37.4320987654321,0)" xlink:href="#by"/><use transform="matrix(0.04938271604938272,0,0,0.04938271604938272,42.370370370370374,0)" xlink:href="#bd"/><use transform="matrix(0.04938271604938272,0,0,0.04938271604938272,52.24691358024692,0)" xlink:href="#bj"/></g><g id="F"><use transform="matrix(0.04938271604938272,0,0,0.04938271604938272,0,0)" xlink:href="#bv"/><use transform="matrix(0.04938271604938272,0,0,0.04938271604938272,12.790123456790125,0)" xlink:href="#bh"/><use transform="matrix(0.04938271604938272,0,0,0.04938271604938272,23.60493827160494,0)" xlink:href="#br"/><use transform="matrix(0.04938271604938272,0,0,0.04938271604938272,29.481481481481485,0)" xlink:href="#be"/><use transform="matrix(0.04938271604938272,0,0,0.04938271604938272,40.2962962962963,0)" xlink:href="#bf"/><use transform="matrix(0.04938271604938272,0,0,0.04938271604938272,50.17283950617284,0)" xlink:href="#bq"/><use transform="matrix(0.04938271604938272,0,0,0.04938271604938272,60.98765432098766,0)" xlink:href="#br"/><use transform="matrix(0.04938271604938272,0,0,0.04938271604938272,66.8641975308642,0)" xlink:href="#by"/><use transform="matrix(0.04938271604938272,0,0,0.04938271604938272,71.80246913580248,0)" xlink:href="#bd"/><use transform="matrix(0.04938271604938272,0,0,0.04938271604938272,81.67901234567903,0)" xlink:href="#bu"/><use transform="matrix(0.04938271604938272,0,0,0.04938271604938272,91.55555555555557,0)" xlink:href="#br"/><use transform="matrix(0.04938271604938272,0,0,0.04938271604938272,97.43209876543212,0)" xlink:href="#by"/><use transform="matrix(0.04938271604938272,0,0,0.04938271604938272,102.37037037037038,0)" xlink:href="#bm"/><use transform="matrix(0.04938271604938272,0,0,0.04938271604938272,113.18518518518519,0)" xlink:href="#bq"/></g><path fill="#333" d="M12 0v-35l95-120H19v-35h142v35L67-36h103V0H12" id="bz"/><g id="G"><use transform="matrix(0.04938271604938272,0,0,0.04938271604938272,0,0)" xlink:href="#bv"/><use transform="matrix(0.04938271604938272,0,0,0.04938271604938272,12.790123456790125,0)" xlink:href="#bh"/><use transform="matrix(0.04938271604938272,0,0,0.04938271604938272,23.60493827160494,0)" xlink:href="#br"/><use transform="matrix(0.04938271604938272,0,0,0.04938271604938272,29.481481481481485,0)" xlink:href="#be"/><use transform="matrix(0.04938271604938272,0,0,0.04938271604938272,40.2962962962963,0)" xlink:href="#bm"/><use transform="matrix(0.04938271604938272,0,0,0.04938271604938272,51.111111111111114,0)" xlink:href="#bl"/><use transform="matrix(0.04938271604938272,0,0,0.04938271604938272,58.0246913580247,0)" xlink:href="#by"/><use transform="matrix(0.04938271604938272,0,0,0.04938271604938272,62.96296296296297,0)" xlink:href="#bz"/><use transform="matrix(0.04938271604938272,0,0,0.04938271604938272,71.85185185185186,0)" xlink:href="#bu"/><use transform="matrix(0.04938271604938272,0,0,0.04938271604938272,81.7283950617284,0)" xlink:href="#br"/><use transform="matrix(0.04938271604938272,0,0,0.04938271604938272,87.60493827160495,0)" xlink:href="#by"/><use transform="matrix(0.04938271604938272,0,0,0.04938271604938272,92.54320987654322,0)" xlink:href="#bm"/><use transform="matrix(0.04938271604938272,0,0,0.04938271604938272,103.35802469135804,0)" xlink:href="#bq"/><use transform="matrix(0.04938271604938272,0,0,0.04938271604938272,114.17283950617282,0)" xlink:href="#bj"/></g><path fill="#4c535d" d="M67-125c0 53 21 87 73 88 37 1 54-22 65-47l45 17C233-25 199 4 140 4 58 4 20-42 15-125 8-235 124-281 211-232c18 10 29 29 36 50l-46 12c-8-25-30-41-62-41-52 0-71 34-72 86" id="bA"/><path fill="#4c535d" d="M110-194c64 0 96 36 96 99 0 64-35 99-97 99-61 0-95-36-95-99 0-62 34-99 96-99zm-1 164c35 0 45-28 45-65 0-40-10-65-43-65-34 0-45 26-45 65 0 36 10 65 43 65" id="bB"/><path fill="#4c535d" d="M135-194c87-1 58 113 63 194h-50c-7-57 23-157-34-157-59 0-34 97-39 157H25l-1-190h47c2 12-1 28 3 38 12-26 28-41 61-42" id="bC"/><path fill="#4c535d" d="M115-3C79 11 28 4 28-45v-112H4v-33h27l15-45h31v45h36v33H77v99c-1 23 16 31 38 25v30" id="bD"/><path fill="#4c535d" d="M185-48c-13 30-37 53-82 52C43 2 14-33 14-96s30-98 90-98c62 0 83 45 84 108H66c0 31 8 55 39 56 18 0 30-7 34-22zm-45-69c5-46-57-63-70-21-2 6-4 13-4 21h74" id="bE"/><path fill="#4c535d" d="M144 0l-44-69L55 0H2l70-98-66-92h53l41 62 40-62h54l-67 91 71 99h-54" id="bF"/><g id="H"><use transform="matrix(0.12345679012345674,0,0,0.12345679012345674,0,0)" xlink:href="#bA"/><use transform="matrix(0.12345679012345674,0,0,0.12345679012345674,31.975308641975296,0)" xlink:href="#bB"/><use transform="matrix(0.12345679012345674,0,0,0.12345679012345674,59.01234567901233,0)" xlink:href="#bC"/><use transform="matrix(0.12345679012345674,0,0,0.12345679012345674,86.04938271604935,0)" xlink:href="#bD"/><use transform="matrix(0.12345679012345674,0,0,0.12345679012345674,100.7407407407407,0)" xlink:href="#bE"/><use transform="matrix(0.12345679012345674,0,0,0.12345679012345674,125.43209876543204,0)" xlink:href="#bF"/><use transform="matrix(0.12345679012345674,0,0,0.12345679012345674,150.12345679012338,0)" xlink:href="#bD"/></g></defs></g></svg>