<svg xmlns="http://www.w3.org/2000/svg" xmlns:xlink="http://www.w3.org/1999/xlink" xmlns:lucid="lucid" width="1200" height="600"><g transform="translate(-335.43307086614163 -361.4173228346456)" lucid:page-tab-id="kdP8O26qM_3y"><path d="M855.43 387.42a6 6 0 0 1 6-6h208a6 6 0 0 1 6 6v108a6 6 0 0 1-6 6h-208a6 6 0 0 1-6-6z" stroke="#0057d2" stroke-width="3" fill="#d1efff"/><use xlink:href="#a" transform="matrix(1,0,0,1,860.4330708661416,386.4173228346456) translate(44.660493827160536 43.97222222222221)"/><use xlink:href="#b" transform="matrix(1,0,0,1,860.4330708661416,386.4173228346456) translate(47.83333333333337 83.97222222222219)"/><path d="M355.43 607.42a6 6 0 0 1 6-6h188a6 6 0 0 1 6 6v108a6 6 0 0 1-6 6h-188a6 6 0 0 1-6-6z" stroke="#a35d00" stroke-width="3" fill="#fff3b8"/><use xlink:href="#c" transform="matrix(1,0,0,1,360.43307086614163,606.4173228346456) translate(58.024691358024704 39.02430555555554)"/><use xlink:href="#d" transform="matrix(1,0,0,1,360.43307086614163,606.4173228346456) translate(3.703703703703752 92.35763888888886)"/><path d="M855.43 607.42a6 6 0 0 1 6-6h208a6 6 0 0 1 6 6v108a6 6 0 0 1-6 6h-208a6 6 0 0 1-6-6z" stroke="#256f3a" stroke-width="3" fill="#f5fae5"/><use xlink:href="#e" transform="matrix(1,0,0,1,860.4330708661417,606.4173228346456) translate(-3.925925925925867 43.88888888888889)"/><use xlink:href="#f" transform="matrix(1,0,0,1,860.4330708661417,606.4173228346456) translate(44.722222222222264 83.88888888888887)"/><path d="M855.43 827.42a6 6 0 0 1 6-6h208a6 6 0 0 1 6 6v108a6 6 0 0 1-6 6h-208a6 6 0 0 1-6-6z" stroke="#e81313" stroke-width="3" fill="#fff0f0"/><use xlink:href="#g" transform="matrix(1,0,0,1,860.4330708661416,826.4173228346456) translate(66.2777777777778 43.97222222222221)"/><use xlink:href="#h" transform="matrix(1,0,0,1,860.4330708661416,826.4173228346456) translate(61.01234567901238 83.97222222222219)"/><path d="M455.45 723.92l.15 6.83.45 7.25.7 6.75.94 6.32 1.12 5.94 1.32 5.62 1.5 5.33 1.63 5.08 1.8 4.85 1.97 4.66 2.1 4.5 2.28 4.34 2.43 4.2 2.6 4.1 2.8 4 2.96 3.93 3.2 3.86 3.4 3.8 3.67 3.73 3.94 3.7 4.27 3.66 4.6 3.65 5 3.64 5.48 3.63 6 3.63 6.6 3.64 7.34 3.63 8.18 3.65 9.23 3.65 10.5 3.64 12.04 3.64 14.04 3.6 16.6 3.52 20.14 3.4 25.2 3.15 33.43 2.78 50.74 2.03 117.13.22" stroke="#5e5e5e" stroke-width="2" stroke-linejoin="round" fill="none"/><path d="M456.45 723.93l-2 .04-.02-1.05h2zM853.93 880.42v2h-1.02v-2z" stroke="#5e5e5e" stroke-width=".05" fill="#5e5e5e"/><use xlink:href="#i" transform="matrix(1,0,0,1,509.51845654625004,815.901607068908) translate(0.0049999999999954525 16.09375)"/><use xlink:href="#j" transform="matrix(1,0,0,1,509.51845654625004,815.901607068908) translate(64.11958333333332 16.09375)"/><use xlink:href="#k" transform="matrix(1,0,0,1,509.51845654625004,815.901607068908) translate(104.6925 16.09375)"/><use xlink:href="#l" transform="matrix(1,0,0,1,509.51845654625004,815.901607068908) translate(169.1977083333333 16.09375)"/><use xlink:href="#m" transform="matrix(1,0,0,1,509.51845654625004,815.901607068908) translate(209.97027777777777 16.09375)"/><path d="M852.93 661.42h-277.5" stroke="#5e5e5e" stroke-width="2" stroke-linejoin="round" fill="none"/><path d="M853.93 662.42h-1.03v-2h1.03z" stroke="#5e5e5e" stroke-width=".05" fill="#5e5e5e"/><path d="M560.17 661.42l14.26-4.64v9.27z" stroke="#5e5e5e" stroke-width="2" fill="#5e5e5e"/><use xlink:href="#n" transform="matrix(1,0,0,1,633.7655361439193,636.9746145013123) translate(0.0049999999999954525 16.09375)"/><use xlink:href="#o" transform="matrix(1,0,0,1,633.7655361439193,636.9746145013123) translate(62.965069444444445 16.09375)"/><use xlink:href="#p" transform="matrix(1,0,0,1,633.7655361439193,636.9746145013123) translate(107.32270833333334 16.09375)"/><path d="M835.43 441.56L707 442.5 666.98 445l-28.74 3-22.4 3.28-18.24 3.47-15.23 3.56-12.98 3.6-11.23 3.65-9.82 3.64-8.7 3.64-7.73 3.64-6.96 3.64-6.3 3.63-5.7 3.63-5.24 3.63-4.8 3.65-4.42 3.66-4.1 3.7-3.8 3.72-3.53 3.76-3.3 3.8-3.07 3.9-2.88 3.96-2.7 4.04-2.5 4.16-2.36 4.27-2.2 4.43-2.02 4.57-1.88 4.76-1.73 4.96-1.57 5.2-1.4 5.46-1.23 5.78-1.03 6.12-.83 6.53-.58 7-.32 7.52-.04 3" stroke="#5e5e5e" stroke-width="2" stroke-linejoin="round" fill="none"/><path d="M850.7 441.44l-14.24 4.74-.07-9.27z" stroke="#5e5e5e" stroke-width="2" fill="#5e5e5e"/><path d="M456.44 598.9v1.02h-2v-1.04z" stroke="#5e5e5e" stroke-width=".05" fill="#5e5e5e"/><use xlink:href="#q" transform="matrix(1,0,0,1,561.4647556091754,460.6883023077455) translate(0.0049999999999954525 16.09375)"/><use xlink:href="#j" transform="matrix(1,0,0,1,561.4647556091754,460.6883023077455) translate(47.35743055555555 16.09375)"/><use xlink:href="#r" transform="matrix(1,0,0,1,561.4647556091754,460.6883023077455) translate(87.93034722222222 16.09375)"/><path d="M1315.43 606a6 6 0 0 1 6-6h188a6 6 0 0 1 6 6v108a6 6 0 0 1-6 6h-188a6 6 0 0 1-6-6z" stroke="#552cff" stroke-width="3" fill="#ded3ff"/><use xlink:href="#s" transform="matrix(1,0,0,1,1320.4330708661416,605) translate(11.172839506172878 63.05555555555554)"/><path d="M1169.74 661h-74.3v-2h74.3zm143.2 0h-91.82v-2h91.8z" stroke="#5e5e5e" stroke-width=".05" fill="#5e5e5e"/><path d="M1313.93 661h-1.03v-2h1.03z" fill="#5e5e5e"/><path d="M1313.96 661.02h-1.08V659h1.08zm-1.03-2V661h.98V659z" stroke="#5e5e5e" stroke-width=".05" fill="#5e5e5e"/><path d="M1094.43 664.63l-14.26-4.63 14.26-4.63z" fill="#5e5e5e"/><path d="M1095.43 666l-18.5-6 18.5-6zm-12.03-6l10.03 3.26v-6.52z" stroke="#5e5e5e" stroke-width=".05" fill="#5e5e5e"/><g><use xlink:href="#t" transform="matrix(1,0,0,1,1169.7411885603221,649.7786458333334) translate(0.004999999999999005 16.09375)"/></g><path d="M1098.97 443.13l3.36.94 3.32 1.08 3.3 1.22 3.26 1.38 3.3 1.54 3.28 1.7 3.32 1.93 3.38 2.14 3.44 2.4 3.54 2.68 3.66 3.03 3.82 3.44 4 3.93 4.28 4.56 4.62 5.36 5.1 6.44 5.8 8 6.98 10.54 41.5 73.52 9.62 15.96 6.94 10.47 5.75 7.9 5.04 6.38 4.56 5.3 4.22 4.48 3.95 3.88 3.75 3.38 3.6 2.98 3.47 2.63 3.38 2.35 3.3 2.1 3.25 1.88 3.22 1.68 3.2 1.5 3.2 1.35 3.2 1.18 3.24 1.05 3.3.92 3.33.78 3.42.65 3.5.52 3.62.38 3.75.24 2.93.06-.04 2-2.96-.06-3.84-.24-3.7-.4-3.6-.52-3.48-.67-3.42-.8-3.37-.95-3.3-1.08-3.3-1.22-3.28-1.38-3.27-1.54-3.3-1.72-3.32-1.9-3.37-2.15-3.46-2.4-3.54-2.7-3.65-3.02-3.82-3.43-4-3.94-4.3-4.55-4.6-5.34-5.1-6.44-5.8-8-6.98-10.53-9.66-16.03L1169 506.5l-6.93-10.47-5.76-7.93-5.04-6.36-4.57-5.3-4.2-4.5-3.96-3.86-3.76-3.38-3.58-2.98-3.47-2.64-3.38-2.34-3.3-2.1-3.25-1.88-3.22-1.68-3.2-1.5-3.2-1.35-3.2-1.2-3.25-1.05-3.28-.9-3.36-.8.47-1.95z" stroke="#5e5e5e" stroke-width=".05" fill="#5e5e5e"/><path d="M1313.93 659v2l-1.05-.02.04-2z" fill="#5e5e5e"/><path d="M1313.96 658.98v2.05l-1.1-.03.04-2.05zm-1.05 1.97l1 .02v-1.95l-.95-.02z" stroke="#5e5e5e" stroke-width=".05" fill="#5e5e5e"/><path d="M1093.87 447.8l-13.72-6.05 14.67-3.16z" fill="#5e5e5e"/><path d="M1094.73 449.28l-17.8-7.86 19.02-4.1zm-11.36-7.2l9.65 4.26.66-6.48zM1312.95 661.02l-2.88.06-3.7.23-3.58.4-3.48.5-3.37.64-3.3.78-3.26.9-3.22 1.05-3.17 1.18-3.16 1.34-3.18 1.48-3.2 1.67-3.2 1.86-3.3 2.1-3.34 2.32-3.44 2.6-3.57 2.97-3.7 3.34-3.93 3.84-4.17 4.45-4.5 5.23-4.98 6.28-5.65 7.78-6.75 10.2-9.1 15.1-44.17 78.94-6.8 10.27-5.7 7.86-5.03 6.34-4.57 5.3-4.23 4.5-3.98 3.9-3.78 3.4-3.63 3-3.5 2.68-3.43 2.37-3.35 2.12-3.3 1.9-3.26 1.7-3.26 1.54-3.24 1.37-3.26 1.2-3.3 1.07-3.32.94-3.2.74-.45-1.94 3.15-.74 3.25-.9 3.2-1.05 3.2-1.2 3.16-1.32 3.17-1.5 3.2-1.66 3.22-1.86 3.28-2.07 3.34-2.33 3.45-2.62 3.55-2.95 3.72-3.35 3.92-3.84 4.16-4.45 4.52-5.24 4.97-6.28 5.64-7.78 6.74-10.18 44.14-78.92 9.15-15.16 6.8-10.26 5.7-7.85 5.02-6.35 4.56-5.3 4.25-4.5 3.97-3.9 3.8-3.4 3.62-3 3.5-2.68 3.42-2.38 3.35-2.12 3.3-1.9 3.27-1.7 3.25-1.54 3.25-1.37 3.26-1.22 3.28-1.07 3.34-.92 3.4-.8 3.45-.65 3.54-.53 3.66-.38 3.8-.24 2.9-.06z" stroke="#5e5e5e" stroke-width=".05" fill="#5e5e5e"/><path d="M1313.93 661l-1 .02-.05-2 1.05-.02z" fill="#5e5e5e"/><path d="M1313.96 661.02l-1.06.03-.04-2.05 1.1-.03zm-1.05-1.97l.05 1.95.96-.02v-1.96z" stroke="#5e5e5e" stroke-width=".05" fill="#5e5e5e"/><path d="M1094.82 884.22l-14.67-3.14 13.7-6.08z" fill="#5e5e5e"/><path d="M1095.96 885.5l-19.03-4.08 17.78-7.9zm-12.6-4.75l10.32 2.2-.67-6.48z" stroke="#5e5e5e" stroke-width=".05" fill="#5e5e5e"/><defs><path fill="#0057d2" d="M136-208V0H84v-208H4v-40h212v40h-80" id="u"/><path fill="#0057d2" d="M185-48c-13 30-37 53-82 52C43 2 14-33 14-96s30-98 90-98c62 0 83 45 84 108H66c0 31 8 55 39 56 18 0 30-7 34-22zm-45-69c5-46-57-63-70-21-2 6-4 13-4 21h74" id="v"/><path fill="#0057d2" d="M220-157c-53 9-28 100-34 157h-49v-107c1-27-5-49-29-50C55-147 81-57 75 0H25l-1-190h47c2 12-1 28 3 38 10-53 101-56 108 0 13-22 24-43 59-42 82 1 51 116 57 194h-49v-107c-1-25-5-48-29-50" id="w"/><path fill="#0057d2" d="M135-194c53 0 70 44 70 98 0 56-19 98-73 100-31 1-45-17-59-34 3 33 2 69 2 105H25l-1-265h48c2 10 0 23 3 31 11-24 29-35 60-35zM114-30c33 0 39-31 40-66 0-38-9-64-40-64-56 0-55 130 0 130" id="x"/><path fill="#0057d2" d="M110-194c64 0 96 36 96 99 0 64-35 99-97 99-61 0-95-36-95-99 0-62 34-99 96-99zm-1 164c35 0 45-28 45-65 0-40-10-65-43-65-34 0-45 26-45 65 0 36 10 65 43 65" id="y"/><g id="a"><use transform="matrix(0.10493827160493821,0,0,0.10493827160493821,0,0)" xlink:href="#u"/><use transform="matrix(0.10493827160493821,0,0,0.10493827160493821,20.148148148148135,0)" xlink:href="#v"/><use transform="matrix(0.10493827160493821,0,0,0.10493827160493821,41.135802469135776,0)" xlink:href="#w"/><use transform="matrix(0.10493827160493821,0,0,0.10493827160493821,74.716049382716,0)" xlink:href="#x"/><use transform="matrix(0.10493827160493821,0,0,0.10493827160493821,97.69753086419746,0)" xlink:href="#y"/></g><path fill="#0057d2" d="M87 75C49 33 22-17 22-94c0-76 28-126 65-167h31c-38 41-64 92-64 168S80 34 118 75H87" id="z"/><path fill="#0057d2" d="M127-220V0H93v-220H8v-28h204v28h-85" id="A"/><path fill="#0057d2" d="M114-163C36-179 61-72 57 0H25l-1-190h30c1 12-1 29 2 39 6-27 23-49 58-41v29" id="B"/><path fill="#0057d2" d="M141-36C126-15 110 5 73 4 37 3 15-17 15-53c-1-64 63-63 125-63 3-35-9-54-41-54-24 1-41 7-42 31l-33-3c5-37 33-52 76-52 45 0 72 20 72 64v82c-1 20 7 32 28 27v20c-31 9-61-2-59-35zM48-53c0 20 12 33 32 33 41-3 63-29 60-74-43 2-92-5-92 41" id="C"/><path fill="#0057d2" d="M96-169c-40 0-48 33-48 73s9 75 48 75c24 0 41-14 43-38l32 2c-6 37-31 61-74 61-59 0-76-41-82-99-10-93 101-131 147-64 4 7 5 14 7 22l-32 3c-4-21-16-35-41-35" id="D"/><path fill="#0057d2" d="M100-194c63 0 86 42 84 106H49c0 40 14 67 53 68 26 1 43-12 49-29l28 8c-11 28-37 45-77 45C44 4 14-33 15-96c1-61 26-98 85-98zm52 81c6-60-76-77-97-28-3 7-6 17-6 28h103" id="E"/><path fill="#0057d2" d="M135-143c-3-34-86-38-87 0 15 53 115 12 119 90S17 21 10-45l28-5c4 36 97 45 98 0-10-56-113-15-118-90-4-57 82-63 122-42 12 7 21 19 24 35" id="F"/><path fill="#0057d2" d="M33-261c38 41 65 92 65 168S71 34 33 75H2C39 34 66-17 66-93S39-220 2-261h31" id="G"/><g id="b"><use transform="matrix(0.08641975308641969,0,0,0.08641975308641969,0,0)" xlink:href="#z"/><use transform="matrix(0.08641975308641969,0,0,0.08641975308641969,10.283950617283944,0)" xlink:href="#A"/><use transform="matrix(0.08641975308641969,0,0,0.08641975308641969,28.086419753086407,0)" xlink:href="#B"/><use transform="matrix(0.08641975308641969,0,0,0.08641975308641969,38.370370370370345,0)" xlink:href="#C"/><use transform="matrix(0.08641975308641969,0,0,0.08641975308641969,55.654320987654295,0)" xlink:href="#D"/><use transform="matrix(0.08641975308641969,0,0,0.08641975308641969,71.20987654320983,0)" xlink:href="#E"/><use transform="matrix(0.08641975308641969,0,0,0.08641975308641969,88.49382716049377,0)" xlink:href="#F"/><use transform="matrix(0.08641975308641969,0,0,0.08641975308641969,104.04938271604931,0)" xlink:href="#G"/></g><path fill="#a35d00" d="M199 0l-22-63H83L61 0H9l90-248h61L250 0h-51zm-33-102l-36-108c-10 38-24 72-36 108h72" id="H"/><path fill="#a35d00" d="M24-248c93 1 206-16 204 79-1 75-69 88-152 82V0H24v-248zm52 121c47 0 100 7 100-41 0-47-54-39-100-39v80" id="I"/><path fill="#a35d00" d="M24 0v-248h52V0H24" id="J"/><g id="c"><use transform="matrix(0.12345679012345674,0,0,0.12345679012345674,0,0)" xlink:href="#H"/><use transform="matrix(0.12345679012345674,0,0,0.12345679012345674,31.975308641975296,0)" xlink:href="#I"/><use transform="matrix(0.12345679012345674,0,0,0.12345679012345674,61.604938271604915,0)" xlink:href="#J"/></g><path fill="#a35d00" d="M67-125c0 54 23 88 75 88 28 0 53-7 68-21v-34h-60v-39h108v91C232-14 192 4 140 4 58 4 20-42 15-125 8-236 126-280 215-234c19 10 29 26 37 47l-47 15c-11-23-29-39-63-39-53 1-75 33-75 86" id="K"/><path fill="#a35d00" d="M133-34C117-15 103 5 69 4 32 3 11-16 11-54c-1-60 55-63 116-61 1-26-3-47-28-47-18 1-26 9-28 27l-52-2c7-38 36-58 82-57s74 22 75 68l1 82c-1 14 12 18 25 15v27c-30 8-71 5-69-32zm-48 3c29 0 43-24 42-57-32 0-66-3-65 30 0 17 8 27 23 27" id="L"/><path fill="#a35d00" d="M115-3C79 11 28 4 28-45v-112H4v-33h27l15-45h31v45h36v33H77v99c-1 23 16 31 38 25v30" id="M"/><path fill="#a35d00" d="M185-48c-13 30-37 53-82 52C43 2 14-33 14-96s30-98 90-98c62 0 83 45 84 108H66c0 31 8 55 39 56 18 0 30-7 34-22zm-45-69c5-46-57-63-70-21-2 6-4 13-4 21h74" id="N"/><path fill="#a35d00" d="M231 0h-52l-39-155L100 0H48L-1-190h46L77-45c9-52 24-97 36-145h53l37 145 32-145h46" id="O"/><path fill="#a35d00" d="M123 10C108 53 80 86 19 72V37c35 8 53-11 59-39L3-190h52l48 148c12-52 28-100 44-148h51" id="P"/><g id="d"><use transform="matrix(0.12345679012345674,0,0,0.12345679012345674,0,0)" xlink:href="#K"/><use transform="matrix(0.12345679012345674,0,0,0.12345679012345674,34.567901234567884,0)" xlink:href="#L"/><use transform="matrix(0.12345679012345674,0,0,0.12345679012345674,59.25925925925923,0)" xlink:href="#M"/><use transform="matrix(0.12345679012345674,0,0,0.12345679012345674,73.95061728395058,0)" xlink:href="#N"/><use transform="matrix(0.12345679012345674,0,0,0.12345679012345674,98.64197530864192,0)" xlink:href="#O"/><use transform="matrix(0.12345679012345674,0,0,0.12345679012345674,133.20987654320982,0)" xlink:href="#L"/><use transform="matrix(0.12345679012345674,0,0,0.12345679012345674,157.90123456790116,0)" xlink:href="#P"/></g><path fill="#256f3a" d="M24-248c93 1 206-16 204 79-1 75-69 88-152 82V0H24v-248zm52 121c47 0 100 7 100-41 0-47-54-39-100-39v80" id="Q"/><path fill="#256f3a" d="M135-150c-39-12-60 13-60 57V0H25l-1-190h47c2 13-1 29 3 40 6-28 27-53 61-41v41" id="R"/><path fill="#256f3a" d="M110-194c64 0 96 36 96 99 0 64-35 99-97 99-61 0-95-36-95-99 0-62 34-99 96-99zm-1 164c35 0 45-28 45-65 0-40-10-65-43-65-34 0-45 26-45 65 0 36 10 65 43 65" id="S"/><path fill="#256f3a" d="M220-157c-53 9-28 100-34 157h-49v-107c1-27-5-49-29-50C55-147 81-57 75 0H25l-1-190h47c2 12-1 28 3 38 10-53 101-56 108 0 13-22 24-43 59-42 82 1 51 116 57 194h-49v-107c-1-25-5-48-29-50" id="T"/><path fill="#256f3a" d="M185-48c-13 30-37 53-82 52C43 2 14-33 14-96s30-98 90-98c62 0 83 45 84 108H66c0 31 8 55 39 56 18 0 30-7 34-22zm-45-69c5-46-57-63-70-21-2 6-4 13-4 21h74" id="U"/><path fill="#256f3a" d="M115-3C79 11 28 4 28-45v-112H4v-33h27l15-45h31v45h36v33H77v99c-1 23 16 31 38 25v30" id="V"/><path fill="#256f3a" d="M114-157C55-157 80-60 75 0H25v-261h50l-1 109c12-26 28-41 61-42 86-1 58 113 63 194h-50c-7-57 23-157-34-157" id="W"/><path fill="#256f3a" d="M85 4C-2 5 27-109 22-190h50c7 57-23 150 33 157 60-5 35-97 40-157h50l1 190h-47c-2-12 1-28-3-38-12 25-28 42-61 42" id="X"/><path fill="#256f3a" d="M137-138c1-29-70-34-71-4 15 46 118 7 119 86 1 83-164 76-172 9l43-7c4 19 20 25 44 25 33 8 57-30 24-41C81-84 22-81 20-136c-2-80 154-74 161-7" id="Y"/><g id="e"><use transform="matrix(0.10493827160493821,0,0,0.10493827160493821,0,0)" xlink:href="#Q"/><use transform="matrix(0.10493827160493821,0,0,0.10493827160493821,25.18518518518517,0)" xlink:href="#R"/><use transform="matrix(0.10493827160493821,0,0,0.10493827160493821,39.876543209876516,0)" xlink:href="#S"/><use transform="matrix(0.10493827160493821,0,0,0.10493827160493821,62.85802469135799,0)" xlink:href="#T"/><use transform="matrix(0.10493827160493821,0,0,0.10493827160493821,96.43827160493821,0)" xlink:href="#U"/><use transform="matrix(0.10493827160493821,0,0,0.10493827160493821,117.42592592592585,0)" xlink:href="#V"/><use transform="matrix(0.10493827160493821,0,0,0.10493827160493821,129.9135802469135,0)" xlink:href="#W"/><use transform="matrix(0.10493827160493821,0,0,0.10493827160493821,152.89506172839498,0)" xlink:href="#U"/><use transform="matrix(0.10493827160493821,0,0,0.10493827160493821,173.88271604938262,0)" xlink:href="#X"/><use transform="matrix(0.10493827160493821,0,0,0.10493827160493821,196.8641975308641,0)" xlink:href="#Y"/></g><path fill="#256f3a" d="M87 75C49 33 22-17 22-94c0-76 28-126 65-167h31c-38 41-64 92-64 168S80 34 118 75H87" id="Z"/><path fill="#256f3a" d="M240 0l2-218c-23 76-54 145-80 218h-23L58-218 59 0H30v-248h44l77 211c21-75 51-140 76-211h43V0h-30" id="aa"/><path fill="#256f3a" d="M100-194c63 0 86 42 84 106H49c0 40 14 67 53 68 26 1 43-12 49-29l28 8c-11 28-37 45-77 45C44 4 14-33 15-96c1-61 26-98 85-98zm52 81c6-60-76-77-97-28-3 7-6 17-6 28h103" id="ab"/><path fill="#256f3a" d="M59-47c-2 24 18 29 38 22v24C64 9 27 4 27-40v-127H5v-23h24l9-43h21v43h35v23H59v120" id="ac"/><path fill="#256f3a" d="M114-163C36-179 61-72 57 0H25l-1-190h30c1 12-1 29 2 39 6-27 23-49 58-41v29" id="ad"/><path fill="#256f3a" d="M24-231v-30h32v30H24zM24 0v-190h32V0H24" id="ae"/><path fill="#256f3a" d="M96-169c-40 0-48 33-48 73s9 75 48 75c24 0 41-14 43-38l32 2c-6 37-31 61-74 61-59 0-76-41-82-99-10-93 101-131 147-64 4 7 5 14 7 22l-32 3c-4-21-16-35-41-35" id="af"/><path fill="#256f3a" d="M135-143c-3-34-86-38-87 0 15 53 115 12 119 90S17 21 10-45l28-5c4 36 97 45 98 0-10-56-113-15-118-90-4-57 82-63 122-42 12 7 21 19 24 35" id="ag"/><path fill="#256f3a" d="M33-261c38 41 65 92 65 168S71 34 33 75H2C39 34 66-17 66-93S39-220 2-261h31" id="ah"/><g id="f"><use transform="matrix(0.08641975308641969,0,0,0.08641975308641969,0,0)" xlink:href="#Z"/><use transform="matrix(0.08641975308641969,0,0,0.08641975308641969,10.283950617283944,0)" xlink:href="#aa"/><use transform="matrix(0.08641975308641969,0,0,0.08641975308641969,36.123456790123434,0)" xlink:href="#ab"/><use transform="matrix(0.08641975308641969,0,0,0.08641975308641969,53.40740740740738,0)" xlink:href="#ac"/><use transform="matrix(0.08641975308641969,0,0,0.08641975308641969,62.04938271604934,0)" xlink:href="#ad"/><use transform="matrix(0.08641975308641969,0,0,0.08641975308641969,72.33333333333329,0)" xlink:href="#ae"/><use transform="matrix(0.08641975308641969,0,0,0.08641975308641969,79.16049382716044,0)" xlink:href="#af"/><use transform="matrix(0.08641975308641969,0,0,0.08641975308641969,94.71604938271598,0)" xlink:href="#ag"/><use transform="matrix(0.08641975308641969,0,0,0.08641975308641969,110.27160493827152,0)" xlink:href="#ah"/></g><path fill="#e81313" d="M24 0v-248h52v208h133V0H24" id="ai"/><path fill="#e81313" d="M110-194c64 0 96 36 96 99 0 64-35 99-97 99-61 0-95-36-95-99 0-62 34-99 96-99zm-1 164c35 0 45-28 45-65 0-40-10-65-43-65-34 0-45 26-45 65 0 36 10 65 43 65" id="aj"/><path fill="#e81313" d="M147 0L96-86 75-71V0H25v-261h50v150l67-79h53l-66 74L201 0h-54" id="ak"/><path fill="#e81313" d="M25-224v-37h50v37H25zM25 0v-190h50V0H25" id="al"/><g id="g"><use transform="matrix(0.10493827160493821,0,0,0.10493827160493821,0,0)" xlink:href="#ai"/><use transform="matrix(0.10493827160493821,0,0,0.10493827160493821,22.981481481481467,0)" xlink:href="#aj"/><use transform="matrix(0.10493827160493821,0,0,0.10493827160493821,45.96296296296293,0)" xlink:href="#ak"/><use transform="matrix(0.10493827160493821,0,0,0.10493827160493821,66.95061728395058,0)" xlink:href="#al"/></g><path fill="#e81313" d="M87 75C49 33 22-17 22-94c0-76 28-126 65-167h31c-38 41-64 92-64 168S80 34 118 75H87" id="am"/><path fill="#e81313" d="M30 0v-248h33v221h125V0H30" id="an"/><path fill="#e81313" d="M100-194c62-1 85 37 85 99 1 63-27 99-86 99S16-35 15-95c0-66 28-99 85-99zM99-20c44 1 53-31 53-75 0-43-8-75-51-75s-53 32-53 75 10 74 51 75" id="ao"/><path fill="#e81313" d="M177-190C167-65 218 103 67 71c-23-6-38-20-44-43l32-5c15 47 100 32 89-28v-30C133-14 115 1 83 1 29 1 15-40 15-95c0-56 16-97 71-98 29-1 48 16 59 35 1-10 0-23 2-32h30zM94-22c36 0 50-32 50-73 0-42-14-75-50-75-39 0-46 34-46 75s6 73 46 73" id="ap"/><path fill="#e81313" d="M135-143c-3-34-86-38-87 0 15 53 115 12 119 90S17 21 10-45l28-5c4 36 97 45 98 0-10-56-113-15-118-90-4-57 82-63 122-42 12 7 21 19 24 35" id="aq"/><path fill="#e81313" d="M33-261c38 41 65 92 65 168S71 34 33 75H2C39 34 66-17 66-93S39-220 2-261h31" id="ar"/><g id="h"><use transform="matrix(0.08641975308641969,0,0,0.08641975308641969,0,0)" xlink:href="#am"/><use transform="matrix(0.08641975308641969,0,0,0.08641975308641969,10.283950617283944,0)" xlink:href="#an"/><use transform="matrix(0.08641975308641969,0,0,0.08641975308641969,27.56790123456788,0)" xlink:href="#ao"/><use transform="matrix(0.08641975308641969,0,0,0.08641975308641969,44.85185185185182,0)" xlink:href="#ap"/><use transform="matrix(0.08641975308641969,0,0,0.08641975308641969,62.13580246913576,0)" xlink:href="#aq"/><use transform="matrix(0.08641975308641969,0,0,0.08641975308641969,77.6913580246913,0)" xlink:href="#ar"/></g><path fill="#333" d="M795 20C337 14 84-257 84-711c0-448 252-713 698-719 305-4 499 135 604 338l-245 119c-60-113-180-207-353-205-267 9-407 192-407 467 0 284 133 473 414 478 167 0 292-80 374-240l242 125C1311-136 1113 25 795 20" id="as"/><path fill="#333" d="M621 20C276 20 80-202 80-543s197-559 547-559c358 0 544 210 544 559 0 345-199 563-550 563zm-3-223c183 0 261-142 259-340 1-194-68-336-246-336-181 0-257 141-256 336 3 188 67 340 243 340" id="at"/><path fill="#333" d="M422 14C235 18 133-86 133-262v-1223h281v1153c-1 82 15 123 96 121 16 0 33-2 51-6L571 0c-48 9-98 14-149 14" id="au"/><path fill="#333" d="M606 20C262 18 76-184 80-543c2-346 179-559 510-559 359 0 510 263 473 635H375c1 166 76 276 246 274 145-4 205-54 301-118l114 182C912-40 811 20 606 20zm191-679c-4-150-65-238-209-238-138 0-209 91-211 238h420" id="av"/><path fill="#333" d="M614 20C267 15 80-189 80-535c0-356 191-561 543-567 185 0 324 76 417 228L844-741c-55-76-103-138-221-138-178 0-249 140-248 332-2 198 71 342 250 342 133 0 184-66 262-141l168 162C959-66 819 20 614 20" id="aw"/><path fill="#333" d="M440 18C256 18 162-86 162-274v-598H25v-209h151l14-244 250-21v265h215v209H440v522c1 86 24 133 105 135 29 0 63-4 102-12l21 213C591 7 515 18 440 18" id="ax"/><g id="i"><use transform="matrix(0.008680555555555556,0,0,0.008680555555555556,0,0)" xlink:href="#as"/><use transform="matrix(0.008680555555555556,0,0,0.008680555555555556,12.621527777777779,0)" xlink:href="#at"/><use transform="matrix(0.008680555555555556,0,0,0.008680555555555556,23.48090277777778,0)" xlink:href="#au"/><use transform="matrix(0.008680555555555556,0,0,0.008680555555555556,28.706597222222218,0)" xlink:href="#au"/><use transform="matrix(0.008680555555555556,0,0,0.008680555555555556,33.932291666666664,0)" xlink:href="#av"/><use transform="matrix(0.008680555555555556,0,0,0.008680555555555556,43.81944444444444,0)" xlink:href="#aw"/><use transform="matrix(0.008680555555555556,0,0,0.008680555555555556,53.16840277777778,0)" xlink:href="#ax"/></g><path fill="#333" d="M-6-1081h268c58 275 121 545 174 825 5-33 29-159 37-190l170-635h305c68 276 150 536 205 825 52-281 121-551 180-825h264L1319 0h-309c-71-295-153-575-213-881C731-581 651-294 578 0H268" id="ay"/><path fill="#333" d="M285-1225c-97 1-159-61-158-157-1-97 61-159 158-158 94-1 157 63 155 158 2 93-63 159-155 157zm-142 144h281V0H143v-1081" id="az"/><path fill="#333" d="M662-860c-154 0-238 121-238 280V0H143v-1485h281c-3 215 7 386-8 598h4c67-133 165-211 348-215 250-3 356 169 356 416V0H844v-606c-2-150-37-254-182-254" id="aA"/><g id="j"><use transform="matrix(0.008680555555555556,0,0,0.008680555555555556,0,0)" xlink:href="#ay"/><use transform="matrix(0.008680555555555556,0,0,0.008680555555555556,13.828125,0)" xlink:href="#az"/><use transform="matrix(0.008680555555555556,0,0,0.008680555555555556,18.76736111111111,0)" xlink:href="#ax"/><use transform="matrix(0.008680555555555556,0,0,0.008680555555555556,24.774305555555557,0)" xlink:href="#aA"/></g><path fill="#333" d="M647-1409c464 5 742 227 746 694 2 307-133 526-334 633C956-27 838 0 707 0H137v-1409h510zm449 694c4-295-170-445-455-446H432v913h250c272-8 410-186 414-467" id="aB"/><path fill="#333" d="M143-1485h281v846l375-442h313L731-659 1141 0H834L545-489 424-365V0H143v-1485" id="aC"/><path fill="#333" d="M645-858c-160 6-221 145-221 328V0H143c-4-360 8-734-8-1081h268c6 22 14 159 13 188h4c53-121 92-208 256-211 31 0 72 7 90 17l-8 243c-37-7-83-15-113-14" id="aD"/><g id="k"><use transform="matrix(0.008680555555555556,0,0,0.008680555555555556,0,0)" xlink:href="#aB"/><use transform="matrix(0.008680555555555556,0,0,0.008680555555555556,12.838541666666668,0)" xlink:href="#at"/><use transform="matrix(0.008680555555555556,0,0,0.008680555555555556,23.697916666666668,0)" xlink:href="#aw"/><use transform="matrix(0.008680555555555556,0,0,0.008680555555555556,33.046875,0)" xlink:href="#aC"/><use transform="matrix(0.008680555555555556,0,0,0.008680555555555556,42.76041666666666,0)" xlink:href="#av"/><use transform="matrix(0.008680555555555556,0,0,0.008680555555555556,52.64756944444445,0)" xlink:href="#aD"/></g><path fill="#333" d="M137-1409h295v1161h674V0H137v-1409" id="aE"/><g id="l"><use transform="matrix(0.008680555555555556,0,0,0.008680555555555556,0,0)" xlink:href="#aE"/><use transform="matrix(0.008680555555555556,0,0,0.008680555555555556,10.147569444444445,0)" xlink:href="#at"/><use transform="matrix(0.008680555555555556,0,0,0.008680555555555556,21.006944444444443,0)" xlink:href="#aC"/><use transform="matrix(0.008680555555555556,0,0,0.008680555555555556,30.894097222222218,0)" xlink:href="#az"/></g><path fill="#333" d="M1296-950c0 302-198 475-514 475H432V0H137v-1409h633c324 1 526 146 526 459zm-297 4c-2-151-101-214-262-213H432v436h313c158 2 252-75 254-223" id="aF"/><path fill="#333" d="M483 20c-250 3-356-168-356-415v-686h281v606c2 149 38 254 182 254 154 0 237-121 237-281v-579h281c4 359-9 735 8 1081H848c-4-31-13-158-12-195h-5C765-62 665 17 483 20" id="aG"/><path fill="#333" d="M425-391c-32 24-66 88-21 117 51 33 141 23 235 32 223 21 339 12 449 121 42 45 63 115 63 209 0 114-46 198-137 254s-236 84-434 84c-212-2-369-15-466-109-35-39-53-91-53-157C65 44 126-10 204-68c-45-35-67-86-67-153 4-112 61-169 132-227-93-55-156-150-156-289 0-255 182-364 454-365 111 0 203 20 276 60 64-83 131-139 267-140l10 228c-60 0-111 7-155 22 35 56 53 121 53 195-1 295-281 393-593 346zm140-520c-118-2-185 62-186 174 0 109 68 169 180 168 129 1 193-51 193-168 0-114-66-176-187-174zM362-5c-41 40-74 146-18 192 75 62 369 41 468 15 74-15 99-102 42-138C754 1 521 28 362-5" id="aH"/><path fill="#333" d="M662-862c-155 0-238 122-238 282V0H143c-4-359 9-735-8-1081h268c6 29 14 157 13 194h4c68-132 166-213 348-217 251-3 356 170 356 418V0H844v-606c-2-150-37-256-182-256" id="aI"/><g id="m"><use transform="matrix(0.008680555555555556,0,0,0.008680555555555556,0,0)" xlink:href="#aF"/><use transform="matrix(0.008680555555555556,0,0,0.008680555555555556,11.85763888888889,0)" xlink:href="#au"/><use transform="matrix(0.008680555555555556,0,0,0.008680555555555556,17.083333333333336,0)" xlink:href="#aG"/><use transform="matrix(0.008680555555555556,0,0,0.008680555555555556,27.942708333333336,0)" xlink:href="#aH"/><use transform="matrix(0.008680555555555556,0,0,0.008680555555555556,38.020833333333336,0)" xlink:href="#az"/><use transform="matrix(0.008680555555555556,0,0,0.008680555555555556,42.96006944444444,0)" xlink:href="#aI"/></g><path fill="#333" d="M1227-408C1217-92 979 18 643 20 393 20 201-60 68-221l190-189c96 102 199 185 393 187 155 0 289-37 289-168 0-90-69-132-139-157-128-42-350-81-460-136-123-61-227-163-224-346 10-289 241-400 540-400 240 0 394 72 521 197l-172 186c-93-84-194-147-359-149-87 0-148 16-187 41-66 42-76 146-22 199 67 65 152 72 275 104 208 53 332 74 443 206 47 58 71 137 71 238" id="aJ"/><path fill="#333" d="M401 20C193 17 70-97 66-305c-2-250 181-340 428-346l233-4c13-153-41-232-178-230-95 0-192 44-291 131L125-930c129-115 276-172 440-172 267-2 443 128 443 387 0 231-4 502 8 715H750c-5-47-7-98-7-152h-6C671-49 563 20 401 20zm88-213c158 0 250-112 238-288-168 10-369-30-369 153-1 85 49 135 131 135" id="aK"/><path fill="#333" d="M418-152c12 183 4 386 6 578H143V-834c0-102-3-184-8-247h273c7 23 13 121 12 155h4c71-119 186-178 344-178 295 0 405 251 410 557 0 222-70 402-200 495-66 48-144 72-235 72-150-3-265-63-319-172h-6zm241-51c165 0 226-148 226-344 0-188-61-332-223-332-176 0-241 145-242 340 1 193 66 336 239 336" id="aL"/><g id="n"><use transform="matrix(0.008680555555555556,0,0,0.008680555555555556,0,0)" xlink:href="#aJ"/><use transform="matrix(0.008680555555555556,0,0,0.008680555555555556,11.197916666666668,0)" xlink:href="#aw"/><use transform="matrix(0.008680555555555556,0,0,0.008680555555555556,20.546875,0)" xlink:href="#aD"/><use transform="matrix(0.008680555555555556,0,0,0.008680555555555556,27.291666666666668,0)" xlink:href="#aK"/><use transform="matrix(0.008680555555555556,0,0,0.008680555555555556,37.17881944444444,0)" xlink:href="#aL"/><use transform="matrix(0.008680555555555556,0,0,0.008680555555555556,48.13368055555556,0)" xlink:href="#av"/></g><path fill="#333" d="M580-1276c-108-6-110 86-107 195h223v209H473V0H193v-872H35v-209h158c-16-266 70-410 335-404 53 0 109 6 168 17l-20 202c-28-7-60-10-96-10" id="aM"/><path fill="#333" d="M625-860c-139 0-201 131-201 280V0H143c-4-359 9-735-8-1081h268c6 29 14 157 13 194h4c60-130 146-215 315-217 167-2 268 80 301 217h6c66-141 145-212 328-217 235-2 323 180 324 418V0h-279v-606c-3-142-25-254-155-254-136 0-201 124-201 266V0H780v-606c-3-142-25-254-155-254" id="aN"/><g id="o"><use transform="matrix(0.008680555555555556,0,0,0.008680555555555556,0,0)" xlink:href="#aM"/><use transform="matrix(0.008680555555555556,0,0,0.008680555555555556,6.006944444444445,0)" xlink:href="#aD"/><use transform="matrix(0.008680555555555556,0,0,0.008680555555555556,12.751736111111112,0)" xlink:href="#at"/><use transform="matrix(0.008680555555555556,0,0,0.008680555555555556,23.61111111111111,0)" xlink:href="#aN"/></g><path fill="#333" d="M311-1485h238L262 41H20" id="aO"/><path fill="#333" d="M954-315C949-74 761 20 508 20 299 20 173-36 49-135l127-193c105 75 179 138 332 138 101 0 184-12 188-103 0-62-44-88-92-105-99-30-269-62-350-106-94-47-166-128-164-270 6-234 178-325 422-328 182 1 322 58 414 156L782-780c-77-75-166-113-268-113-111 0-166 32-166 96 0 54 36 76 78 92 242 71 534 83 528 390" id="aP"/><g id="p"><use transform="matrix(0.008680555555555556,0,0,0.008680555555555556,0,0)" xlink:href="#aO"/><use transform="matrix(0.008680555555555556,0,0,0.008680555555555556,4.939236111111112,0)" xlink:href="#aN"/><use transform="matrix(0.008680555555555556,0,0,0.008680555555555556,20.74652777777778,0)" xlink:href="#av"/><use transform="matrix(0.008680555555555556,0,0,0.008680555555555556,30.633680555555557,0)" xlink:href="#ax"/><use transform="matrix(0.008680555555555556,0,0,0.008680555555555556,36.640625,0)" xlink:href="#aD"/><use transform="matrix(0.008680555555555556,0,0,0.008680555555555556,43.55902777777778,0)" xlink:href="#az"/><use transform="matrix(0.008680555555555556,0,0,0.008680555555555556,48.49826388888889,0)" xlink:href="#aw"/><use transform="matrix(0.008680555555555556,0,0,0.008680555555555556,57.84722222222222,0)" xlink:href="#aP"/></g><g id="q"><use transform="matrix(0.008680555555555556,0,0,0.008680555555555556,0,0)" xlink:href="#aF"/><use transform="matrix(0.008680555555555556,0,0,0.008680555555555556,11.85763888888889,0)" xlink:href="#aG"/><use transform="matrix(0.008680555555555556,0,0,0.008680555555555556,22.71701388888889,0)" xlink:href="#aP"/><use transform="matrix(0.008680555555555556,0,0,0.008680555555555556,31.553819444444443,0)" xlink:href="#aA"/></g><path fill="#333" d="M1292-979c0 226-129 358-309 408L1364 0h-332L705-514H432V0H137v-1409h631c314 2 524 127 524 430zm-297 12c0-142-105-192-258-192H432v395h311c154 2 252-64 252-203" id="aQ"/><g id="r"><use transform="matrix(0.008680555555555556,0,0,0.008680555555555556,0,0)" xlink:href="#aH"/><use transform="matrix(0.008680555555555556,0,0,0.008680555555555556,10.078125,0)" xlink:href="#aQ"/><use transform="matrix(0.008680555555555556,0,0,0.008680555555555556,22.274305555555557,0)" xlink:href="#as"/><use transform="matrix(0.008680555555555556,0,0,0.008680555555555556,34.895833333333336,0)" xlink:href="#aF"/></g><path fill="#552cff" d="M67-125c0 54 23 88 75 88 28 0 53-7 68-21v-34h-60v-39h108v91C232-14 192 4 140 4 58 4 20-42 15-125 8-236 126-280 215-234c19 10 29 26 37 47l-47 15c-11-23-29-39-63-39-53 1-75 33-75 86" id="aR"/><path fill="#552cff" d="M135-150c-39-12-60 13-60 57V0H25l-1-190h47c2 13-1 29 3 40 6-28 27-53 61-41v41" id="aS"/><path fill="#552cff" d="M133-34C117-15 103 5 69 4 32 3 11-16 11-54c-1-60 55-63 116-61 1-26-3-47-28-47-18 1-26 9-28 27l-52-2c7-38 36-58 82-57s74 22 75 68l1 82c-1 14 12 18 25 15v27c-30 8-71 5-69-32zm-48 3c29 0 43-24 42-57-32 0-66-3-65 30 0 17 8 27 23 27" id="aT"/><path fill="#552cff" d="M121-226c-27-7-43 5-38 36h38v33H83V0H34v-157H6v-33h28c-9-59 32-81 87-68v32" id="aU"/><path fill="#552cff" d="M135-194c87-1 58 113 63 194h-50c-7-57 23-157-34-157-59 0-34 97-39 157H25l-1-190h47c2 12-1 28 3 38 12-26 28-41 61-42" id="aV"/><g id="s"><use transform="matrix(0.12345679012345674,0,0,0.12345679012345674,0,0)" xlink:href="#aR"/><use transform="matrix(0.12345679012345674,0,0,0.12345679012345674,34.567901234567884,0)" xlink:href="#aS"/><use transform="matrix(0.12345679012345674,0,0,0.12345679012345674,51.851851851851826,0)" xlink:href="#aT"/><use transform="matrix(0.12345679012345674,0,0,0.12345679012345674,76.54320987654317,0)" xlink:href="#aU"/><use transform="matrix(0.12345679012345674,0,0,0.12345679012345674,91.23456790123453,0)" xlink:href="#aT"/><use transform="matrix(0.12345679012345674,0,0,0.12345679012345674,115.92592592592587,0)" xlink:href="#aV"/><use transform="matrix(0.12345679012345674,0,0,0.12345679012345674,142.9629629629629,0)" xlink:href="#aT"/></g><path fill="#333" d="M1507-711c0 257-99 455-245 575l129 163-226 161-145-199C813 47 570 18 412-74 214-190 84-410 84-711c0-451 262-719 711-719s712 270 712 719zm-1126 0c0 295 164 501 475 474l-84-115 201-148 115 145c75-80 118-205 118-356-5-276-142-467-411-467-273 0-414 190-414 467" id="aW"/><path fill="#333" d="M106 410l21-220c104 22 192 3 239-56 28-30 61-91 78-144L16-1081h299c91 271 186 536 269 819 74-291 164-546 247-819h297L700 57c-65 150-116 260-238 330-81 51-253 44-356 23" id="aX"/><g id="t"><use transform="matrix(0.008680555555555556,0,0,0.008680555555555556,0,0)" xlink:href="#aW"/><use transform="matrix(0.008680555555555556,0,0,0.008680555555555556,13.828125,0)" xlink:href="#aG"/><use transform="matrix(0.008680555555555556,0,0,0.008680555555555556,24.6875,0)" xlink:href="#av"/><use transform="matrix(0.008680555555555556,0,0,0.008680555555555556,34.57465277777778,0)" xlink:href="#aD"/><use transform="matrix(0.008680555555555556,0,0,0.008680555555555556,41.49305555555556,0)" xlink:href="#aX"/></g></defs></g></svg>