<svg xmlns="http://www.w3.org/2000/svg" xmlns:xlink="http://www.w3.org/1999/xlink" xmlns:lucid="lucid" width="926" height="490"><g transform="translate(-318 -290)" lucid:page-tab-id="mFJR00ttm~9K"><path d="M340 340.5a6 6 0 0 1 6-6h248a6 6 0 0 1 6 6v168a6 6 0 0 1-6 6H346a6 6 0 0 1-6-6z" stroke="#5e5e5e" stroke-width="2" fill="#fff"/><path d="M340 393.7h260" stroke="#5e5e5e" stroke-width="2" fill="none"/><use xlink:href="#a" transform="matrix(1,0,0,1,348,342.5) translate(69.07499999999999 14.799999999999999)"/><use xlink:href="#b" transform="matrix(1,0,0,1,348,342.5) translate(72.6 36.4)"/><use xlink:href="#c" transform="matrix(1,0,0,1,352,401.7) translate(0 18.105468749999975)"/><use xlink:href="#d" transform="matrix(1,0,0,1,352,401.7) translate(17.236328124999975 18.105468749999975)"/><use xlink:href="#c" transform="matrix(1,0,0,1,352,401.7) translate(0 41.10351562499994)"/><use xlink:href="#e" transform="matrix(1,0,0,1,352,401.7) translate(17.236328124999975 41.10351562499994)"/><use xlink:href="#c" transform="matrix(1,0,0,1,352,401.7) translate(0 64.10156249999991)"/><use xlink:href="#f" transform="matrix(1,0,0,1,352,401.7) translate(17.236328124999975 64.10156249999991)"/><use xlink:href="#g" transform="matrix(1,0,0,1,352,401.7) translate(108.75976562499983 64.10156249999991)"/><use xlink:href="#h" transform="matrix(1,0,0,1,352,401.7) translate(118 89.11132812499987)"/><path d="M680 373a6 6 0 0 1 6-6h168a6 6 0 0 1 6 6v103a6 6 0 0 1-6 6H686a6 6 0 0 1-6-6z" stroke="#5e5e5e" stroke-width="2" fill="#fff"/><path d="M680 404.6h180" stroke="#5e5e5e" stroke-width="2" fill="none"/><use xlink:href="#i" transform="matrix(1,0,0,1,688,375) translate(8.149999999999991 14.6)"/><use xlink:href="#j" transform="matrix(1,0,0,1,692,412.6) translate(0 20.117187499999975)"/><use xlink:href="#k" transform="matrix(1,0,0,1,692,412.6) translate(47.677734375000036 45.670572916666615)"/><use xlink:href="#l" transform="matrix(1,0,0,1,692,412.6) translate(61.25195312500002 45.670572916666615)"/><path d="M940 334a6 6 0 0 1 6-6h168a6 6 0 0 1 6 6v181a6 6 0 0 1-6 6H946a6 6 0 0 1-6-6z" stroke="#5e5e5e" stroke-width="2" fill="#fff"/><path d="M940 387.2h180" stroke="#5e5e5e" stroke-width="2" fill="none"/><use xlink:href="#a" transform="matrix(1,0,0,1,948,336) translate(29.074999999999996 14.799999999999999)"/><use xlink:href="#m" transform="matrix(1,0,0,1,948,336) translate(12.699999999999989 36.4)"/><use xlink:href="#c" transform="matrix(1,0,0,1,952,395.2) translate(0 18.105468749999975)"/><use xlink:href="#n" transform="matrix(1,0,0,1,952,395.2) translate(17.236328124999975 18.105468749999975)"/><use xlink:href="#c" transform="matrix(1,0,0,1,952,395.2) translate(0 41.10351562499994)"/><use xlink:href="#o" transform="matrix(1,0,0,1,952,395.2) translate(17.236328124999975 41.10351562499994)"/><use xlink:href="#c" transform="matrix(1,0,0,1,952,395.2) translate(0 64.10156249999991)"/><use xlink:href="#p" transform="matrix(1,0,0,1,952,395.2) translate(17.236328124999975 64.10156249999991)"/><use xlink:href="#c" transform="matrix(1,0,0,1,952,395.2) translate(0 87.09960937499987)"/><use xlink:href="#q" transform="matrix(1,0,0,1,952,395.2) translate(17.236328124999975 87.09960937499987)"/><use xlink:href="#h" transform="matrix(1,0,0,1,952,395.2) translate(78 112.10937499999984)"/><path d="M862 424.5h58.5" stroke="#5e5e5e" stroke-width="2" stroke-linejoin="round" fill="none"/><path d="M862.03 425.5H861v-2h1.03z" stroke="#5e5e5e" stroke-width=".05" fill="#5e5e5e"/><path d="M935.76 424.5l-14.26 4.63v-9.26z" stroke="#5e5e5e" stroke-width="2" fill="#5e5e5e"/><path d="M840 680.5a6 6 0 0 1 6-6h168a6 6 0 0 1 6 6v67a6 6 0 0 1-6 6H846a6 6 0 0 1-6-6z" stroke="#5e5e5e" stroke-width="2" fill="#fff"/><path d="M840 712.1h180" stroke="#5e5e5e" stroke-width="2" fill="none"/><g><use xlink:href="#r" transform="matrix(1,0,0,1,848,682.5) translate(32.62499999999999 14.6)"/></g><path d="M1040 680.5a6 6 0 0 1 6-6h168a6 6 0 0 1 6 6v67a6 6 0 0 1-6 6h-168a6 6 0 0 1-6-6z" stroke="#5e5e5e" stroke-width="2" fill="#fff"/><path d="M1040 712.1h180" stroke="#5e5e5e" stroke-width="2" fill="none"/><g><use xlink:href="#s" transform="matrix(1,0,0,1,1048,682.5) translate(26.624999999999993 14.6)"/></g><path d="M930.02 672.5l.05-2.5.2-3.3.34-3.14.45-3 .55-2.88.66-2.8.12-.42m7-16.8l.6-1.03 1.66-2.63 1.88-2.7 2.12-2.8 2.44-2.95 2.85-3.16 3.4-3.5 4.3-4 4.96-4.27m14.3-11.3l17.6-13.67 5.88-5.07 4.28-4 .4-.43m11.77-13.9l.53-.77 1.67-2.63 1.5-2.6 1.34-2.56 1.2-2.55 1.1-2.58.93-2.52" stroke="#5e5e5e" stroke-width="2" stroke-linejoin="round" fill="none"/><path d="M931.02 672.5l-.02 1h-2l.02-1.05z" stroke="#5e5e5e" stroke-width=".05" fill="#5e5e5e"/><path d="M1029.68 523.94l9.12 23.28-25.12-4.08z" stroke="#5e5e5e" stroke-width="2" fill="#fff"/><path d="M678 424.5h-17.5m-17.5 0h-17.52" stroke="#5e5e5e" stroke-width="2" stroke-linejoin="round" fill="none"/><path d="M679 425.5h-1.03v-2H679z" stroke="#5e5e5e" stroke-width=".05" fill="#5e5e5e"/><path d="M602.96 424.5l21.52-12.73v25.46z" stroke="#5e5e5e" stroke-width="2" fill="#fff"/><path d="M1129.98 672.5l-.05-2.5-.2-3.3-.34-3.14-.45-3-.55-2.88-.66-2.8-.12-.42m-7-16.8l-.6-1.03-1.66-2.63-1.88-2.7-2.12-2.8-2.44-2.95-2.85-3.16-3.4-3.5-4.3-4-4.96-4.27m-14.3-11.3l-17.6-13.67-5.88-5.07-4.28-4-.4-.43m-11.77-13.9l-.53-.77-1.67-2.63-1.5-2.6-1.34-2.56-1.2-2.55-1.1-2.58-.93-2.52" stroke="#5e5e5e" stroke-width="2" stroke-linejoin="round" fill="none"/><path d="M1131 673.5h-2l-.02-1 2-.05z" stroke="#5e5e5e" stroke-width=".05" fill="#5e5e5e"/><path d="M1030.32 523.94l16 19.2-25.12 4.08z" stroke="#5e5e5e" stroke-width="2" fill="#fff"/><defs><path d="M15-91v-56l181-69v40L49-119l147 57v40" id="t"/><path d="M24 0v-248h52V0H24" id="u"/><path d="M135-194c87-1 58 113 63 194h-50c-7-57 23-157-34-157-59 0-34 97-39 157H25l-1-190h47c2 12-1 28 3 38 12-26 28-41 61-42" id="v"/><path d="M115-3C79 11 28 4 28-45v-112H4v-33h27l15-45h31v45h36v33H77v99c-1 23 16 31 38 25v30" id="w"/><path d="M185-48c-13 30-37 53-82 52C43 2 14-33 14-96s30-98 90-98c62 0 83 45 84 108H66c0 31 8 55 39 56 18 0 30-7 34-22zm-45-69c5-46-57-63-70-21-2 6-4 13-4 21h74" id="x"/><path d="M135-150c-39-12-60 13-60 57V0H25l-1-190h47c2 13-1 29 3 40 6-28 27-53 61-41v41" id="y"/><path d="M121-226c-27-7-43 5-38 36h38v33H83V0H34v-157H6v-33h28c-9-59 32-81 87-68v32" id="z"/><path d="M133-34C117-15 103 5 69 4 32 3 11-16 11-54c-1-60 55-63 116-61 1-26-3-47-28-47-18 1-26 9-28 27l-52-2c7-38 36-58 82-57s74 22 75 68l1 82c-1 14 12 18 25 15v27c-30 8-71 5-69-32zm-48 3c29 0 43-24 42-57-32 0-66-3-65 30 0 17 8 27 23 27" id="A"/><path d="M12 0v-35l95-120H19v-35h142v35L67-36h103V0H12" id="B"/><path d="M15-22v-40l146-57-146-57v-40l181 69v56" id="C"/><g id="a"><use transform="matrix(0.05,0,0,0.05,0,0)" xlink:href="#t"/><use transform="matrix(0.05,0,0,0.05,10.5,0)" xlink:href="#t"/><use transform="matrix(0.05,0,0,0.05,21,0)" xlink:href="#u"/><use transform="matrix(0.05,0,0,0.05,26,0)" xlink:href="#v"/><use transform="matrix(0.05,0,0,0.05,36.95,0)" xlink:href="#w"/><use transform="matrix(0.05,0,0,0.05,42.900000000000006,0)" xlink:href="#x"/><use transform="matrix(0.05,0,0,0.05,52.900000000000006,0)" xlink:href="#y"/><use transform="matrix(0.05,0,0,0.05,59.900000000000006,0)" xlink:href="#z"/><use transform="matrix(0.05,0,0,0.05,65.85000000000001,0)" xlink:href="#A"/><use transform="matrix(0.05,0,0,0.05,75.85000000000001,0)" xlink:href="#B"/><use transform="matrix(0.05,0,0,0.05,84.85000000000001,0)" xlink:href="#C"/><use transform="matrix(0.05,0,0,0.05,95.35000000000001,0)" xlink:href="#C"/></g><path d="M240-174c0 40-23 61-54 70L253 0h-59l-57-94H76V0H24v-248c93 4 217-23 216 74zM76-134c48-2 112 12 112-38 0-48-66-32-112-35v73" id="D"/><path d="M24 0v-248h52v208h133V0H24" id="E"/><path d="M25-224v-37h50v37H25zM25 0v-190h50V0H25" id="F"/><path d="M220-157c-53 9-28 100-34 157h-49v-107c1-27-5-49-29-50C55-147 81-57 75 0H25l-1-190h47c2 12-1 28 3 38 10-53 101-56 108 0 13-22 24-43 59-42 82 1 51 116 57 194h-49v-107c-1-25-5-48-29-50" id="G"/><g id="b"><use transform="matrix(0.05,0,0,0.05,0,0)" xlink:href="#D"/><use transform="matrix(0.05,0,0,0.05,12.950000000000001,0)" xlink:href="#A"/><use transform="matrix(0.05,0,0,0.05,22.950000000000003,0)" xlink:href="#w"/><use transform="matrix(0.05,0,0,0.05,28.900000000000002,0)" xlink:href="#x"/><use transform="matrix(0.05,0,0,0.05,38.900000000000006,0)" xlink:href="#E"/><use transform="matrix(0.05,0,0,0.05,49.85000000000001,0)" xlink:href="#F"/><use transform="matrix(0.05,0,0,0.05,54.85,0)" xlink:href="#G"/><use transform="matrix(0.05,0,0,0.05,70.85000000000001,0)" xlink:href="#F"/><use transform="matrix(0.05,0,0,0.05,75.85000000000001,0)" xlink:href="#w"/><use transform="matrix(0.05,0,0,0.05,81.80000000000001,0)" xlink:href="#x"/><use transform="matrix(0.05,0,0,0.05,91.80000000000001,0)" xlink:href="#y"/></g><path d="M524-608H100v-146h424v-428h148v428h424v146H672v428H524v-428" id="H"/><use transform="matrix(0.009765624999999986,0,0,0.009765624999999986,0,0)" xlink:href="#H" id="c"/><path d="M227-1282c-68 2-123-53-121-121-2-68 53-123 121-121 67-2 121 54 119 121 2 66-53 123-119 121zm-90 201h180V0H137v-1081" id="I"/><path d="M602-942c-186 5-280 124-280 315V0H141c-3-361 6-729-6-1081h170c4 34 8 145 8 184h4c72-128 155-204 347-205 233-2 342 149 342 381V0H825v-686c-2-163-60-256-223-256" id="J"/><path d="M578 20C241 16 86-211 86-543c0-341 172-559 492-559 193 0 285 68 383 176L834-811c-75-81-121-130-259-133-210 1-303 175-301 397s78 409 299 406c145-4 208-64 299-131l97 133C878-58 751 23 578 20" id="K"/><path d="M553-926c-179 4-231 168-231 363V0H141c-3-349 6-747-6-1081h170c3 47 8 132 8 180h4c48-136 158-232 336-191l-14 177c-24-7-53-11-86-11" id="L"/><path d="M582 20C248 20 91-208 86-545c-2-232 87-407 230-493 71-43 152-64 241-64 339 3 477 261 453 608H276c8 198 103 359 306 359 146 0 216-64 299-135l98 129C880-56 766 20 582 20zm247-665c-16-185-88-303-272-303-174 0-269 124-278 303h550" id="M"/><path d="M569-942c-164 0-247 139-247 315V0H141c-3-361 6-729-6-1081h170c4 34 8 145 8 184h4c69-137 174-205 316-205 157 0 262 78 297 205 57-116 165-205 327-205 226 0 315 138 314 381V0h-178v-686c-1-171-45-256-199-256-166 0-248 136-248 315V0H768v-686c-1-171-45-256-199-256" id="N"/><path d="M596-8C535 7 490 16 416 16c-168 0-252-82-252-245v-701H31v-151h137l8-224 168-18v242h234v151H344v662c2 93 30 119 123 121 37 0 84-9 113-15" id="O"/><path d="M496 424C267 171 127-90 127-532c0-437 141-700 369-953h174c-222 255-363 522-363 955 0 432 141 702 363 954H496" id="P"/><path d="M137-1485h180v918l465-514h222L565-616 1026 0H811L451-494 317-377V0H137v-1485" id="Q"/><path d="M365 376c-72 55-193 60-297 38l12-146c24 4 48 6 72 6 123 9 229-116 282-278L4-1081h193c109 291 228 574 325 878 113-299 203-578 307-878h191L604 0c-66 163-119 289-239 376" id="R"/><path d="M12 424C234 172 375-98 375-530c0-433-142-701-363-955h174c229 252 369 516 369 957 0 436-141 701-369 952H12" id="S"/><g id="d"><use transform="matrix(0.009765624999999986,0,0,0.009765624999999986,0,0)" xlink:href="#I"/><use transform="matrix(0.009765624999999986,0,0,0.009765624999999986,4.443359374999994,0)" xlink:href="#J"/><use transform="matrix(0.009765624999999986,0,0,0.009765624999999986,15.566406249999979,0)" xlink:href="#K"/><use transform="matrix(0.009765624999999986,0,0,0.009765624999999986,25.371093749999964,0)" xlink:href="#L"/><use transform="matrix(0.009765624999999986,0,0,0.009765624999999986,31.835937499999954,0)" xlink:href="#M"/><use transform="matrix(0.009765624999999986,0,0,0.009765624999999986,42.636718749999936,0)" xlink:href="#N"/><use transform="matrix(0.009765624999999986,0,0,0.009765624999999986,59.296874999999915,0)" xlink:href="#M"/><use transform="matrix(0.009765624999999986,0,0,0.009765624999999986,70.0976562499999,0)" xlink:href="#J"/><use transform="matrix(0.009765624999999986,0,0,0.009765624999999986,81.22070312499989,0)" xlink:href="#O"/><use transform="matrix(0.009765624999999986,0,0,0.009765624999999986,87.28515624999987,0)" xlink:href="#P"/><use transform="matrix(0.009765624999999986,0,0,0.009765624999999986,93.94531249999987,0)" xlink:href="#Q"/><use transform="matrix(0.009765624999999986,0,0,0.009765624999999986,103.74999999999983,0)" xlink:href="#M"/><use transform="matrix(0.009765624999999986,0,0,0.009765624999999986,114.55078124999984,0)" xlink:href="#R"/><use transform="matrix(0.009765624999999986,0,0,0.009765624999999986,124.55078124999983,0)" xlink:href="#S"/></g><path d="M881-299C874-76 703 20 473 20 288 20 135-44 41-147l106-129c85 85 176 143 326 147 121-1 233-37 232-156 1-79-43-117-98-143-201-90-517-89-517-373 0-211 164-296 381-299 153 1 292 59 373 139L741-834c-62-60-160-112-270-114-113 0-205 35-207 139 0 72 49 103 103 125 86 33 266 73 345 114 92 45 173 129 169 271" id="T"/><path d="M-23 215h1184v131H-23V215" id="U"/><path d="M424 20C212 23 86-96 86-301c-4-254 223-334 471-342l215-4c16-182-55-307-221-303-157 4-213 64-309 162L129-905c89-108 231-199 426-197 244 4 391 134 395 373s-7 504 8 729H784c-5-49-8-102-8-160h-4C692-48 608 19 424 20zm41-151c180-3 298-102 307-272v-103c-227 8-495-14-500 207 0 107 81 170 193 168" id="V"/><path d="M510-8c-54 15-95 24-162 24-145 0-217-89-217-266v-1235h180v1196c3 88 5 136 78 142 41-1 59-6 98-15" id="W"/><path d="M565 20C241 20 86-212 86-543c0-333 155-553 485-559 332-3 482 225 482 559-4 336-156 563-488 563zm-2-153c217 0 303-166 301-410 1-240-77-405-291-405-212 0-302 169-299 405 3 229 77 410 289 410" id="X"/><path d="M-2-1081h178c74 310 159 609 225 927 75-314 160-618 240-927h199c76 305 161 618 231 927 68-316 158-619 236-927h178L1174 0H965c-75-311-155-614-226-930C672-609 584-311 508 0H299" id="Y"/><path d="M522 20C215 20 85-217 86-537c3-329 133-565 455-565 150 0 259 64 313 168-4-159-1-382-2-551h180v1262c0 73 2 163 6 223H866c-7-35-10-114-10-162h-4C795-50 682 18 522 20zm27-159c219 0 303-162 303-416 0-241-83-393-289-393-193 0-289 135-289 405 1 228 64 404 275 404" id="Z"/><path d="M854-934c-1-33 4-125 10-147h172c-9 463-2 1028-4 1507H852c2-196-4-398 4-588h-2C785-42 692 20 512 20 205 20 89-217 86-537c-1-229 73-406 208-497 67-45 147-68 238-68 171 0 253 62 322 168zM274-543c1 231 69 399 281 404 84 0 154-31 211-93s86-170 86-323c0-139-26-240-78-301s-121-92-205-92c-219 4-295 169-295 405" id="aa"/><path d="M475 20c-239-1-343-153-342-401v-700h180v665c1 184 53 277 224 277 180 0 280-143 280-330v-612h180c3 360-7 732 7 1081H834c-3-19-10-153-9-178h-4C754-60 654 20 475 20" id="ab"/><g id="e"><use transform="matrix(0.009765624999999986,0,0,0.009765624999999986,0,0)" xlink:href="#I"/><use transform="matrix(0.009765624999999986,0,0,0.009765624999999986,4.443359374999994,0)" xlink:href="#T"/><use transform="matrix(0.009765624999999986,0,0,0.009765624999999986,13.681640624999982,0)" xlink:href="#U"/><use transform="matrix(0.009765624999999986,0,0,0.009765624999999986,24.804687499999964,0)" xlink:href="#V"/><use transform="matrix(0.009765624999999986,0,0,0.009765624999999986,35.48828124999995,0)" xlink:href="#W"/><use transform="matrix(0.009765624999999986,0,0,0.009765624999999986,40.60546874999994,0)" xlink:href="#W"/><use transform="matrix(0.009765624999999986,0,0,0.009765624999999986,45.722656249999936,0)" xlink:href="#X"/><use transform="matrix(0.009765624999999986,0,0,0.009765624999999986,56.84570312499992,0)" xlink:href="#Y"/><use transform="matrix(0.009765624999999986,0,0,0.009765624999999986,71.2890624999999,0)" xlink:href="#M"/><use transform="matrix(0.009765624999999986,0,0,0.009765624999999986,82.08984374999989,0)" xlink:href="#Z"/><use transform="matrix(0.009765624999999986,0,0,0.009765624999999986,93.50585937499987,0)" xlink:href="#P"/><use transform="matrix(0.009765624999999986,0,0,0.009765624999999986,100.16601562499986,0)" xlink:href="#L"/><use transform="matrix(0.009765624999999986,0,0,0.009765624999999986,106.63085937499984,0)" xlink:href="#M"/><use transform="matrix(0.009765624999999986,0,0,0.009765624999999986,117.43164062499983,0)" xlink:href="#aa"/><use transform="matrix(0.009765624999999986,0,0,0.009765624999999986,128.8476562499998,0)" xlink:href="#ab"/><use transform="matrix(0.009765624999999986,0,0,0.009765624999999986,139.97070312499977,0)" xlink:href="#M"/><use transform="matrix(0.009765624999999986,0,0,0.009765624999999986,150.77148437499974,0)" xlink:href="#T"/><use transform="matrix(0.009765624999999986,0,0,0.009765624999999986,160.00976562499974,0)" xlink:href="#O"/><use transform="matrix(0.009765624999999986,0,0,0.009765624999999986,166.07421874999972,0)" xlink:href="#U"/><use transform="matrix(0.009765624999999986,0,0,0.009765624999999986,177.19726562499972,0)" xlink:href="#J"/><use transform="matrix(0.009765624999999986,0,0,0.009765624999999986,188.3203124999997,0)" xlink:href="#X"/><use transform="matrix(0.009765624999999986,0,0,0.009765624999999986,199.44335937499966,0)" xlink:href="#S"/></g><path d="M295-236c161-4 141 226 83 331-28 56-68 116-118 181l-88-65c41-60 86-121 102-199-59-7-102-55-102-121-2-72 52-128 123-127" id="ac"/><g id="f"><use transform="matrix(0.009765624999999986,0,0,0.009765624999999986,0,0)" xlink:href="#O"/><use transform="matrix(0.009765624999999986,0,0,0.009765624999999986,6.064453124999991,0)" xlink:href="#I"/><use transform="matrix(0.009765624999999986,0,0,0.009765624999999986,10.507812499999986,0)" xlink:href="#N"/><use transform="matrix(0.009765624999999986,0,0,0.009765624999999986,27.16796874999996,0)" xlink:href="#M"/><use transform="matrix(0.009765624999999986,0,0,0.009765624999999986,37.96874999999994,0)" xlink:href="#L"/><use transform="matrix(0.009765624999999986,0,0,0.009765624999999986,44.628906249999936,0)" xlink:href="#P"/><use transform="matrix(0.009765624999999986,0,0,0.009765624999999986,51.28906249999993,0)" xlink:href="#Q"/><use transform="matrix(0.009765624999999986,0,0,0.009765624999999986,61.093749999999915,0)" xlink:href="#M"/><use transform="matrix(0.009765624999999986,0,0,0.009765624999999986,71.8945312499999,0)" xlink:href="#R"/><use transform="matrix(0.009765624999999986,0,0,0.009765624999999986,80.41015624999989,0)" xlink:href="#ac"/></g><g id="g"><use transform="matrix(0.009765624999999986,0,0,0.009765624999999986,0,0)" xlink:href="#O"/><use transform="matrix(0.009765624999999986,0,0,0.009765624999999986,6.064453124999991,0)" xlink:href="#I"/><use transform="matrix(0.009765624999999986,0,0,0.009765624999999986,10.507812499999986,0)" xlink:href="#N"/><use transform="matrix(0.009765624999999986,0,0,0.009765624999999986,27.16796874999996,0)" xlink:href="#M"/><use transform="matrix(0.009765624999999986,0,0,0.009765624999999986,37.96874999999994,0)" xlink:href="#S"/></g><path d="M88-194c31-1 46 15 58 34l-1-101h50l1 261h-48c-2-10 0-23-3-31C134-8 116 4 84 4 32 4 16-41 15-95c0-56 19-97 73-99zm17 164c33 0 40-30 41-66 1-37-9-64-41-64s-38 30-39 65c0 43 13 65 39 65" id="ad"/><path d="M137-138c1-29-70-34-71-4 15 46 118 7 119 86 1 83-164 76-172 9l43-7c4 19 20 25 44 25 33 8 57-30 24-41C81-84 22-81 20-136c-2-80 154-74 161-7" id="ae"/><g id="i"><use transform="matrix(0.05,0,0,0.05,0,0)" xlink:href="#D"/><use transform="matrix(0.05,0,0,0.05,12.950000000000001,0)" xlink:href="#x"/><use transform="matrix(0.05,0,0,0.05,22.950000000000003,0)" xlink:href="#ad"/><use transform="matrix(0.05,0,0,0.05,33.900000000000006,0)" xlink:href="#F"/><use transform="matrix(0.05,0,0,0.05,38.900000000000006,0)" xlink:href="#ae"/><use transform="matrix(0.05,0,0,0.05,48.900000000000006,0)" xlink:href="#D"/><use transform="matrix(0.05,0,0,0.05,61.85,0)" xlink:href="#A"/><use transform="matrix(0.05,0,0,0.05,71.85000000000001,0)" xlink:href="#w"/><use transform="matrix(0.05,0,0,0.05,77.80000000000001,0)" xlink:href="#x"/><use transform="matrix(0.05,0,0,0.05,87.80000000000001,0)" xlink:href="#E"/><use transform="matrix(0.05,0,0,0.05,98.75000000000001,0)" xlink:href="#F"/><use transform="matrix(0.05,0,0,0.05,103.75,0)" xlink:href="#G"/><use transform="matrix(0.05,0,0,0.05,119.75,0)" xlink:href="#F"/><use transform="matrix(0.05,0,0,0.05,124.75,0)" xlink:href="#w"/><use transform="matrix(0.05,0,0,0.05,130.70000000000002,0)" xlink:href="#x"/><use transform="matrix(0.05,0,0,0.05,140.70000000000002,0)" xlink:href="#y"/></g><path d="M90-625h502v160H90v-160" id="af"/><use transform="matrix(0.010850694444444432,0,0,0.010850694444444432,0,0)" xlink:href="#af" id="k"/><g id="l"><use transform="matrix(0.010850694444444432,0,0,0.010850694444444432,0,0)" xlink:href="#L"/><use transform="matrix(0.010850694444444432,0,0,0.010850694444444432,7.183159722222214,0)" xlink:href="#M"/><use transform="matrix(0.010850694444444432,0,0,0.010850694444444432,19.184027777777757,0)" xlink:href="#Z"/><use transform="matrix(0.010850694444444432,0,0,0.010850694444444432,31.8684895833333,0)" xlink:href="#I"/><use transform="matrix(0.010850694444444432,0,0,0.010850694444444432,36.805555555555515,0)" xlink:href="#T"/></g><path d="M67-125c0 53 21 87 73 88 37 1 54-22 65-47l45 17C233-25 199 4 140 4 58 4 20-42 15-125 8-235 124-281 211-232c18 10 29 29 36 50l-46 12c-8-25-30-41-62-41-52 0-71 34-72 86" id="ag"/><path d="M110-194c64 0 96 36 96 99 0 64-35 99-97 99-61 0-95-36-95-99 0-62 34-99 96-99zm-1 164c35 0 45-28 45-65 0-40-10-65-43-65-34 0-45 26-45 65 0 36 10 65 43 65" id="ah"/><path d="M190-63c-7 42-38 67-86 67-59 0-84-38-90-98-12-110 154-137 174-36l-49 2c-2-19-15-32-35-32-30 0-35 28-38 64-6 74 65 87 74 30" id="ai"/><g id="m"><use transform="matrix(0.05,0,0,0.05,0,0)" xlink:href="#D"/><use transform="matrix(0.05,0,0,0.05,12.950000000000001,0)" xlink:href="#x"/><use transform="matrix(0.05,0,0,0.05,22.950000000000003,0)" xlink:href="#ad"/><use transform="matrix(0.05,0,0,0.05,33.900000000000006,0)" xlink:href="#F"/><use transform="matrix(0.05,0,0,0.05,38.900000000000006,0)" xlink:href="#ae"/><use transform="matrix(0.05,0,0,0.05,48.900000000000006,0)" xlink:href="#ag"/><use transform="matrix(0.05,0,0,0.05,61.85,0)" xlink:href="#ah"/><use transform="matrix(0.05,0,0,0.05,72.80000000000001,0)" xlink:href="#v"/><use transform="matrix(0.05,0,0,0.05,83.75000000000001,0)" xlink:href="#v"/><use transform="matrix(0.05,0,0,0.05,94.70000000000002,0)" xlink:href="#x"/><use transform="matrix(0.05,0,0,0.05,104.7,0)" xlink:href="#ai"/><use transform="matrix(0.05,0,0,0.05,114.7,0)" xlink:href="#w"/><use transform="matrix(0.05,0,0,0.05,120.65000000000003,0)" xlink:href="#ah"/><use transform="matrix(0.05,0,0,0.05,131.60000000000002,0)" xlink:href="#y"/></g><g id="n"><use transform="matrix(0.009765624999999986,0,0,0.009765624999999986,0,0)" xlink:href="#I"/><use transform="matrix(0.009765624999999986,0,0,0.009765624999999986,4.443359374999994,0)" xlink:href="#J"/><use transform="matrix(0.009765624999999986,0,0,0.009765624999999986,15.566406249999979,0)" xlink:href="#K"/><use transform="matrix(0.009765624999999986,0,0,0.009765624999999986,25.371093749999964,0)" xlink:href="#L"/></g><path d="M406-555L41-1081h203l266 415 264-415h205L614-557 1001 0H797L510-440 223 0H23" id="aj"/><path d="M313-147c8 182 2 384 4 573H137V-860c0-67-2-168-6-221h174c4 23 11 121 10 153h4c70-116 183-174 338-174 309 7 426 241 426 555 0 318-122 567-436 567-147 0-280-61-328-167h-6zm305 14c206 0 277-187 277-410 0-217-72-396-274-399-87 0-159 32-217 94s-87 169-87 320c-4 237 93 395 301 395" id="ak"/><g id="o"><use transform="matrix(0.009765624999999986,0,0,0.009765624999999986,0,0)" xlink:href="#M"/><use transform="matrix(0.009765624999999986,0,0,0.009765624999999986,10.800781249999984,0)" xlink:href="#aj"/><use transform="matrix(0.009765624999999986,0,0,0.009765624999999986,20.80078124999997,0)" xlink:href="#ak"/><use transform="matrix(0.009765624999999986,0,0,0.009765624999999986,32.21679687499996,0)" xlink:href="#I"/><use transform="matrix(0.009765624999999986,0,0,0.009765624999999986,36.66015624999995,0)" xlink:href="#L"/><use transform="matrix(0.009765624999999986,0,0,0.009765624999999986,43.12499999999995,0)" xlink:href="#M"/><use transform="matrix(0.009765624999999986,0,0,0.009765624999999986,53.92578124999993,0)" xlink:href="#T"/></g><g id="p"><use transform="matrix(0.009765624999999986,0,0,0.009765624999999986,0,0)" xlink:href="#T"/><use transform="matrix(0.009765624999999986,0,0,0.009765624999999986,9.238281249999988,0)" xlink:href="#M"/><use transform="matrix(0.009765624999999986,0,0,0.009765624999999986,20.03906249999997,0)" xlink:href="#O"/></g><path d="M341-374c-19 23-31 35-32 73 1 69 59 87 123 99 96 16 341 22 421 44 125 28 225 103 220 264 0 105-45 185-135 239s-222 81-395 81c-164 0-284-22-361-66S66 247 66 156C66 32 135-21 218-86c-51-35-77-87-77-156 1-88 48-148 101-189-75-61-125-156-125-286 0-247 166-382 424-385 97 0 179 19 246 57 62-81 127-136 260-137l10 181c-72 0-131 11-178 33 51 61 82 145 82 251 0 242-173 373-426 377-71 0-136-11-194-34zm202-587c-147-2-242 97-242 244 0 149 89 236 231 236 150-3 240-88 244-236 2-145-89-246-233-244zM322-42c-47 56-80 85-80 171 0 149 151 150 311 154 111 0 193-16 249-37 79-29 119-157 46-208C740-38 481 0 322-42" id="al"/><g id="q"><use transform="matrix(0.009765624999999986,0,0,0.009765624999999986,0,0)" xlink:href="#al"/><use transform="matrix(0.009765624999999986,0,0,0.009765624999999986,10.683593749999984,0)" xlink:href="#M"/><use transform="matrix(0.009765624999999986,0,0,0.009765624999999986,21.484374999999968,0)" xlink:href="#O"/></g><path d="M25 0v-261h50V0H25" id="am"/><g id="r"><use transform="matrix(0.05,0,0,0.05,0,0)" xlink:href="#D"/><use transform="matrix(0.05,0,0,0.05,12.950000000000001,0)" xlink:href="#x"/><use transform="matrix(0.05,0,0,0.05,22.950000000000003,0)" xlink:href="#ad"/><use transform="matrix(0.05,0,0,0.05,33.900000000000006,0)" xlink:href="#F"/><use transform="matrix(0.05,0,0,0.05,38.900000000000006,0)" xlink:href="#ae"/><use transform="matrix(0.05,0,0,0.05,48.900000000000006,0)" xlink:href="#ag"/><use transform="matrix(0.05,0,0,0.05,61.85,0)" xlink:href="#am"/><use transform="matrix(0.05,0,0,0.05,66.85000000000001,0)" xlink:href="#F"/><use transform="matrix(0.05,0,0,0.05,71.85000000000001,0)" xlink:href="#x"/><use transform="matrix(0.05,0,0,0.05,81.85000000000001,0)" xlink:href="#v"/><use transform="matrix(0.05,0,0,0.05,92.80000000000001,0)" xlink:href="#w"/></g><path d="M85 4C-2 5 27-109 22-190h50c7 57-23 150 33 157 60-5 35-97 40-157h50l1 190h-47c-2-12 1-28-3-38-12 25-28 42-61 42" id="an"/><g id="s"><use transform="matrix(0.05,0,0,0.05,0,0)" xlink:href="#D"/><use transform="matrix(0.05,0,0,0.05,12.950000000000001,0)" xlink:href="#x"/><use transform="matrix(0.05,0,0,0.05,22.950000000000003,0)" xlink:href="#ad"/><use transform="matrix(0.05,0,0,0.05,33.900000000000006,0)" xlink:href="#F"/><use transform="matrix(0.05,0,0,0.05,38.900000000000006,0)" xlink:href="#ae"/><use transform="matrix(0.05,0,0,0.05,48.900000000000006,0)" xlink:href="#ag"/><use transform="matrix(0.05,0,0,0.05,61.85,0)" xlink:href="#am"/><use transform="matrix(0.05,0,0,0.05,66.85000000000001,0)" xlink:href="#an"/><use transform="matrix(0.05,0,0,0.05,77.80000000000001,0)" xlink:href="#ae"/><use transform="matrix(0.05,0,0,0.05,87.80000000000001,0)" xlink:href="#w"/><use transform="matrix(0.05,0,0,0.05,93.75000000000001,0)" xlink:href="#x"/><use transform="matrix(0.05,0,0,0.05,103.75,0)" xlink:href="#y"/></g></defs></g></svg>