<svg xmlns="http://www.w3.org/2000/svg" xmlns:xlink="http://www.w3.org/1999/xlink" xmlns:lucid="lucid" width="840" height="652"><g transform="translate(-409 -1494)" lucid:page-tab-id="w.GNWPnb0jZa"><path d="M435.43 1526a6 6 0 0 1 6-6H1214a6 6 0 0 1 6 6v588a6 6 0 0 1-6 6H441.43a6 6 0 0 1-6-6z" fill-opacity="0"/><path d="M498.66 1520h57.23m28.6 0h57.23m28.6 0h57.24m28.6 0h57.24m28.62 0h57.23m28.6 0h57.24m28.6 0h57.23m28.62 0h57.22m28.62 0h28.6l.94.07.9.22.88.35.8.5.72.6.6.72.5.8.37.88.23.9.07.95v28m0 28v56m0 28v56m0 28v56m0 28v56m0 28v56m0 28v56m0 28v28l-.07.94-.22.9-.35.88-.5.8-.6.72-.72.6-.8.5-.88.37-.9.23-.95.07h-28.6m-28.63 0h-57.22m-28.62 0h-57.23m-28.6 0h-57.24m-28.6 0H842m-28.6 0h-57.24m-28.6 0h-57.24m-28.6 0H584.5m-28.6 0h-57.24m-28.6 0h-28.63l-.94-.07-.92-.22-.87-.35-.8-.5-.7-.6-.62-.72-.5-.8-.35-.88-.22-.9-.07-.95v-28m0-28v-56m0-28v-56m0-28v-56m0-28v-56m0-28v-56m0-28v-56m0-28v-28l.08-.94.23-.9.36-.88.48-.8.6-.72.73-.6.8-.5.88-.37.9-.23.95-.07h28.62" stroke="#6f7681" stroke-width="3" fill="none"/><path d="M520.6 1677.5a11 11 0 0 1 9.25-5.04h258.2a3.34 3.34 0 0 1 2.83 5.1l-30.94 49.8a94.47 94.47 0 0 0-5.66 10.55l-27.02 59.1a9.34 9.34 0 0 1-8.5 5.46H446a3.27 3.27 0 0 1-2.75-5.05z" stroke="#a35d00" stroke-width="3" fill="#fff3b8"/><use xlink:href="#a" transform="matrix(1,0,0,1,440,1672.4561403508771) translate(58.833333333333385 72.11111111111111)"/><path d="M543.96 1757.82a9.7 9.7 0 0 1 8.7-5.36h197.48a3.77 3.77 0 0 1 3.4 5.4l-23.7 49.2a110.97 110.97 0 0 0-4.6 11.05l-20.8 58.7a8.5 8.5 0 0 1-8.02 5.66h-208.8a3.7 3.7 0 0 1-3.3-5.37z" stroke="#a35d00" stroke-width="3" fill="#fff3b8"/><use xlink:href="#b" transform="matrix(1,0,0,1,481.6326530612246,1752.4561403508771) translate(48.858024691358054 72.11111111111111)"/><path d="M543.3 1845.52a10.52 10.52 0 0 1 9.06-5.17h197.5a3.5 3.5 0 0 1 3.03 5.22l-22.97 40.34a99.4 99.4 0 0 0-5.3 10.75l-20.18 48.17a9.02 9.02 0 0 1-8.32 5.53h-208.8a3.42 3.42 0 0 1-2.93-5.16z" stroke="#a35d00" stroke-width="3" fill="#fff3b8"/><use xlink:href="#c" transform="matrix(1,0,0,1,481.34388401029685,1840.3508771929824) translate(89.3024691358025 62.11111111111111)"/><path d="M542.9 1937.36a11.58 11.58 0 0 1 9.46-4.9h197.5a3.18 3.18 0 0 1 2.62 4.96L730.33 1970a90.14 90.14 0 0 0-6.06 10.33l-19.45 38.87a9.7 9.7 0 0 1-8.7 5.36H487.36a3.1 3.1 0 0 1-2.54-4.9z" stroke="#a35d00" stroke-width="3" fill="#fff3b8"/><use xlink:href="#d" transform="matrix(1,0,0,1,481.34388401029685,1932.4561403508771) translate(94.24074074074076 53.61111111111111)"/><path d="M440 1546a6 6 0 0 1 6-6h199.2a6 6 0 0 1 6 6v61.33a6 6 0 0 1-6 6H446a6 6 0 0 1-6-6z" stroke="#000" stroke-opacity="0" stroke-width="3" fill="#fff" fill-opacity="0"/><use xlink:href="#e" transform="matrix(1,0,0,1,445,1545) translate(19.703703703703738 39.55555555555554)"/><path d="M855.98 1580h231.37l57.85 57.84V2080H855.98z" stroke="#a35d00" stroke-width="3" fill="#fff3b8"/><path d="M1087.35 1581.43v56.4h56.42" stroke="#a35d00" stroke-width="3" fill="#fff3b8"/><path d="M907.83 1770.9a6 6 0 0 1 6-6h174.28a6 6 0 0 1 6 6v91.17a6 6 0 0 1-6 6H913.84a6 6 0 0 1-6-6z" stroke="#0057d2" stroke-width="3" fill="#d1efff"/><use xlink:href="#f" transform="matrix(1,0,0,1,912.8328260438037,1769.9122807017543) translate(34.16666666666669 55.499999999999986)"/><path d="M1069 1945.6c0 32.57-31.77 58.96-70.96 58.96-39.2 0-70.96-26.4-70.96-58.95 0-32.54 31.77-58.93 70.96-58.93 39.2 0 70.96 26.4 70.96 58.94z" stroke="#0057d2" stroke-width="3" fill="#d1efff"/><path d="M882.94 1642.58a6 6 0 0 1 6-6h223.3a6 6 0 0 1 6 6v48a6 6 0 0 1-6 6h-223.3a6 6 0 0 1-6-6z" stroke="#000" stroke-opacity="0" stroke-width="2" fill="#fff" fill-opacity="0"/><use xlink:href="#g" transform="matrix(1,0,0,1,887.9411764705885,1641.578947368421) translate(14.419753086419789 38.68055555555554)"/><path d="M1069 1965.6c0 32.57-31.77 58.96-70.96 58.96-39.2 0-70.96-26.4-70.96-58.95 0-32.54 31.77-58.93 70.96-58.93 39.2 0 70.96 26.4 70.96 58.94z" stroke="#0057d2" stroke-width="3" fill="#d1efff"/><path d="M1069 1985.6c0 32.57-31.77 58.96-70.96 58.96-39.2 0-70.96-26.4-70.96-58.95 0-32.54 31.77-58.93 70.96-58.93 39.2 0 70.96 26.4 70.96 58.94z" stroke="#0057d2" stroke-width="3" fill="#d1efff"/><use xlink:href="#h" transform="matrix(1,0,0,1,932.0774976657332,1931.6666666666667) translate(8.918580246913608 62.19444444444443)"/><path d="M835.98 1830H723.62" stroke="#5e5e5e" stroke-width="2" fill="none"/><path d="M851.24 1830l-14.26 4.63v-9.27z" stroke="#5e5e5e" stroke-width="2" fill="#5e5e5e"/><path d="M723.64 1831h-1.38l.7-2h.68z" stroke="#5e5e5e" stroke-width=".05" fill="#5e5e5e"/><defs><path fill="#a35d00" d="M115-3C79 11 28 4 28-45v-112H4v-33h27l15-45h31v45h36v33H77v99c-1 23 16 31 38 25v30" id="i"/><path fill="#a35d00" d="M110-194c64 0 96 36 96 99 0 64-35 99-97 99-61 0-95-36-95-99 0-62 34-99 96-99zm-1 164c35 0 45-28 45-65 0-40-10-65-43-65-34 0-45 26-45 65 0 36 10 65 43 65" id="j"/><path fill="#a35d00" d="M195-6C206 82 75 100 31 46c-4-6-6-13-8-21l49-6c3 16 16 24 34 25 40 0 42-37 40-79-11 22-30 35-61 35-53 0-70-43-70-97 0-56 18-96 73-97 30 0 46 14 59 34l2-30h47zm-90-29c32 0 41-27 41-63 0-35-9-62-40-62-32 0-39 29-40 63 0 36 9 62 39 62" id="k"/><path fill="#a35d00" d="M25 0v-261h50V0H25" id="l"/><path fill="#a35d00" d="M185-48c-13 30-37 53-82 52C43 2 14-33 14-96s30-98 90-98c62 0 83 45 84 108H66c0 31 8 55 39 56 18 0 30-7 34-22zm-45-69c5-46-57-63-70-21-2 6-4 13-4 21h74" id="m"/><path fill="#a35d00" d="M147 0H94L2-248h55l64 206c17-72 42-137 63-206h54" id="n"/><path fill="#a35d00" d="M25-224v-37h50v37H25zM25 0v-190h50V0H25" id="o"/><path fill="#a35d00" d="M135-194c87-1 58 113 63 194h-50c-7-57 23-157-34-157-59 0-34 97-39 157H25l-1-190h47c2 12-1 28 3 38 12-26 28-41 61-42" id="p"/><path fill="#a35d00" d="M67-93c0 74 22 123 53 168H70C40 30 18-18 18-93s22-123 52-168h50c-32 44-53 94-53 168" id="q"/><path fill="#a35d00" d="M102-93c0 74-22 123-52 168H0C30 29 54-18 53-93c0-74-22-123-53-168h50c30 45 52 94 52 168" id="r"/><g id="a"><use transform="matrix(0.09876543209876537,0,0,0.09876543209876537,0,0)" xlink:href="#i"/><use transform="matrix(0.09876543209876537,0,0,0.09876543209876537,11.75308641975308,0)" xlink:href="#j"/><use transform="matrix(0.09876543209876537,0,0,0.09876543209876537,33.382716049382694,0)" xlink:href="#k"/><use transform="matrix(0.09876543209876537,0,0,0.09876543209876537,55.01234567901231,0)" xlink:href="#k"/><use transform="matrix(0.09876543209876537,0,0,0.09876543209876537,76.64197530864193,0)" xlink:href="#l"/><use transform="matrix(0.09876543209876537,0,0,0.09876543209876537,86.51851851851848,0)" xlink:href="#m"/><use transform="matrix(0.09876543209876537,0,0,0.09876543209876537,106.27160493827157,0)" xlink:href="#n"/><use transform="matrix(0.09876543209876537,0,0,0.09876543209876537,127.30864197530859,0)" xlink:href="#j"/><use transform="matrix(0.09876543209876537,0,0,0.09876543209876537,148.9382716049382,0)" xlink:href="#i"/><use transform="matrix(0.09876543209876537,0,0,0.09876543209876537,160.69135802469128,0)" xlink:href="#o"/><use transform="matrix(0.09876543209876537,0,0,0.09876543209876537,170.5679012345678,0)" xlink:href="#p"/><use transform="matrix(0.09876543209876537,0,0,0.09876543209876537,192.19753086419743,0)" xlink:href="#k"/><use transform="matrix(0.09876543209876537,0,0,0.09876543209876537,213.82716049382708,0)" xlink:href="#q"/><use transform="matrix(0.09876543209876537,0,0,0.09876543209876537,225.58024691358014,0)" xlink:href="#r"/></g><path fill="#a35d00" d="M137-138c1-29-70-34-71-4 15 46 118 7 119 86 1 83-164 76-172 9l43-7c4 19 20 25 44 25 33 8 57-30 24-41C81-84 22-81 20-136c-2-80 154-74 161-7" id="s"/><path fill="#a35d00" d="M190-63c-7 42-38 67-86 67-59 0-84-38-90-98-12-110 154-137 174-36l-49 2c-2-19-15-32-35-32-30 0-35 28-38 64-6 74 65 87 74 30" id="t"/><path fill="#a35d00" d="M114-157C55-157 80-60 75 0H25v-261h50l-1 109c12-26 28-41 61-42 86-1 58 113 63 194h-50c-7-57 23-157-34-157" id="u"/><path fill="#a35d00" d="M88-194c31-1 46 15 58 34l-1-101h50l1 261h-48c-2-10 0-23-3-31C134-8 116 4 84 4 32 4 16-41 15-95c0-56 19-97 73-99zm17 164c33 0 40-30 41-66 1-37-9-64-41-64s-38 30-39 65c0 43 13 65 39 65" id="v"/><path fill="#a35d00" d="M85 4C-2 5 27-109 22-190h50c7 57-23 150 33 157 60-5 35-97 40-157h50l1 190h-47c-2-12 1-28-3-38-12 25-28 42-61 42" id="w"/><g id="b"><use transform="matrix(0.09876543209876537,0,0,0.09876543209876537,0,0)" xlink:href="#s"/><use transform="matrix(0.09876543209876537,0,0,0.09876543209876537,19.753086419753075,0)" xlink:href="#t"/><use transform="matrix(0.09876543209876537,0,0,0.09876543209876537,39.50617283950615,0)" xlink:href="#u"/><use transform="matrix(0.09876543209876537,0,0,0.09876543209876537,61.13580246913576,0)" xlink:href="#m"/><use transform="matrix(0.09876543209876537,0,0,0.09876543209876537,80.88888888888884,0)" xlink:href="#v"/><use transform="matrix(0.09876543209876537,0,0,0.09876543209876537,102.51851851851846,0)" xlink:href="#w"/><use transform="matrix(0.09876543209876537,0,0,0.09876543209876537,124.14814814814807,0)" xlink:href="#l"/><use transform="matrix(0.09876543209876537,0,0,0.09876543209876537,134.02469135802463,0)" xlink:href="#m"/><use transform="matrix(0.09876543209876537,0,0,0.09876543209876537,153.77777777777771,0)" xlink:href="#q"/><use transform="matrix(0.09876543209876537,0,0,0.09876543209876537,165.5308641975308,0)" xlink:href="#r"/></g><path fill="#a35d00" d="M128 0H69L1-190h53L99-40l48-150h52" id="x"/><g id="c"><use transform="matrix(0.09876543209876537,0,0,0.09876543209876537,0,0)" xlink:href="#x"/><use transform="matrix(0.09876543209876537,0,0,0.09876543209876537,19.753086419753075,0)" xlink:href="#j"/><use transform="matrix(0.09876543209876537,0,0,0.09876543209876537,41.382716049382694,0)" xlink:href="#i"/><use transform="matrix(0.09876543209876537,0,0,0.09876543209876537,53.13580246913578,0)" xlink:href="#m"/><use transform="matrix(0.09876543209876537,0,0,0.09876543209876537,72.88888888888886,0)" xlink:href="#q"/><use transform="matrix(0.09876543209876537,0,0,0.09876543209876537,84.64197530864193,0)" xlink:href="#r"/></g><path fill="#a35d00" d="M25-224v-37h50v37H25zM75 22c2 45-34 59-81 51V38c22 5 31-5 31-27v-201h50V22" id="y"/><g id="d"><use transform="matrix(0.09876543209876537,0,0,0.09876543209876537,0,0)" xlink:href="#y"/><use transform="matrix(0.09876543209876537,0,0,0.09876543209876537,9.876543209876537,0)" xlink:href="#j"/><use transform="matrix(0.09876543209876537,0,0,0.09876543209876537,31.506172839506153,0)" xlink:href="#o"/><use transform="matrix(0.09876543209876537,0,0,0.09876543209876537,41.382716049382694,0)" xlink:href="#p"/><use transform="matrix(0.09876543209876537,0,0,0.09876543209876537,63.01234567901232,0)" xlink:href="#q"/><use transform="matrix(0.09876543209876537,0,0,0.09876543209876537,74.76543209876539,0)" xlink:href="#r"/></g><path fill="#333" d="M24-248c120-7 223 5 221 122C244-46 201 0 124 0H24v-248zM76-40c74 7 117-18 117-86 0-67-45-88-117-82v168" id="z"/><path fill="#333" d="M110-194c64 0 96 36 96 99 0 64-35 99-97 99-61 0-95-36-95-99 0-62 34-99 96-99zm-1 164c35 0 45-28 45-65 0-40-10-65-43-65-34 0-45 26-45 65 0 36 10 65 43 65" id="A"/><path fill="#333" d="M220-157c-53 9-28 100-34 157h-49v-107c1-27-5-49-29-50C55-147 81-57 75 0H25l-1-190h47c2 12-1 28 3 38 10-53 101-56 108 0 13-22 24-43 59-42 82 1 51 116 57 194h-49v-107c-1-25-5-48-29-50" id="B"/><path fill="#333" d="M133-34C117-15 103 5 69 4 32 3 11-16 11-54c-1-60 55-63 116-61 1-26-3-47-28-47-18 1-26 9-28 27l-52-2c7-38 36-58 82-57s74 22 75 68l1 82c-1 14 12 18 25 15v27c-30 8-71 5-69-32zm-48 3c29 0 43-24 42-57-32 0-66-3-65 30 0 17 8 27 23 27" id="C"/><path fill="#333" d="M25-224v-37h50v37H25zM25 0v-190h50V0H25" id="D"/><path fill="#333" d="M135-194c87-1 58 113 63 194h-50c-7-57 23-157-34-157-59 0-34 97-39 157H25l-1-190h47c2 12-1 28 3 38 12-26 28-41 61-42" id="E"/><g id="e"><use transform="matrix(0.12345679012345674,0,0,0.12345679012345674,0,0)" xlink:href="#z"/><use transform="matrix(0.12345679012345674,0,0,0.12345679012345674,31.975308641975296,0)" xlink:href="#A"/><use transform="matrix(0.12345679012345674,0,0,0.12345679012345674,59.01234567901233,0)" xlink:href="#B"/><use transform="matrix(0.12345679012345674,0,0,0.12345679012345674,98.51851851851848,0)" xlink:href="#C"/><use transform="matrix(0.12345679012345674,0,0,0.12345679012345674,123.20987654320982,0)" xlink:href="#D"/><use transform="matrix(0.12345679012345674,0,0,0.12345679012345674,135.5555555555555,0)" xlink:href="#E"/></g><path fill="#0057d2" d="M24 0v-248h195v40H76v63h132v40H76v65h150V0H24" id="F"/><path fill="#0057d2" d="M128 0H69L1-190h53L99-40l48-150h52" id="G"/><path fill="#0057d2" d="M185-48c-13 30-37 53-82 52C43 2 14-33 14-96s30-98 90-98c62 0 83 45 84 108H66c0 31 8 55 39 56 18 0 30-7 34-22zm-45-69c5-46-57-63-70-21-2 6-4 13-4 21h74" id="H"/><path fill="#0057d2" d="M135-194c87-1 58 113 63 194h-50c-7-57 23-157-34-157-59 0-34 97-39 157H25l-1-190h47c2 12-1 28 3 38 12-26 28-41 61-42" id="I"/><path fill="#0057d2" d="M115-3C79 11 28 4 28-45v-112H4v-33h27l15-45h31v45h36v33H77v99c-1 23 16 31 38 25v30" id="J"/><g id="f"><use transform="matrix(0.11111111111111105,0,0,0.11111111111111105,0,0)" xlink:href="#F"/><use transform="matrix(0.11111111111111105,0,0,0.11111111111111105,26.66666666666665,0)" xlink:href="#G"/><use transform="matrix(0.11111111111111105,0,0,0.11111111111111105,48.88888888888886,0)" xlink:href="#H"/><use transform="matrix(0.11111111111111105,0,0,0.11111111111111105,71.11111111111107,0)" xlink:href="#I"/><use transform="matrix(0.11111111111111105,0,0,0.11111111111111105,95.4444444444444,0)" xlink:href="#J"/></g><path fill="#a35d00" d="M169-182c-1-43-94-46-97-3 18 66 151 10 154 114 3 95-165 93-204 36-6-8-10-19-12-30l50-8c3 46 112 56 116 5-17-69-150-10-154-114-4-87 153-88 188-35 5 8 8 18 10 28" id="K"/><g id="g"><use transform="matrix(0.12345679012345674,0,0,0.12345679012345674,0,0)" xlink:href="#K"/><use transform="matrix(0.12345679012345674,0,0,0.12345679012345674,29.62962962962962,0)" xlink:href="#t"/><use transform="matrix(0.12345679012345674,0,0,0.12345679012345674,54.320987654320966,0)" xlink:href="#u"/><use transform="matrix(0.12345679012345674,0,0,0.12345679012345674,81.358024691358,0)" xlink:href="#m"/><use transform="matrix(0.12345679012345674,0,0,0.12345679012345674,106.04938271604934,0)" xlink:href="#v"/><use transform="matrix(0.12345679012345674,0,0,0.12345679012345674,133.08641975308637,0)" xlink:href="#w"/><use transform="matrix(0.12345679012345674,0,0,0.12345679012345674,160.1234567901234,0)" xlink:href="#l"/><use transform="matrix(0.12345679012345674,0,0,0.12345679012345674,172.46913580246908,0)" xlink:href="#m"/></g><path fill="#0057d2" d="M140-251c80 0 125 45 125 126S219 4 139 4C58 4 15-44 15-125s44-126 125-126zm-1 214c52 0 73-35 73-88 0-50-21-86-72-86-52 0-73 35-73 86s22 88 72 88" id="L"/><path fill="#0057d2" d="M135-194c53 0 70 44 70 98 0 56-19 98-73 100-31 1-45-17-59-34 3 33 2 69 2 105H25l-1-265h48c2 10 0 23 3 31 11-24 29-35 60-35zM114-30c33 0 39-31 40-66 0-38-9-64-40-64-56 0-55 130 0 130" id="M"/><path fill="#0057d2" d="M25-224v-37h50v37H25zM25 0v-190h50V0H25" id="N"/><path fill="#0057d2" d="M110-194c64 0 96 36 96 99 0 64-35 99-97 99-61 0-95-36-95-99 0-62 34-99 96-99zm-1 164c35 0 45-28 45-65 0-40-10-65-43-65-34 0-45 26-45 65 0 36 10 65 43 65" id="O"/><g id="h"><use transform="matrix(0.09876543209876537,0,0,0.09876543209876537,0,0)" xlink:href="#L"/><use transform="matrix(0.09876543209876537,0,0,0.09876543209876537,27.654320987654305,0)" xlink:href="#M"/><use transform="matrix(0.09876543209876537,0,0,0.09876543209876537,49.28395061728392,0)" xlink:href="#J"/><use transform="matrix(0.09876543209876537,0,0,0.09876543209876537,61.037037037037,0)" xlink:href="#N"/><use transform="matrix(0.09876543209876537,0,0,0.09876543209876537,70.91358024691354,0)" xlink:href="#O"/><use transform="matrix(0.09876543209876537,0,0,0.09876543209876537,92.54320987654316,0)" xlink:href="#I"/></g></defs></g></svg>