<svg xmlns="http://www.w3.org/2000/svg" xmlns:xlink="http://www.w3.org/1999/xlink" xmlns:lucid="lucid" width="1105" height="945"><g transform="translate(1648 -125)" lucid:page-tab-id="XOINCOsildRM"><path d="M-1355.65 836.9a6 6 0 0 1 6-6h116.24a6 6 0 0 1 6 6v43.85a6 6 0 0 1-6 6h-116.25a6 6 0 0 1-6-6zM-1237.27 969.16c0 22.37-24.3 40.5-54.26 40.5-29.96 0-54.26-18.13-54.26-40.5s24.3-40.5 54.27-40.5c29.96 0 54.26 18.13 54.26 40.5zM-1552.12 891.9a10.63 10.63 0 0 1 9.1-5.15h119.82a3.45 3.45 0 0 1 3 5.2l-12.17 20.9a98.15 98.15 0 0 0-5.37 10.7l-10.9 25.47a9.1 9.1 0 0 1-8.36 5.52h-126.93a3.4 3.4 0 0 1-2.9-5.14z" stroke="#0057d2" stroke-width="3" fill="#d1efff"/><path d="M-1537.73 897.1a10.63 10.63 0 0 1 9.1-5.13h119.83a3.45 3.45 0 0 1 2.98 5.2l-12.15 20.9a98.15 98.15 0 0 0-5.38 10.7l-10.9 25.47a9.1 9.1 0 0 1-8.36 5.5h-126.94a3.4 3.4 0 0 1-2.9-5.13z" stroke="#0057d2" stroke-width="3" fill="#d1efff"/><path d="M-1523.34 902.32a10.63 10.63 0 0 1 9.1-5.14h119.83a3.45 3.45 0 0 1 2.98 5.2l-12.16 20.9a98.15 98.15 0 0 0-5.37 10.7l-10.9 25.47a9.1 9.1 0 0 1-8.36 5.52h-126.94a3.4 3.4 0 0 1-2.9-5.14z" stroke="#0057d2" stroke-width="3" fill="#d1efff"/><path d="M-1484.35 884.25l.02-1.13.12-1.94.17-1.75.24-1.6.3-1.48.3-1.37.37-1.27.38-1.18.42-1.1.44-1.07.48-1 .5-.95.52-.9.55-.87.58-.84.6-.8.66-.8.67-.74.7-.74.77-.7.8-.7.87-.7.93-.66 1-.65 1.06-.64 1.14-.63 1.25-.62 1.36-.6 1.52-.6 1.67-.6 1.88-.55 2.12-.54 2.4-.5 2.8-.48 3.3-.4 3.97-.34 4.92-.2h6.4l9.16.4 18.58 1.64 32.8 3.22" stroke="#5e5e5e" stroke-width="2" stroke-linejoin="round" fill="none"/><path d="M-1483.35 884.25l-.02 1h-2l.02-1.04z" stroke="#5e5e5e" stroke-width=".05" fill="#5e5e5e"/><path d="M-1360.38 858.65l-14.5 3.87.5-9.25z" stroke="#5e5e5e" stroke-width="2" fill="#5e5e5e"/><path d="M-1291.53 889.25v19.4" stroke="#5e5e5e" stroke-width="2" stroke-linejoin="round" fill="none"/><path d="M-1290.53 889.28h-2v-1.03h2z" stroke="#5e5e5e" stroke-width=".05" fill="#5e5e5e"/><path d="M-1291.53 923.92l-4.63-14.27h9.27z" stroke="#5e5e5e" stroke-width="2" fill="#5e5e5e"/><path d="M-1620 766.67a6 6 0 0 1 6-6h451.84a6 6 0 0 1 6 6v253.36a6 6 0 0 1-6 6H-1614a6 6 0 0 1-6-6z" fill-opacity="0"/><path d="M-1553.75 760.67h60.24m30.1 0h60.26m30.12 0h60.25m30.12 0h60.25m30.12 0h30.12l.94.07.92.22.87.36.8.5.7.6.63.72.5.8.35.87.22.93.07.94v28.15m0 28.15v56.3m0 28.15v56.3m0 28.16v28.15l-.07.94-.22.9-.36.88-.5.8-.62.72-.7.6-.8.5-.88.37-.92.2-.94.1h-30.12m-30.12 0h-60.25m-30.12 0h-60.25m-30.12 0h-60.25m-30.1 0h-60.25m-30.13 0H-1614l-.94-.1-.9-.2-.88-.37-.8-.5-.72-.6-.6-.72-.5-.8-.37-.87-.23-.9-.07-.95v-28.15m0-28.15v-56.3m0-28.16v-56.3m0-28.15v-28.15l.07-.94.22-.92.35-.86.5-.8.6-.7.72-.63.8-.48.88-.36.9-.22.95-.07h30.12" stroke="#6f7681" stroke-width="3" fill="none"/><path d="M-1620 766.67a6 6 0 0 1 6-6h200.52a6 6 0 0 1 6 6v39.2a6 6 0 0 1-6 6H-1614a6 6 0 0 1-6-6z" stroke="#000" stroke-opacity="0" stroke-width="3" fill="#fff" fill-opacity="0"/><use xlink:href="#a" transform="matrix(1,0,0,1,-1614.9999999999998,765.6683199880522) translate(20.203703703703738 38.18055555555554)"/><path d="M-1078.55 766.67a6 6 0 0 1 6-6h478.13a6 6 0 0 1 6 6v253.36a6 6 0 0 1-6 6h-478.13a6 6 0 0 1-6-6z" fill-opacity="0"/><path d="M-1008.8 760.67h63.75m31.88 0h63.75m31.88 0h63.75m31.88 0h63.75m31.88 0h31.88l.94.07.92.22.87.36.8.5.73.6.6.72.5.8.36.87.2.93.1.94v28.15m0 28.15v56.3m0 28.15v56.3m0 28.16v28.15l-.1.94-.2.9-.37.88-.5.8-.6.72-.72.6-.8.5-.86.37-.92.2-.93.1h-31.9m-31.87 0h-63.75m-31.87 0h-63.74m-31.88 0h-63.75m-31.88 0h-63.75m-31.87 0h-31.88l-.94-.1-.9-.2-.87-.37-.8-.5-.72-.6-.6-.72-.5-.8-.36-.87-.2-.9-.1-.95v-28.15m0-28.15v-56.3m0-28.16v-56.3m0-28.15v-28.15l.1-.94.2-.92.37-.86.5-.8.6-.7.72-.63.8-.48.88-.36.9-.22.95-.07h31.88" stroke="#6f7681" stroke-width="3" fill="none"/><path d="M-1078.55 766.67a6 6 0 0 1 6-6h200.52a6 6 0 0 1 6 6v39.2a6 6 0 0 1-6 6h-200.52a6 6 0 0 1-6-6z" stroke="#000" stroke-opacity="0" stroke-width="3" fill="#fff" fill-opacity="0"/><use xlink:href="#b" transform="matrix(1,0,0,1,-1073.5490668381415,765.6683199880522) translate(5.450617283950663 38.18055555555554)"/><path d="M-1054.7 847.32a6 6 0 0 1 6-6h196.38a6 6 0 0 1 6 6v111.65a6 6 0 0 1-6 6h-196.4a6 6 0 0 1-6-6z" stroke="#a35d00" stroke-width="3" fill="#fff3b8"/><use xlink:href="#c" transform="matrix(1,0,0,1,-1049.7072246055848,846.3171774177122) translate(1.1203703703704377 65.8472222222222)"/><path d="M-772.56 849.14a6 6 0 0 1 6-6h145.85a6 6 0 0 1 6 6v108a6 6 0 0 1-6 6h-145.86a6 6 0 0 1-6-6z" stroke="#a35d00" stroke-width="3" fill="#fff3b8"/><use xlink:href="#d" transform="matrix(1,0,0,1,-767.5643674627279,848.1414984303676) translate(1.0555555555555998 43.44444444444446)"/><use xlink:href="#e" transform="matrix(1,0,0,1,-767.5643674627279,848.1414984303676) translate(34.679012345679034 43.44444444444446)"/><use xlink:href="#f" transform="matrix(1,0,0,1,-767.5643674627279,848.1414984303676) translate(-1.2314814814814241 78.1111111111111)"/><path d="M-775.07 903.14h-15.08m-15.1 0h-15.08" stroke="#5e5e5e" stroke-width="2" stroke-linejoin="round" fill="none"/><path d="M-774.06 904.14h-1.03v-2h1.04z" stroke="#5e5e5e" stroke-width=".05" fill="#5e5e5e"/><path d="M-842.85 903.14l21.52-12.73v25.47z" stroke="#5e5e5e" stroke-width="2" fill="#fff"/><path d="M-1081.05 893.35h-55.1" stroke="#5e5e5e" stroke-width="2" stroke-linejoin="round" fill="none"/><path d="M-1080.05 894.35h-1.03v-2h1.03z" stroke="#5e5e5e" stroke-width=".05" fill="#5e5e5e"/><path d="M-1151.42 893.35l14.26-4.64V898z" stroke="#5e5e5e" stroke-width="2" fill="#5e5e5e"/><path d="M-1612.88 409.03a6 6 0 0 1 6-6h988a6 6 0 0 1 6 6v228a6 6 0 0 1-6 6h-988a6 6 0 0 1-6-6z" fill-opacity="0"/><path d="M-1547 403.03h59.88m29.93 0h59.9m29.93 0h59.88m29.95 0h59.88m29.94 0h59.88m29.94 0h59.87m29.93 0h59.88m29.94 0h59.88m29.94 0h59.88m29.94 0h59.88m29.94 0h29.94l.94.07.9.22.88.36.8.5.72.6.6.72.5.8.36.87.22.92.08.93v25.33m0 25.33v50.66m0 25.33v50.66m0 25.33v25.33l-.08.94-.22.9-.36.88-.5.8-.6.72-.72.6-.8.5-.87.36-.9.22-.95.08h-29.94m-29.94 0h-59.88m-29.94 0h-59.88m-29.94 0h-59.88m-29.94 0h-59.88m-29.93 0h-59.88m-29.95 0h-59.88m-29.94 0h-59.88m-29.94 0h-59.87m-29.94 0h-59.9m-29.92 0H-1547m-29.94 0h-29.94l-.94-.08-.92-.22-.87-.36-.8-.5-.72-.6-.62-.72-.5-.8-.35-.87-.2-.9-.08-.95V611.7m0-25.34V535.7m0-25.34V459.7m0-25.34v-25.33l.07-.94.2-.93.37-.87.5-.8.6-.72.72-.6.8-.5.86-.36.92-.22.94-.07h29.94" stroke="#6f7681" stroke-width="3" fill="none"/><path d="M-1616.44 414.48a6 6 0 0 1 6-6h295.64a6 6 0 0 1 6 6v48a6 6 0 0 1-6 6h-295.64a6 6 0 0 1-6-6z" stroke="#000" stroke-opacity="0" stroke-width="3" fill="#fff" fill-opacity="0"/><use xlink:href="#g" transform="matrix(1,0,0,1,-1611.4412486213614,413.481548574702) translate(4.617283950617377 38.68055555555554)"/><use xlink:href="#h" transform="matrix(1,0,0,1,-1611.4412486213614,413.481548574702) translate(174.98765432098764 38.68055555555554)"/><path d="M-1585.44 510.08a6 6 0 0 1 6-6h287.13a6 6 0 0 1 6 6v49.3a6 6 0 0 1-6 6h-287.14a6 6 0 0 1-6-6z" stroke="#a35d00" stroke-width="3" fill="#fff3b8"/><use xlink:href="#i" transform="matrix(1,0,0,1,-1580.436752214144,509.0788463038419) translate(84.7530864197531 38.80555555555554)"/><path d="M-1263.73 510.08a6 6 0 0 1 6-6h287.13a6 6 0 0 1 6 6v49.3a6 6 0 0 1-6 6h-287.13a6 6 0 0 1-6-6z" stroke="#a35d00" stroke-width="3" fill="#fff3b8"/><use xlink:href="#j" transform="matrix(1,0,0,1,-1258.7297379123597,509.0788463038419) translate(34.19753086419759 38.80555555555554)"/><path d="M-942.02 510.08a6 6 0 0 1 6-6h287.13a6 6 0 0 1 6 6v49.3a6 6 0 0 1-6 6H-936a6 6 0 0 1-6-6z" stroke="#a35d00" stroke-width="3" fill="#fff3b8"/><use xlink:href="#k" transform="matrix(1,0,0,1,-937.022723610575,509.0788463038419) translate(5.185185185185276 38.80555555555554)"/><path d="M-1112.9 645.53l-.04.48-.08.73-.1.72-.15.72-.16.73-.2.72-.24.73-.28.74-.3.74-.37.76-.4.78-.48.8-.52.83-.6.87-.68.9-.77.93-.88.98-1.02 1.03-1.17 1.12-1.37 1.17-1.6 1.25-1.9 1.38-2.25 1.5-2.73 1.64-3.35 1.84-4.2 2.1-5.37 2.38-7.1 2.8-9.82 3.4-14.6 4.4-25.68 6.5-124.04 27.85-14.6 4.38-9.82 3.42-7.1 2.8-5.38 2.38-4.2 2.08-3.35 1.84-2.7 1.65-2.27 1.5-1.9 1.37-1.6 1.26-1.35 1.18-.3.3" stroke="#5e5e5e" stroke-width="2" stroke-linejoin="round" fill="none"/><path d="M-1111.9 645.57l-2-.04.02-1h2z" stroke="#5e5e5e" stroke-width=".05" fill="#5e5e5e"/><path d="M-1386.6 756.3l2.33-14.83 8.27 4.2z" stroke="#5e5e5e" stroke-width="2" fill="#5e5e5e"/><path d="M-1112.85 645.53l.03.45.07.72.1.7.14.72.16.7.2.73.24.72.27.72.3.73.36.76.4.76.46.8.5.8.6.86.67.88.77.93.87.97 1.02 1.02 1.16 1.1 1.35 1.15 1.58 1.26 1.88 1.35 2.23 1.5 2.72 1.62 3.32 1.82 4.15 2.06 5.32 2.37 7.02 2.77 9.7 3.36 14.36 4.3 24.83 6.32 130.6 29 14.36 4.3 9.7 3.38 7.02 2.77 5.32 2.36 4.16 2.07 3.32 1.82 2.7 1.63 2.24 1.48 1.87 1.37 1.58 1.25 1.36 1.16.14.13" stroke="#5e5e5e" stroke-width="2" stroke-linejoin="round" fill="none"/><path d="M-1111.86 645.53l-2 .04-.02-1.04h2z" stroke="#5e5e5e" stroke-width=".05" fill="#5e5e5e"/><path d="M-834.96 756.3l-10.66-10.57 8.24-4.24z" stroke="#5e5e5e" stroke-width="2" fill="#5e5e5e"/><path d="M-1612.13 166.67a6 6 0 0 1 6-6H-1427a6 6 0 0 1 6 6V304.5a6 6 0 0 1-6 6h-179.13a6 6 0 0 1-6-6z" stroke="#a35d00" stroke-width="3" fill="#fff3b8"/><use xlink:href="#l" transform="matrix(1,0,0,1,-1607.1346734934568,165.66831998805196) translate(20.814814814814852 53.05555555555554)"/><use xlink:href="#m" transform="matrix(1,0,0,1,-1607.1346734934568,165.66831998805196) translate(40.62962962962965 106.38888888888886)"/><path d="M-1516.57 313v70.02" stroke="#5e5e5e" stroke-width="2" stroke-linejoin="round" fill="none"/><path d="M-1515.57 313.03h-2V312h2z" stroke="#5e5e5e" stroke-width=".05" fill="#5e5e5e"/><path d="M-1516.57 398.3l-4.64-14.28h9.26z" stroke="#5e5e5e" stroke-width="2" fill="#5e5e5e"/><g><use xlink:href="#n" transform="matrix(1,0,0,1,-1508.5714255601704,338.9990286494705) translate(0.005000000000002558 14.222222222222223)"/></g><defs><path fill="#333" d="M24-248c120-7 223 5 221 122C244-46 201 0 124 0H24v-248zM76-40c74 7 117-18 117-86 0-67-45-88-117-82v168" id="o"/><path fill="#333" d="M110-194c64 0 96 36 96 99 0 64-35 99-97 99-61 0-95-36-95-99 0-62 34-99 96-99zm-1 164c35 0 45-28 45-65 0-40-10-65-43-65-34 0-45 26-45 65 0 36 10 65 43 65" id="p"/><path fill="#333" d="M220-157c-53 9-28 100-34 157h-49v-107c1-27-5-49-29-50C55-147 81-57 75 0H25l-1-190h47c2 12-1 28 3 38 10-53 101-56 108 0 13-22 24-43 59-42 82 1 51 116 57 194h-49v-107c-1-25-5-48-29-50" id="q"/><path fill="#333" d="M133-34C117-15 103 5 69 4 32 3 11-16 11-54c-1-60 55-63 116-61 1-26-3-47-28-47-18 1-26 9-28 27l-52-2c7-38 36-58 82-57s74 22 75 68l1 82c-1 14 12 18 25 15v27c-30 8-71 5-69-32zm-48 3c29 0 43-24 42-57-32 0-66-3-65 30 0 17 8 27 23 27" id="r"/><path fill="#333" d="M25-224v-37h50v37H25zM25 0v-190h50V0H25" id="s"/><path fill="#333" d="M135-194c87-1 58 113 63 194h-50c-7-57 23-157-34-157-59 0-34 97-39 157H25l-1-190h47c2 12-1 28 3 38 12-26 28-41 61-42" id="t"/><g id="a"><use transform="matrix(0.12345679012345674,0,0,0.12345679012345674,0,0)" xlink:href="#o"/><use transform="matrix(0.12345679012345674,0,0,0.12345679012345674,31.975308641975296,0)" xlink:href="#p"/><use transform="matrix(0.12345679012345674,0,0,0.12345679012345674,59.01234567901233,0)" xlink:href="#q"/><use transform="matrix(0.12345679012345674,0,0,0.12345679012345674,98.51851851851848,0)" xlink:href="#r"/><use transform="matrix(0.12345679012345674,0,0,0.12345679012345674,123.20987654320982,0)" xlink:href="#s"/><use transform="matrix(0.12345679012345674,0,0,0.12345679012345674,135.5555555555555,0)" xlink:href="#t"/></g><path fill="#333" d="M199 0l-22-63H83L61 0H9l90-248h61L250 0h-51zm-33-102l-36-108c-10 38-24 72-36 108h72" id="u"/><path fill="#333" d="M88-194c31-1 46 15 58 34l-1-101h50l1 261h-48c-2-10 0-23-3-31C134-8 116 4 84 4 32 4 16-41 15-95c0-56 19-97 73-99zm17 164c33 0 40-30 41-66 1-37-9-64-41-64s-38 30-39 65c0 43 13 65 39 65" id="v"/><path fill="#333" d="M135-194c53 0 70 44 70 98 0 56-19 98-73 100-31 1-45-17-59-34 3 33 2 69 2 105H25l-1-265h48c2 10 0 23 3 31 11-24 29-35 60-35zM114-30c33 0 39-31 40-66 0-38-9-64-40-64-56 0-55 130 0 130" id="w"/><path fill="#333" d="M115-3C79 11 28 4 28-45v-112H4v-33h27l15-45h31v45h36v33H77v99c-1 23 16 31 38 25v30" id="x"/><path fill="#333" d="M185-48c-13 30-37 53-82 52C43 2 14-33 14-96s30-98 90-98c62 0 83 45 84 108H66c0 31 8 55 39 56 18 0 30-7 34-22zm-45-69c5-46-57-63-70-21-2 6-4 13-4 21h74" id="y"/><path fill="#333" d="M135-150c-39-12-60 13-60 57V0H25l-1-190h47c2 13-1 29 3 40 6-28 27-53 61-41v41" id="z"/><path fill="#333" d="M137-138c1-29-70-34-71-4 15 46 118 7 119 86 1 83-164 76-172 9l43-7c4 19 20 25 44 25 33 8 57-30 24-41C81-84 22-81 20-136c-2-80 154-74 161-7" id="A"/><g id="b"><use transform="matrix(0.12345679012345674,0,0,0.12345679012345674,0,0)" xlink:href="#u"/><use transform="matrix(0.12345679012345674,0,0,0.12345679012345674,31.975308641975296,0)" xlink:href="#v"/><use transform="matrix(0.12345679012345674,0,0,0.12345679012345674,59.01234567901233,0)" xlink:href="#r"/><use transform="matrix(0.12345679012345674,0,0,0.12345679012345674,83.70370370370367,0)" xlink:href="#w"/><use transform="matrix(0.12345679012345674,0,0,0.12345679012345674,110.74074074074069,0)" xlink:href="#x"/><use transform="matrix(0.12345679012345674,0,0,0.12345679012345674,125.43209876543204,0)" xlink:href="#y"/><use transform="matrix(0.12345679012345674,0,0,0.12345679012345674,150.12345679012338,0)" xlink:href="#z"/><use transform="matrix(0.12345679012345674,0,0,0.12345679012345674,167.40740740740733,0)" xlink:href="#A"/></g><path fill="#a35d00" d="M240-174c0 40-23 61-54 70L253 0h-59l-57-94H76V0H24v-248c93 4 217-23 216 74zM76-134c48-2 112 12 112-38 0-48-66-32-112-35v73" id="B"/><path fill="#a35d00" d="M185-48c-13 30-37 53-82 52C43 2 14-33 14-96s30-98 90-98c62 0 83 45 84 108H66c0 31 8 55 39 56 18 0 30-7 34-22zm-45-69c5-46-57-63-70-21-2 6-4 13-4 21h74" id="C"/><path fill="#a35d00" d="M135-194c53 0 70 44 70 98 0 56-19 98-73 100-31 1-45-17-59-34 3 33 2 69 2 105H25l-1-265h48c2 10 0 23 3 31 11-24 29-35 60-35zM114-30c33 0 39-31 40-66 0-38-9-64-40-64-56 0-55 130 0 130" id="D"/><path fill="#a35d00" d="M110-194c64 0 96 36 96 99 0 64-35 99-97 99-61 0-95-36-95-99 0-62 34-99 96-99zm-1 164c35 0 45-28 45-65 0-40-10-65-43-65-34 0-45 26-45 65 0 36 10 65 43 65" id="E"/><path fill="#a35d00" d="M137-138c1-29-70-34-71-4 15 46 118 7 119 86 1 83-164 76-172 9l43-7c4 19 20 25 44 25 33 8 57-30 24-41C81-84 22-81 20-136c-2-80 154-74 161-7" id="F"/><path fill="#a35d00" d="M25-224v-37h50v37H25zM25 0v-190h50V0H25" id="G"/><path fill="#a35d00" d="M115-3C79 11 28 4 28-45v-112H4v-33h27l15-45h31v45h36v33H77v99c-1 23 16 31 38 25v30" id="H"/><path fill="#a35d00" d="M135-150c-39-12-60 13-60 57V0H25l-1-190h47c2 13-1 29 3 40 6-28 27-53 61-41v41" id="I"/><path fill="#a35d00" d="M123 10C108 53 80 86 19 72V37c35 8 53-11 59-39L3-190h52l48 148c12-52 28-100 44-148h51" id="J"/><g id="c"><use transform="matrix(0.10493827160493821,0,0,0.10493827160493821,0,0)" xlink:href="#B"/><use transform="matrix(0.10493827160493821,0,0,0.10493827160493821,27.179012345678995,0)" xlink:href="#C"/><use transform="matrix(0.10493827160493821,0,0,0.10493827160493821,48.166666666666636,0)" xlink:href="#D"/><use transform="matrix(0.10493827160493821,0,0,0.10493827160493821,71.1481481481481,0)" xlink:href="#E"/><use transform="matrix(0.10493827160493821,0,0,0.10493827160493821,94.12962962962956,0)" xlink:href="#F"/><use transform="matrix(0.10493827160493821,0,0,0.10493827160493821,115.11728395061722,0)" xlink:href="#G"/><use transform="matrix(0.10493827160493821,0,0,0.10493827160493821,125.61111111111104,0)" xlink:href="#H"/><use transform="matrix(0.10493827160493821,0,0,0.10493827160493821,138.09876543209867,0)" xlink:href="#E"/><use transform="matrix(0.10493827160493821,0,0,0.10493827160493821,161.08024691358014,0)" xlink:href="#I"/><use transform="matrix(0.10493827160493821,0,0,0.10493827160493821,175.77160493827148,0)" xlink:href="#J"/></g><path fill="#a35d00" d="M24 0v-248h52V0H24" id="K"/><path fill="#a35d00" d="M135-194c87-1 58 113 63 194h-50c-7-57 23-157-34-157-59 0-34 97-39 157H25l-1-190h47c2 12-1 28 3 38 12-26 28-41 61-42" id="L"/><g id="d"><use transform="matrix(0.08024691358024685,0,0,0.08024691358024685,0,0)" xlink:href="#K"/><use transform="matrix(0.08024691358024685,0,0,0.08024691358024685,8.024691358024686,0)" xlink:href="#L"/></g><path fill="#a35d00" d="M220-157c-53 9-28 100-34 157h-49v-107c1-27-5-49-29-50C55-147 81-57 75 0H25l-1-190h47c2 12-1 28 3 38 10-53 101-56 108 0 13-22 24-43 59-42 82 1 51 116 57 194h-49v-107c-1-25-5-48-29-50" id="M"/><g id="e"><use transform="matrix(0.08024691358024685,0,0,0.08024691358024685,0,0)" xlink:href="#M"/><use transform="matrix(0.08024691358024685,0,0,0.08024691358024685,25.67901234567899,0)" xlink:href="#C"/><use transform="matrix(0.08024691358024685,0,0,0.08024691358024685,41.728395061728364,0)" xlink:href="#M"/><use transform="matrix(0.08024691358024685,0,0,0.08024691358024685,67.40740740740736,0)" xlink:href="#E"/><use transform="matrix(0.08024691358024685,0,0,0.08024691358024685,84.98148148148142,0)" xlink:href="#I"/><use transform="matrix(0.08024691358024685,0,0,0.08024691358024685,96.21604938271598,0)" xlink:href="#J"/></g><g id="f"><use transform="matrix(0.08024691358024685,0,0,0.08024691358024685,0,0)" xlink:href="#B"/><use transform="matrix(0.08024691358024685,0,0,0.08024691358024685,20.783950617283935,0)" xlink:href="#C"/><use transform="matrix(0.08024691358024685,0,0,0.08024691358024685,36.83333333333331,0)" xlink:href="#D"/><use transform="matrix(0.08024691358024685,0,0,0.08024691358024685,54.40740740740737,0)" xlink:href="#E"/><use transform="matrix(0.08024691358024685,0,0,0.08024691358024685,71.98148148148144,0)" xlink:href="#F"/><use transform="matrix(0.08024691358024685,0,0,0.08024691358024685,88.0308641975308,0)" xlink:href="#G"/><use transform="matrix(0.08024691358024685,0,0,0.08024691358024685,96.05555555555549,0)" xlink:href="#H"/><use transform="matrix(0.08024691358024685,0,0,0.08024691358024685,105.60493827160487,0)" xlink:href="#E"/><use transform="matrix(0.08024691358024685,0,0,0.08024691358024685,123.17901234567891,0)" xlink:href="#I"/><use transform="matrix(0.08024691358024685,0,0,0.08024691358024685,134.41358024691348,0)" xlink:href="#J"/></g><path fill="#333" d="M169-182c-1-43-94-46-97-3 18 66 151 10 154 114 3 95-165 93-204 36-6-8-10-19-12-30l50-8c3 46 112 56 116 5-17-69-150-10-154-114-4-87 153-88 188-35 5 8 8 18 10 28" id="N"/><path fill="#333" d="M128 0H69L1-190h53L99-40l48-150h52" id="O"/><path fill="#333" d="M190-63c-7 42-38 67-86 67-59 0-84-38-90-98-12-110 154-137 174-36l-49 2c-2-19-15-32-35-32-30 0-35 28-38 64-6 74 65 87 74 30" id="P"/><g id="g"><use transform="matrix(0.12345679012345674,0,0,0.12345679012345674,0,0)" xlink:href="#N"/><use transform="matrix(0.12345679012345674,0,0,0.12345679012345674,29.62962962962962,0)" xlink:href="#y"/><use transform="matrix(0.12345679012345674,0,0,0.12345679012345674,54.320987654320966,0)" xlink:href="#z"/><use transform="matrix(0.12345679012345674,0,0,0.12345679012345674,71.60493827160491,0)" xlink:href="#O"/><use transform="matrix(0.12345679012345674,0,0,0.12345679012345674,96.29629629629625,0)" xlink:href="#s"/><use transform="matrix(0.12345679012345674,0,0,0.12345679012345674,108.64197530864192,0)" xlink:href="#P"/><use transform="matrix(0.12345679012345674,0,0,0.12345679012345674,133.33333333333326,0)" xlink:href="#y"/></g><path fill="#333" d="M24 0v-248h52v208h133V0H24" id="Q"/><path fill="#333" d="M123 10C108 53 80 86 19 72V37c35 8 53-11 59-39L3-190h52l48 148c12-52 28-100 44-148h51" id="R"/><g id="h"><use transform="matrix(0.12345679012345674,0,0,0.12345679012345674,0,0)" xlink:href="#Q"/><use transform="matrix(0.12345679012345674,0,0,0.12345679012345674,27.037037037037027,0)" xlink:href="#r"/><use transform="matrix(0.12345679012345674,0,0,0.12345679012345674,51.72839506172838,0)" xlink:href="#R"/><use transform="matrix(0.12345679012345674,0,0,0.12345679012345674,76.41975308641972,0)" xlink:href="#y"/><use transform="matrix(0.12345679012345674,0,0,0.12345679012345674,101.11111111111106,0)" xlink:href="#z"/></g><path fill="#a35d00" d="M128 0H69L1-190h53L99-40l48-150h52" id="S"/><path fill="#a35d00" d="M67-93c0 74 22 123 53 168H70C40 30 18-18 18-93s22-123 52-168h50c-32 44-53 94-53 168" id="T"/><path fill="#a35d00" d="M102-93c0 74-22 123-52 168H0C30 29 54-18 53-93c0-74-22-123-53-168h50c30 45 52 94 52 168" id="U"/><g id="i"><use transform="matrix(0.12345679012345674,0,0,0.12345679012345674,0,0)" xlink:href="#S"/><use transform="matrix(0.12345679012345674,0,0,0.12345679012345674,24.691358024691347,0)" xlink:href="#E"/><use transform="matrix(0.12345679012345674,0,0,0.12345679012345674,51.72839506172838,0)" xlink:href="#H"/><use transform="matrix(0.12345679012345674,0,0,0.12345679012345674,66.41975308641973,0)" xlink:href="#C"/><use transform="matrix(0.12345679012345674,0,0,0.12345679012345674,91.11111111111109,0)" xlink:href="#T"/><use transform="matrix(0.12345679012345674,0,0,0.12345679012345674,105.80246913580244,0)" xlink:href="#U"/></g><path fill="#a35d00" d="M190-63c-7 42-38 67-86 67-59 0-84-38-90-98-12-110 154-137 174-36l-49 2c-2-19-15-32-35-32-30 0-35 28-38 64-6 74 65 87 74 30" id="V"/><path fill="#a35d00" d="M114-157C55-157 80-60 75 0H25v-261h50l-1 109c12-26 28-41 61-42 86-1 58 113 63 194h-50c-7-57 23-157-34-157" id="W"/><path fill="#a35d00" d="M88-194c31-1 46 15 58 34l-1-101h50l1 261h-48c-2-10 0-23-3-31C134-8 116 4 84 4 32 4 16-41 15-95c0-56 19-97 73-99zm17 164c33 0 40-30 41-66 1-37-9-64-41-64s-38 30-39 65c0 43 13 65 39 65" id="X"/><path fill="#a35d00" d="M85 4C-2 5 27-109 22-190h50c7 57-23 150 33 157 60-5 35-97 40-157h50l1 190h-47c-2-12 1-28-3-38-12 25-28 42-61 42" id="Y"/><path fill="#a35d00" d="M25 0v-261h50V0H25" id="Z"/><g id="j"><use transform="matrix(0.12345679012345674,0,0,0.12345679012345674,0,0)" xlink:href="#F"/><use transform="matrix(0.12345679012345674,0,0,0.12345679012345674,24.691358024691347,0)" xlink:href="#V"/><use transform="matrix(0.12345679012345674,0,0,0.12345679012345674,49.382716049382694,0)" xlink:href="#W"/><use transform="matrix(0.12345679012345674,0,0,0.12345679012345674,76.41975308641972,0)" xlink:href="#C"/><use transform="matrix(0.12345679012345674,0,0,0.12345679012345674,101.11111111111106,0)" xlink:href="#X"/><use transform="matrix(0.12345679012345674,0,0,0.12345679012345674,128.1481481481481,0)" xlink:href="#Y"/><use transform="matrix(0.12345679012345674,0,0,0.12345679012345674,155.18518518518513,0)" xlink:href="#Z"/><use transform="matrix(0.12345679012345674,0,0,0.12345679012345674,167.5308641975308,0)" xlink:href="#C"/><use transform="matrix(0.12345679012345674,0,0,0.12345679012345674,192.22222222222214,0)" xlink:href="#T"/><use transform="matrix(0.12345679012345674,0,0,0.12345679012345674,206.91358024691348,0)" xlink:href="#U"/></g><path fill="#a35d00" d="M195-6C206 82 75 100 31 46c-4-6-6-13-8-21l49-6c3 16 16 24 34 25 40 0 42-37 40-79-11 22-30 35-61 35-53 0-70-43-70-97 0-56 18-96 73-97 30 0 46 14 59 34l2-30h47zm-90-29c32 0 41-27 41-63 0-35-9-62-40-62-32 0-39 29-40 63 0 36 9 62 39 62" id="aa"/><path fill="#a35d00" d="M147 0H94L2-248h55l64 206c17-72 42-137 63-206h54" id="ab"/><g id="k"><use transform="matrix(0.12345679012345674,0,0,0.12345679012345674,0,0)" xlink:href="#H"/><use transform="matrix(0.12345679012345674,0,0,0.12345679012345674,14.691358024691352,0)" xlink:href="#E"/><use transform="matrix(0.12345679012345674,0,0,0.12345679012345674,41.72839506172838,0)" xlink:href="#aa"/><use transform="matrix(0.12345679012345674,0,0,0.12345679012345674,68.7654320987654,0)" xlink:href="#aa"/><use transform="matrix(0.12345679012345674,0,0,0.12345679012345674,95.80246913580243,0)" xlink:href="#Z"/><use transform="matrix(0.12345679012345674,0,0,0.12345679012345674,108.1481481481481,0)" xlink:href="#C"/><use transform="matrix(0.12345679012345674,0,0,0.12345679012345674,132.83950617283944,0)" xlink:href="#ab"/><use transform="matrix(0.12345679012345674,0,0,0.12345679012345674,159.1358024691357,0)" xlink:href="#E"/><use transform="matrix(0.12345679012345674,0,0,0.12345679012345674,186.17283950617275,0)" xlink:href="#H"/><use transform="matrix(0.12345679012345674,0,0,0.12345679012345674,200.8641975308641,0)" xlink:href="#C"/><use transform="matrix(0.12345679012345674,0,0,0.12345679012345674,225.55555555555543,0)" xlink:href="#F"/><use transform="matrix(0.12345679012345674,0,0,0.12345679012345674,250.24691358024677,0)" xlink:href="#T"/><use transform="matrix(0.12345679012345674,0,0,0.12345679012345674,264.9382716049381,0)" xlink:href="#U"/></g><path fill="#a35d00" d="M169-182c-1-43-94-46-97-3 18 66 151 10 154 114 3 95-165 93-204 36-6-8-10-19-12-30l50-8c3 46 112 56 116 5-17-69-150-10-154-114-4-87 153-88 188-35 5 8 8 18 10 28" id="ac"/><g id="l"><use transform="matrix(0.12345679012345674,0,0,0.12345679012345674,0,0)" xlink:href="#ac"/><use transform="matrix(0.12345679012345674,0,0,0.12345679012345674,29.62962962962962,0)" xlink:href="#D"/><use transform="matrix(0.12345679012345674,0,0,0.12345679012345674,56.66666666666664,0)" xlink:href="#I"/><use transform="matrix(0.12345679012345674,0,0,0.12345679012345674,73.95061728395058,0)" xlink:href="#G"/><use transform="matrix(0.12345679012345674,0,0,0.12345679012345674,86.29629629629625,0)" xlink:href="#L"/><use transform="matrix(0.12345679012345674,0,0,0.12345679012345674,113.33333333333327,0)" xlink:href="#aa"/></g><path fill="#a35d00" d="M182-130c37 4 62 22 62 59C244 23 116-4 24 0v-248c84 5 203-23 205 63 0 31-19 50-47 55zM76-148c40-3 101 13 101-30 0-44-60-28-101-31v61zm0 110c48-3 116 14 116-37 0-48-69-32-116-35v72" id="ad"/><g id="m"><use transform="matrix(0.12345679012345674,0,0,0.12345679012345674,0,0)" xlink:href="#ad"/><use transform="matrix(0.12345679012345674,0,0,0.12345679012345674,31.975308641975296,0)" xlink:href="#E"/><use transform="matrix(0.12345679012345674,0,0,0.12345679012345674,59.01234567901233,0)" xlink:href="#E"/><use transform="matrix(0.12345679012345674,0,0,0.12345679012345674,86.04938271604935,0)" xlink:href="#H"/></g><path fill="#333" d="M24 0v-248h52V0H24" id="ae"/><path fill="#333" d="M147 0L96-86 75-71V0H25v-261h50v150l67-79h53l-66 74L201 0h-54" id="af"/><g id="n"><use transform="matrix(0.04938271604938272,0,0,0.04938271604938272,0,0)" xlink:href="#ae"/><use transform="matrix(0.04938271604938272,0,0,0.04938271604938272,4.938271604938272,0)" xlink:href="#t"/><use transform="matrix(0.04938271604938272,0,0,0.04938271604938272,15.753086419753087,0)" xlink:href="#O"/><use transform="matrix(0.04938271604938272,0,0,0.04938271604938272,25.629629629629633,0)" xlink:href="#p"/><use transform="matrix(0.04938271604938272,0,0,0.04938271604938272,36.44444444444445,0)" xlink:href="#af"/><use transform="matrix(0.04938271604938272,0,0,0.04938271604938272,46.320987654320994,0)" xlink:href="#y"/><use transform="matrix(0.04938271604938272,0,0,0.04938271604938272,56.19753086419754,0)" xlink:href="#A"/></g></defs></g></svg>