<svg xmlns="http://www.w3.org/2000/svg" xmlns:xlink="http://www.w3.org/1999/xlink" xmlns:lucid="lucid" width="1315" height="1185"><g transform="translate(-257 -110)" lucid:page-tab-id="XOINCOsildRM"><path d="M555 897.95a6 6 0 0 1 6-6h116.24a6 6 0 0 1 6 6v43.87a6 6 0 0 1-6 6H561a6 6 0 0 1-6-6zM673.37 1030.22c0 22.37-24.3 40.5-54.26 40.5-29.95 0-54.24-18.13-54.24-40.5s24.3-40.5 54.25-40.5c29.98 0 54.27 18.13 54.27 40.5zM358.52 952.95a10.63 10.63 0 0 1 9.1-5.13h119.82a3.45 3.45 0 0 1 3 5.18l-12.16 20.9a98.15 98.15 0 0 0-5.38 10.72l-10.9 25.46a9.1 9.1 0 0 1-8.36 5.52H326.7a3.4 3.4 0 0 1-2.9-5.14z" stroke="#0057d2" stroke-width="3" fill="#d1efff"/><path d="M372.92 958.17a10.63 10.63 0 0 1 9.1-5.14h119.82a3.45 3.45 0 0 1 3 5.2l-12.17 20.9a98.15 98.15 0 0 0-5.37 10.7l-10.9 25.47a9.1 9.1 0 0 1-8.36 5.52H341.1a3.4 3.4 0 0 1-2.9-5.14z" stroke="#0057d2" stroke-width="3" fill="#d1efff"/><path d="M387.3 963.38a10.63 10.63 0 0 1 9.1-5.13h119.84a3.45 3.45 0 0 1 2.98 5.18l-12.15 20.9a98.15 98.15 0 0 0-5.38 10.72l-10.9 25.46a9.1 9.1 0 0 1-8.37 5.53H355.5a3.4 3.4 0 0 1-2.9-5.14z" stroke="#0057d2" stroke-width="3" fill="#d1efff"/><path d="M426.3 945.32v-1.14l.13-1.93.2-1.75.23-1.6.28-1.5.32-1.35.35-1.27.4-1.2.4-1.1.46-1.07.47-.98.5-.95.52-.9.55-.88.58-.84.6-.8.65-.8.68-.74.73-.73.76-.73.8-.7.86-.68.92-.68 1-.65 1.05-.64 1.15-.64 1.26-.63 1.37-.6 1.52-.6 1.68-.6 1.87-.56 2.12-.53 2.4-.5 2.8-.5 3.3-.4 3.97-.33 4.92-.2h6.4l9.14.4 18.58 1.64 32.8 3.22" stroke="#5e5e5e" stroke-width="2" stroke-linejoin="round" fill="none"/><path d="M427.3 945.3l-.03 1.02h-2l.02-1.05z" stroke="#5e5e5e" stroke-width=".05" fill="#5e5e5e"/><path d="M550.26 919.7l-14.5 3.88.5-9.25z" stroke="#5e5e5e" stroke-width="2" fill="#5e5e5e"/><path d="M619.1 950.32v19.4" stroke="#5e5e5e" stroke-width="2" stroke-linejoin="round" fill="none"/><path d="M620.1 950.34h-2v-1.02h2z" stroke="#5e5e5e" stroke-width=".05" fill="#5e5e5e"/><path d="M619.1 984.98l-4.62-14.27h9.27z" stroke="#5e5e5e" stroke-width="2" fill="#5e5e5e"/><path d="M294.2 827.73a6 6 0 0 1 6-6h451.84a6 6 0 0 1 6 6v253.36a6 6 0 0 1-6 6H300.2a6 6 0 0 1-6-6z" fill-opacity="0"/><path d="M360.45 821.73h60.24m30.12 0h60.24m30.12 0h60.25m30.12 0h60.25m30.12 0h30.13l.93.07.92.23.87.36.8.48.72.6.6.73.5.8.35.88.22.9.07.95v28.15m0 28.15v56.3m0 28.16v56.3m0 28.14v28.15l-.07.93-.22.92-.36.87-.5.8-.6.7-.73.63-.8.5-.87.35-.92.22-.94.07h-30.12m-30.12 0h-60.25m-30.12 0h-60.25m-30.12 0h-60.24m-30.13 0h-60.25m-30.12 0H300.2l-.94-.08-.9-.22-.88-.36-.8-.5-.72-.6-.6-.72-.5-.8-.36-.87-.22-.92-.08-.94v-28.16m0-28.15v-56.3m0-28.16v-56.3m0-28.16v-28.15l.08-.94.22-.92.36-.87.5-.8.6-.7.72-.62.8-.5.87-.36.9-.22.95-.07h30.13" stroke="#6f7681" stroke-width="3" fill="none"/><path d="M290.64 827.73a6 6 0 0 1 6-6h200.53a6 6 0 0 1 6 6v39.2a6 6 0 0 1-6 6H296.64a6 6 0 0 1-6-6z" stroke="#000" stroke-opacity="0" stroke-width="3" fill="#fff" fill-opacity="0"/><use xlink:href="#a" transform="matrix(1,0,0,1,295.6442124694036,826.731234518124) translate(20.203703703703738 38.18055555555554)"/><path d="M820.34 827.73a6 6 0 0 1 6-6h478.13a6 6 0 0 1 6 6v253.36a6 6 0 0 1-6 6H826.34a6 6 0 0 1-6-6z" fill-opacity="0"/><path d="M890.1 821.73h63.74m31.88 0h63.75m31.87 0h63.75m31.87 0h63.75m31.88 0h31.87l.94.07.92.23.88.36.8.48.7.6.63.73.5.8.35.88.22.9.07.95v28.15m0 28.15v56.3m0 28.16v56.3m0 28.14v28.15l-.07.93-.22.92-.36.87-.5.8-.6.7-.72.63-.8.5-.88.35-.9.22-.95.07h-31.88m-31.88 0h-63.75m-31.88 0h-63.76m-31.87 0h-63.75m-31.88 0H890.1m-31.9 0h-31.86l-.94-.08-.92-.22-.87-.36-.8-.5-.7-.6-.62-.72-.5-.8-.35-.87-.22-.92-.06-.94v-28.16m0-28.15v-56.3m0-28.16v-56.3m0-28.16v-28.15l.07-.94.23-.92.36-.87.48-.8.6-.7.73-.62.8-.5.88-.36.92-.22.94-.07h31.87" stroke="#6f7681" stroke-width="3" fill="none"/><path d="M820.34 827.73a6 6 0 0 1 6-6h200.52a6 6 0 0 1 6 6v39.2a6 6 0 0 1-6 6H826.34a6 6 0 0 1-6-6z" stroke="#000" stroke-opacity="0" stroke-width="3" fill="#fff" fill-opacity="0"/><use xlink:href="#b" transform="matrix(1,0,0,1,825.3366559853712,826.731234518124) translate(5.450617283950663 38.18055555555554)"/><path d="M844.18 908.38a6 6 0 0 1 6-6h196.4a6 6 0 0 1 6 6v111.65a6 6 0 0 1-6 6h-196.4a6 6 0 0 1-6-6z" stroke="#a35d00" stroke-width="3" fill="#fff3b8"/><use xlink:href="#c" transform="matrix(1,0,0,1,849.1784982179279,907.380091947784) translate(1.1203703703704377 65.8472222222222)"/><path d="M1126.32 910.2a6 6 0 0 1 6-6h145.86a6 6 0 0 1 6 6v108a6 6 0 0 1-6 6h-145.86a6 6 0 0 1-6-6z" stroke="#a35d00" stroke-width="3" fill="#fff3b8"/><use xlink:href="#d" transform="matrix(1,0,0,1,1131.3213553607848,909.2044129604394) translate(26.854938271604972 43.44444444444446)"/><use xlink:href="#e" transform="matrix(1,0,0,1,1131.3213553607848,909.2044129604394) translate(-1.2314814814814241 78.1111111111111)"/><path d="M1123.82 964.2h-15.1m-15.08 0h-15.1" stroke="#5e5e5e" stroke-width="2" stroke-linejoin="round" fill="none"/><path d="M1124.82 965.2h-1.02v-2h1.02z" stroke="#5e5e5e" stroke-width=".05" fill="#5e5e5e"/><path d="M1056.04 964.2l21.5-12.72v25.45z" stroke="#5e5e5e" stroke-width="2" fill="#fff"/><path d="M1267.86 1253.83c0 5.85-28.03 10.6-62.6 10.6-34.6 0-62.62-4.75-62.62-10.6v-84.68c0-5.85 28.03-10.6 62.6-10.6 34.6 0 62.62 4.75 62.62 10.6z" stroke="#0057d2" stroke-width="3" fill="#d1efff"/><path d="M1267.86 1169.15c0 5.84-28.03 10.58-62.6 10.58-34.6 0-62.62-4.74-62.62-10.58" stroke="#0057d2" stroke-width="3" fill="none"/><use xlink:href="#f" transform="matrix(1,0,0,1,1152.6425458105152,1179.7340883177517) translate(21.024691358024704 46.388888888888886)"/><path d="M1205.25 1026.7v111.86" stroke="#5e5e5e" stroke-width="2" stroke-linejoin="round" fill="none"/><path d="M1206.25 1026.73h-2v-1.03h2z" stroke="#5e5e5e" stroke-width=".05" fill="#5e5e5e"/><path d="M1205.25 1153.83l-4.63-14.27h9.27z" stroke="#5e5e5e" stroke-width="2" fill="#5e5e5e"/><path d="M817.84 954.4h-39.8" stroke="#5e5e5e" stroke-width="2" stroke-linejoin="round" fill="none"/><path d="M818.84 955.4h-1.03v-2h1.04z" stroke="#5e5e5e" stroke-width=".05" fill="#5e5e5e"/><path d="M762.78 954.4l14.27-4.62v9.27z" stroke="#5e5e5e" stroke-width="2" fill="#5e5e5e"/><path d="M285.96 144.56a6 6 0 0 1 6-6H471.1a6 6 0 0 1 6 6V282.4a6 6 0 0 1-6 6H291.95a6 6 0 0 1-6-6z" stroke="#a35d00" stroke-width="3" fill="#fff3b8"/><use xlink:href="#g" transform="matrix(1,0,0,1,290.964405054303,143.5628580464475) translate(20.814814814814852 53.05555555555554)"/><use xlink:href="#h" transform="matrix(1,0,0,1,290.964405054303,143.5628580464475) translate(40.62962962962965 106.38888888888886)"/><path d="M381.53 290.9v87.66" stroke="#5e5e5e" stroke-width="2" stroke-linejoin="round" fill="none"/><path d="M382.53 290.93h-2v-1.03h2z" stroke="#5e5e5e" stroke-width=".05" fill="#5e5e5e"/><path d="M381.53 393.83l-4.64-14.27h9.26z" stroke="#5e5e5e" stroke-width="2" fill="#5e5e5e"/><use xlink:href="#i" transform="matrix(1,0,0,1,389.52765298758914,324.3156573430479) translate(0.005000000000002558 14.222222222222223)"/><path d="M280.36 404.56a6 6 0 0 1 6-6h1023.72a6 6 0 0 1 6 6V723.4a6 6 0 0 1-6 6H286.36a6 6 0 0 1-6-6z" fill-opacity="0"/><path d="M348.4 398.56h62.05m31.02 0h62.04m31.03 0h62.05m31.02 0h62.04m31.02 0h62.05m31.03 0h62.04m31.02 0h62.04m31.02 0h62.04m31.02 0h62.05m31.02 0h62.03m31.02 0h31.03l.93.08.93.22.87.36.8.5.72.6.6.72.5.8.36.87.22.92.08.94v26.57m0 26.57v53.15m0 26.57v53.14m0 26.57v53.14m0 26.57v26.57l-.08.95-.22.92-.36.87-.5.8-.6.7-.72.63-.8.5-.87.35-.92.22-.92.07h-31.03m-31.02 0H1186m-31.03 0h-62.05m-31.02 0h-62.04m-31.02 0H906.8m-31.03 0h-62.04m-31.02 0h-62.04m-31.02 0H627.6m-31.02 0h-62.05m-31.02 0h-62.03m-31.02 0H348.4m-31.02 0h-31.02l-.94-.06-.92-.22-.87-.36-.8-.5-.7-.6-.63-.72-.5-.8-.35-.87-.22-.92-.07-.94v-26.56m0-26.57v-53.14m0-26.57v-53.14m0-26.57V457.7m0-26.57v-26.57l.07-.94.22-.9.36-.88.5-.8.62-.72.7-.6.8-.5.88-.36.92-.22.94-.08h31.02" stroke="#6f7681" stroke-width="3" fill="none"/><path d="M280.36 408.72a6 6 0 0 1 6-6h364.3a6 6 0 0 1 6 6v34.7a6 6 0 0 1-6 6h-364.3a6 6 0 0 1-6-6z" stroke="#000" stroke-opacity="0" stroke-width="3" fill="#fff" fill-opacity="0"/><use xlink:href="#j" transform="matrix(1,0,0,1,285.35939760503743,407.720458437823) translate(39.11728395061738 35.55555555555554)"/><use xlink:href="#k" transform="matrix(1,0,0,1,285.35939760503743,407.720458437823) translate(209.48765432098764 35.55555555555554)"/><path d="M389.27 580.32a9.37 9.37 0 0 1 8.5-5.45H517.6a3.9 3.9 0 0 1 3.57 5.48l-13.32 30a117.7 117.7 0 0 0-4.3 11.18l-11.9 36.37a8.27 8.27 0 0 1-7.85 5.7H356.87a3.84 3.84 0 0 1-3.5-5.44z" stroke="#0057d2" stroke-width="3" fill="#d1efff"/><path d="M403.66 587.14a9.37 9.37 0 0 1 8.5-5.44H532a3.9 3.9 0 0 1 3.56 5.48l-13.3 30a117.7 117.7 0 0 0-4.3 11.17l-11.9 36.38a8.27 8.27 0 0 1-7.87 5.7H371.25a3.84 3.84 0 0 1-3.5-5.45z" stroke="#0057d2" stroke-width="3" fill="#d1efff"/><path d="M418.06 593.97a9.37 9.37 0 0 1 8.5-5.45H546.4a3.9 3.9 0 0 1 3.56 5.5l-13.32 29.97a117.7 117.7 0 0 0-4.3 11.18l-11.9 36.37a8.27 8.27 0 0 1-7.85 5.7H385.65a3.84 3.84 0 0 1-3.5-5.44z" stroke="#0057d2" stroke-width="3" fill="#d1efff"/><path d="M300.87 482.9a6 6 0 0 1 6-6h258a6 6 0 0 1 6 6v198.16a6 6 0 0 1-6 6h-258a6 6 0 0 1-6-6z" fill-opacity="0"/><path d="M364.2 476.9h57.33m28.67 0h57.33m28.67 0h28.67l.93.06.92.22.87.37.8.5.7.6.62.7.5.82.35.87.22.9.07.95v33.02m0 33.03V615m0 33.03v33.03l-.08.94-.23.9-.36.88-.48.8-.6.72-.73.6-.8.5-.88.36-.92.22-.93.08H536.2m-28.67 0H450.2m-28.67 0H364.2m-28.67 0h-28.66l-.94-.08-.92-.22-.86-.36-.8-.5-.72-.6-.6-.72-.5-.8-.36-.87-.22-.9-.07-.94v-33.03m0-33.03v-66.05m0-33.03V482.9l.07-.95.22-.9.36-.88.5-.8.6-.72.72-.6.8-.5.87-.37.93-.22.94-.07h28.66" stroke="#6f7681" stroke-width="3" fill="none"/><path d="M300.87 482.9a6 6 0 0 1 6-6h168a6 6 0 0 1 6 6v48a6 6 0 0 1-6 6h-168a6 6 0 0 1-6-6z" stroke="#000" stroke-opacity="0" stroke-width="3" fill="#fff" fill-opacity="0"/><use xlink:href="#l" transform="matrix(1,0,0,1,305.8666974269654,481.8907071968827) translate(12.697530864197574 33.34722222222221)"/><path d="M766.97 581.97h-193.6" stroke="#5e5e5e" stroke-width="2" stroke-linejoin="round" fill="none"/><path d="M782.23 581.97l-14.26 4.64v-9.26z" stroke="#5e5e5e" stroke-width="2" fill="#5e5e5e"/><path d="M573.4 582.97h-1.03v-2h1.02z" stroke="#5e5e5e" stroke-width=".05" fill="#5e5e5e"/><use xlink:href="#m" transform="matrix(1,0,0,1,642.0052607542189,556.640051028904) translate(0.004999999999999005 14.222222222222223)"/><path d="M1072.87 580.3h-17.18m-17.18 0h-17.17" stroke="#5e5e5e" stroke-width="2" stroke-linejoin="round" fill="none"/><path d="M1073.87 581.3h-1.03v-2h1.03z" stroke="#5e5e5e" stroke-width=".05" fill="#5e5e5e"/><path d="M998.83 580.3l21.52-12.72v25.45z" stroke="#5e5e5e" stroke-width="2" fill="#fff"/><path d="M786.97 514.97a6 6 0 0 1 6-6h196.4a6 6 0 0 1 6 6v134a6 6 0 0 1-6 6h-196.4a6 6 0 0 1-6-6z" stroke="#a35d00" stroke-width="3" fill="#fff3b8"/><use xlink:href="#n" transform="matrix(1,0,0,1,791.9711915790572,513.9733843622373) translate(62.929012345679034 34.47222222222221)"/><use xlink:href="#o" transform="matrix(1,0,0,1,791.9711915790572,513.9733843622373) translate(81.76543209876544 79.80555555555551)"/><use xlink:href="#p" transform="matrix(1,0,0,1,791.9711915790572,513.9733843622373) translate(52.75000000000003 125.13888888888883)"/><path d="M1075.37 526.3a6 6 0 0 1 6-6h196.4a6 6 0 0 1 6 6v108a6 6 0 0 1-6 6h-196.4a6 6 0 0 1-6-6z" stroke="#a35d00" stroke-width="3" fill="#fff3b8"/><use xlink:href="#q" transform="matrix(1,0,0,1,1080.3677113542271,525.3012335126725) translate(37.8487654320988 40.53472222222221)"/><use xlink:href="#r" transform="matrix(1,0,0,1,1080.3677113542271,525.3012335126725) translate(56.632716049382736 85.86805555555551)"/><path d="M751.07 457.77a6 6 0 0 1 6-6h537a6 6 0 0 1 6 6v223.3a6 6 0 0 1-6 6h-537a6 6 0 0 1-6-6z" fill-opacity="0"/><path d="M786.9 451.77h29.84m14.9 0h29.85m14.9 0h29.84m14.92 0H951m14.9 0h29.84m14.92 0h29.83m14.9 0h29.84m14.92 0H1130m14.9 0h29.84m14.92 0h29.84m14.9 0h29.85m14.9 0h14.93l.94.08.9.22.88.36.8.5.72.6.62.72.5.8.35.87.2.9.08.95v14.9m0 14.87v29.77m0 14.9v29.77m0 14.9v29.76m0 14.88v29.78m0 14.9v14.88l-.07.94-.2.9-.37.88-.5.8-.6.72-.72.6-.8.5-.87.36-.9.22-.95.08h-14.92m-14.9 0h-29.85m-14.9 0h-29.84m-14.92 0h-29.83m-14.9 0h-29.84m-14.92 0h-29.83m-14.9 0h-29.84m-14.92 0H965.9m-14.9 0h-29.84m-14.92 0H876.4m-14.9 0h-29.85m-14.9 0H786.9m-14.9 0h-14.93l-.94-.08-.92-.22-.86-.36-.8-.5-.7-.6-.63-.72-.48-.8-.36-.87-.22-.9-.07-.94v-14.9m0-14.88V621.5m0-14.87v-29.77m0-14.9V532.2m0-14.9v-29.76m0-14.88v-14.9l.07-.93.22-.9.36-.88.5-.8.6-.72.72-.6.8-.5.87-.36.93-.22.94-.08H772" stroke="#a35d00" stroke-width="3" fill="none"/><path d="M751.07 451.77h120v46.8h-120z" fill="#fff" fill-opacity="0"/><use xlink:href="#s" transform="matrix(1,0,0,1,756.0685334534165,456.7718510012769) translate(13.629629629629655 30.222222222222207)"/><path d="M1287.82 1210.33l5.65-.84 5.7-1.1 5.63-1.32 5.56-1.54 5.5-1.8 5.44-2.02 5.42-2.28 5.4-2.54 5.4-2.83 5.42-3.13 5.44-3.44 5.46-3.8 5.5-4.18 5.56-4.6 5.62-5.06 5.68-5.57 5.76-6.14 5.84-6.77 5.9-7.47 6-8.24 6.04-9.13 6.1-10.08 6.14-11.18 6.13-12.35 6.08-13.65 5.96-15.07 5.76-16.56 5.47-18.13 5.04-19.68 4.5-21.2 3.82-22.53 2.98-23.65 2.05-24.4 1.03-24.77V868.7l-1-24.13-1.95-23.2-2.78-22-3.47-20.55-4.04-19.03-4.48-17.48-4.8-15.94-5.06-14.5-5.2-13.14-5.3-11.9-5.33-10.76-5.36-9.75-5.33-8.83-5.32-8-5.28-7.28-5.24-6.62-5.2-6.02-5.15-5.5-5.12-5-5.08-4.58-5.06-4.18-5.03-3.82-5.04-3.5-5.02-3.18-5.03-2.9-5.04-2.65-5.1-2.4-5.12-2.15-5.18-1.92-5.25-1.7-5.33-1.5-5.44-1.28-5.56-1.06-5.7-.84-5.85-.6-6.03-.4-5.24-.1" stroke="#5e5e5e" stroke-width="2" stroke-linejoin="round" fill="none"/><path d="M1272.6 1211.3l13.94-5.54.58 9.26z" stroke="#5e5e5e" stroke-width="2" fill="#5e5e5e"/><path d="M1286.3 579.32l-.03 2-1-.02v-2z" stroke="#5e5e5e" stroke-width=".05" fill="#5e5e5e"/><g><use xlink:href="#t" transform="matrix(1,0,0,1,1471.865253655195,919.8730117695488) translate(0.005000000000002558 14.222222222222223)"/><use xlink:href="#u" transform="matrix(1,0,0,1,1471.865253655195,919.8730117695488) translate(2.0050000000000026 35.55555555555556)"/></g><path d="M1025.58 801.73V689.56" stroke="#5e5e5e" stroke-width="2" stroke-linejoin="round" fill="none"/><path d="M1025.58 817l-4.64-14.27h9.27z" stroke="#5e5e5e" stroke-width="2" fill="#5e5e5e"/><path d="M1026.58 689.58h-2v-1.02h2z" stroke="#5e5e5e" stroke-width=".05" fill="#5e5e5e"/><g><use xlink:href="#v" transform="matrix(1,0,0,1,1033.5748448984925,759.5602333745312) translate(0.005000000000002558 14.222222222222223)"/></g><defs><path fill="#333" d="M24-248c120-7 223 5 221 122C244-46 201 0 124 0H24v-248zM76-40c74 7 117-18 117-86 0-67-45-88-117-82v168" id="w"/><path fill="#333" d="M110-194c64 0 96 36 96 99 0 64-35 99-97 99-61 0-95-36-95-99 0-62 34-99 96-99zm-1 164c35 0 45-28 45-65 0-40-10-65-43-65-34 0-45 26-45 65 0 36 10 65 43 65" id="x"/><path fill="#333" d="M220-157c-53 9-28 100-34 157h-49v-107c1-27-5-49-29-50C55-147 81-57 75 0H25l-1-190h47c2 12-1 28 3 38 10-53 101-56 108 0 13-22 24-43 59-42 82 1 51 116 57 194h-49v-107c-1-25-5-48-29-50" id="y"/><path fill="#333" d="M133-34C117-15 103 5 69 4 32 3 11-16 11-54c-1-60 55-63 116-61 1-26-3-47-28-47-18 1-26 9-28 27l-52-2c7-38 36-58 82-57s74 22 75 68l1 82c-1 14 12 18 25 15v27c-30 8-71 5-69-32zm-48 3c29 0 43-24 42-57-32 0-66-3-65 30 0 17 8 27 23 27" id="z"/><path fill="#333" d="M25-224v-37h50v37H25zM25 0v-190h50V0H25" id="A"/><path fill="#333" d="M135-194c87-1 58 113 63 194h-50c-7-57 23-157-34-157-59 0-34 97-39 157H25l-1-190h47c2 12-1 28 3 38 12-26 28-41 61-42" id="B"/><g id="a"><use transform="matrix(0.12345679012345674,0,0,0.12345679012345674,0,0)" xlink:href="#w"/><use transform="matrix(0.12345679012345674,0,0,0.12345679012345674,31.975308641975296,0)" xlink:href="#x"/><use transform="matrix(0.12345679012345674,0,0,0.12345679012345674,59.01234567901233,0)" xlink:href="#y"/><use transform="matrix(0.12345679012345674,0,0,0.12345679012345674,98.51851851851848,0)" xlink:href="#z"/><use transform="matrix(0.12345679012345674,0,0,0.12345679012345674,123.20987654320982,0)" xlink:href="#A"/><use transform="matrix(0.12345679012345674,0,0,0.12345679012345674,135.5555555555555,0)" xlink:href="#B"/></g><path fill="#333" d="M199 0l-22-63H83L61 0H9l90-248h61L250 0h-51zm-33-102l-36-108c-10 38-24 72-36 108h72" id="C"/><path fill="#333" d="M88-194c31-1 46 15 58 34l-1-101h50l1 261h-48c-2-10 0-23-3-31C134-8 116 4 84 4 32 4 16-41 15-95c0-56 19-97 73-99zm17 164c33 0 40-30 41-66 1-37-9-64-41-64s-38 30-39 65c0 43 13 65 39 65" id="D"/><path fill="#333" d="M135-194c53 0 70 44 70 98 0 56-19 98-73 100-31 1-45-17-59-34 3 33 2 69 2 105H25l-1-265h48c2 10 0 23 3 31 11-24 29-35 60-35zM114-30c33 0 39-31 40-66 0-38-9-64-40-64-56 0-55 130 0 130" id="E"/><path fill="#333" d="M115-3C79 11 28 4 28-45v-112H4v-33h27l15-45h31v45h36v33H77v99c-1 23 16 31 38 25v30" id="F"/><path fill="#333" d="M185-48c-13 30-37 53-82 52C43 2 14-33 14-96s30-98 90-98c62 0 83 45 84 108H66c0 31 8 55 39 56 18 0 30-7 34-22zm-45-69c5-46-57-63-70-21-2 6-4 13-4 21h74" id="G"/><path fill="#333" d="M135-150c-39-12-60 13-60 57V0H25l-1-190h47c2 13-1 29 3 40 6-28 27-53 61-41v41" id="H"/><path fill="#333" d="M137-138c1-29-70-34-71-4 15 46 118 7 119 86 1 83-164 76-172 9l43-7c4 19 20 25 44 25 33 8 57-30 24-41C81-84 22-81 20-136c-2-80 154-74 161-7" id="I"/><g id="b"><use transform="matrix(0.12345679012345674,0,0,0.12345679012345674,0,0)" xlink:href="#C"/><use transform="matrix(0.12345679012345674,0,0,0.12345679012345674,31.975308641975296,0)" xlink:href="#D"/><use transform="matrix(0.12345679012345674,0,0,0.12345679012345674,59.01234567901233,0)" xlink:href="#z"/><use transform="matrix(0.12345679012345674,0,0,0.12345679012345674,83.70370370370367,0)" xlink:href="#E"/><use transform="matrix(0.12345679012345674,0,0,0.12345679012345674,110.74074074074069,0)" xlink:href="#F"/><use transform="matrix(0.12345679012345674,0,0,0.12345679012345674,125.43209876543204,0)" xlink:href="#G"/><use transform="matrix(0.12345679012345674,0,0,0.12345679012345674,150.12345679012338,0)" xlink:href="#H"/><use transform="matrix(0.12345679012345674,0,0,0.12345679012345674,167.40740740740733,0)" xlink:href="#I"/></g><path fill="#a35d00" d="M240-174c0 40-23 61-54 70L253 0h-59l-57-94H76V0H24v-248c93 4 217-23 216 74zM76-134c48-2 112 12 112-38 0-48-66-32-112-35v73" id="J"/><path fill="#a35d00" d="M185-48c-13 30-37 53-82 52C43 2 14-33 14-96s30-98 90-98c62 0 83 45 84 108H66c0 31 8 55 39 56 18 0 30-7 34-22zm-45-69c5-46-57-63-70-21-2 6-4 13-4 21h74" id="K"/><path fill="#a35d00" d="M135-194c53 0 70 44 70 98 0 56-19 98-73 100-31 1-45-17-59-34 3 33 2 69 2 105H25l-1-265h48c2 10 0 23 3 31 11-24 29-35 60-35zM114-30c33 0 39-31 40-66 0-38-9-64-40-64-56 0-55 130 0 130" id="L"/><path fill="#a35d00" d="M110-194c64 0 96 36 96 99 0 64-35 99-97 99-61 0-95-36-95-99 0-62 34-99 96-99zm-1 164c35 0 45-28 45-65 0-40-10-65-43-65-34 0-45 26-45 65 0 36 10 65 43 65" id="M"/><path fill="#a35d00" d="M137-138c1-29-70-34-71-4 15 46 118 7 119 86 1 83-164 76-172 9l43-7c4 19 20 25 44 25 33 8 57-30 24-41C81-84 22-81 20-136c-2-80 154-74 161-7" id="N"/><path fill="#a35d00" d="M25-224v-37h50v37H25zM25 0v-190h50V0H25" id="O"/><path fill="#a35d00" d="M115-3C79 11 28 4 28-45v-112H4v-33h27l15-45h31v45h36v33H77v99c-1 23 16 31 38 25v30" id="P"/><path fill="#a35d00" d="M135-150c-39-12-60 13-60 57V0H25l-1-190h47c2 13-1 29 3 40 6-28 27-53 61-41v41" id="Q"/><path fill="#a35d00" d="M123 10C108 53 80 86 19 72V37c35 8 53-11 59-39L3-190h52l48 148c12-52 28-100 44-148h51" id="R"/><g id="c"><use transform="matrix(0.10493827160493821,0,0,0.10493827160493821,0,0)" xlink:href="#J"/><use transform="matrix(0.10493827160493821,0,0,0.10493827160493821,27.179012345678995,0)" xlink:href="#K"/><use transform="matrix(0.10493827160493821,0,0,0.10493827160493821,48.166666666666636,0)" xlink:href="#L"/><use transform="matrix(0.10493827160493821,0,0,0.10493827160493821,71.1481481481481,0)" xlink:href="#M"/><use transform="matrix(0.10493827160493821,0,0,0.10493827160493821,94.12962962962956,0)" xlink:href="#N"/><use transform="matrix(0.10493827160493821,0,0,0.10493827160493821,115.11728395061722,0)" xlink:href="#O"/><use transform="matrix(0.10493827160493821,0,0,0.10493827160493821,125.61111111111104,0)" xlink:href="#P"/><use transform="matrix(0.10493827160493821,0,0,0.10493827160493821,138.09876543209867,0)" xlink:href="#M"/><use transform="matrix(0.10493827160493821,0,0,0.10493827160493821,161.08024691358014,0)" xlink:href="#Q"/><use transform="matrix(0.10493827160493821,0,0,0.10493827160493821,175.77160493827148,0)" xlink:href="#R"/></g><path fill="#a35d00" d="M230 0l2-204L168 0h-37L68-204 70 0H24v-248h70l56 185 57-185h69V0h-46" id="S"/><path fill="#a35d00" d="M135-194c87-1 58 113 63 194h-50c-7-57 23-157-34-157-59 0-34 97-39 157H25l-1-190h47c2 12-1 28 3 38 12-26 28-41 61-42" id="T"/><path fill="#a35d00" d="M195-6C206 82 75 100 31 46c-4-6-6-13-8-21l49-6c3 16 16 24 34 25 40 0 42-37 40-79-11 22-30 35-61 35-53 0-70-43-70-97 0-56 18-96 73-97 30 0 46 14 59 34l2-30h47zm-90-29c32 0 41-27 41-63 0-35-9-62-40-62-32 0-39 29-40 63 0 36 9 62 39 62" id="U"/><g id="d"><use transform="matrix(0.08024691358024685,0,0,0.08024691358024685,0,0)" xlink:href="#S"/><use transform="matrix(0.08024691358024685,0,0,0.08024691358024685,23.993827160493808,0)" xlink:href="#M"/><use transform="matrix(0.08024691358024685,0,0,0.08024691358024685,41.56790123456787,0)" xlink:href="#T"/><use transform="matrix(0.08024691358024685,0,0,0.08024691358024685,59.14197530864193,0)" xlink:href="#U"/><use transform="matrix(0.08024691358024685,0,0,0.08024691358024685,76.716049382716,0)" xlink:href="#M"/></g><g id="e"><use transform="matrix(0.08024691358024685,0,0,0.08024691358024685,0,0)" xlink:href="#J"/><use transform="matrix(0.08024691358024685,0,0,0.08024691358024685,20.783950617283935,0)" xlink:href="#K"/><use transform="matrix(0.08024691358024685,0,0,0.08024691358024685,36.83333333333331,0)" xlink:href="#L"/><use transform="matrix(0.08024691358024685,0,0,0.08024691358024685,54.40740740740737,0)" xlink:href="#M"/><use transform="matrix(0.08024691358024685,0,0,0.08024691358024685,71.98148148148144,0)" xlink:href="#N"/><use transform="matrix(0.08024691358024685,0,0,0.08024691358024685,88.0308641975308,0)" xlink:href="#O"/><use transform="matrix(0.08024691358024685,0,0,0.08024691358024685,96.05555555555549,0)" xlink:href="#P"/><use transform="matrix(0.08024691358024685,0,0,0.08024691358024685,105.60493827160487,0)" xlink:href="#M"/><use transform="matrix(0.08024691358024685,0,0,0.08024691358024685,123.17901234567891,0)" xlink:href="#Q"/><use transform="matrix(0.08024691358024685,0,0,0.08024691358024685,134.41358024691348,0)" xlink:href="#R"/></g><path fill="#0057d2" d="M24-248c120-7 223 5 221 122C244-46 201 0 124 0H24v-248zM76-40c74 7 117-18 117-86 0-67-45-88-117-82v168" id="V"/><path fill="#0057d2" d="M182-130c37 4 62 22 62 59C244 23 116-4 24 0v-248c84 5 203-23 205 63 0 31-19 50-47 55zM76-148c40-3 101 13 101-30 0-44-60-28-101-31v61zm0 110c48-3 116 14 116-37 0-48-69-32-116-35v72" id="W"/><g id="f"><use transform="matrix(0.12345679012345674,0,0,0.12345679012345674,0,0)" xlink:href="#V"/><use transform="matrix(0.12345679012345674,0,0,0.12345679012345674,31.975308641975296,0)" xlink:href="#W"/></g><path fill="#a35d00" d="M169-182c-1-43-94-46-97-3 18 66 151 10 154 114 3 95-165 93-204 36-6-8-10-19-12-30l50-8c3 46 112 56 116 5-17-69-150-10-154-114-4-87 153-88 188-35 5 8 8 18 10 28" id="X"/><g id="g"><use transform="matrix(0.12345679012345674,0,0,0.12345679012345674,0,0)" xlink:href="#X"/><use transform="matrix(0.12345679012345674,0,0,0.12345679012345674,29.62962962962962,0)" xlink:href="#L"/><use transform="matrix(0.12345679012345674,0,0,0.12345679012345674,56.66666666666664,0)" xlink:href="#Q"/><use transform="matrix(0.12345679012345674,0,0,0.12345679012345674,73.95061728395058,0)" xlink:href="#O"/><use transform="matrix(0.12345679012345674,0,0,0.12345679012345674,86.29629629629625,0)" xlink:href="#T"/><use transform="matrix(0.12345679012345674,0,0,0.12345679012345674,113.33333333333327,0)" xlink:href="#U"/></g><path fill="#a35d00" d="M182-130c37 4 62 22 62 59C244 23 116-4 24 0v-248c84 5 203-23 205 63 0 31-19 50-47 55zM76-148c40-3 101 13 101-30 0-44-60-28-101-31v61zm0 110c48-3 116 14 116-37 0-48-69-32-116-35v72" id="Y"/><g id="h"><use transform="matrix(0.12345679012345674,0,0,0.12345679012345674,0,0)" xlink:href="#Y"/><use transform="matrix(0.12345679012345674,0,0,0.12345679012345674,31.975308641975296,0)" xlink:href="#M"/><use transform="matrix(0.12345679012345674,0,0,0.12345679012345674,59.01234567901233,0)" xlink:href="#M"/><use transform="matrix(0.12345679012345674,0,0,0.12345679012345674,86.04938271604935,0)" xlink:href="#P"/></g><path fill="#333" d="M24 0v-248h52V0H24" id="Z"/><path fill="#333" d="M128 0H69L1-190h53L99-40l48-150h52" id="aa"/><path fill="#333" d="M147 0L96-86 75-71V0H25v-261h50v150l67-79h53l-66 74L201 0h-54" id="ab"/><g id="i"><use transform="matrix(0.04938271604938272,0,0,0.04938271604938272,0,0)" xlink:href="#Z"/><use transform="matrix(0.04938271604938272,0,0,0.04938271604938272,4.938271604938272,0)" xlink:href="#B"/><use transform="matrix(0.04938271604938272,0,0,0.04938271604938272,15.753086419753087,0)" xlink:href="#aa"/><use transform="matrix(0.04938271604938272,0,0,0.04938271604938272,25.629629629629633,0)" xlink:href="#x"/><use transform="matrix(0.04938271604938272,0,0,0.04938271604938272,36.44444444444445,0)" xlink:href="#ab"/><use transform="matrix(0.04938271604938272,0,0,0.04938271604938272,46.320987654320994,0)" xlink:href="#G"/><use transform="matrix(0.04938271604938272,0,0,0.04938271604938272,56.19753086419754,0)" xlink:href="#I"/></g><path fill="#333" d="M169-182c-1-43-94-46-97-3 18 66 151 10 154 114 3 95-165 93-204 36-6-8-10-19-12-30l50-8c3 46 112 56 116 5-17-69-150-10-154-114-4-87 153-88 188-35 5 8 8 18 10 28" id="ac"/><path fill="#333" d="M190-63c-7 42-38 67-86 67-59 0-84-38-90-98-12-110 154-137 174-36l-49 2c-2-19-15-32-35-32-30 0-35 28-38 64-6 74 65 87 74 30" id="ad"/><g id="j"><use transform="matrix(0.12345679012345674,0,0,0.12345679012345674,0,0)" xlink:href="#ac"/><use transform="matrix(0.12345679012345674,0,0,0.12345679012345674,29.62962962962962,0)" xlink:href="#G"/><use transform="matrix(0.12345679012345674,0,0,0.12345679012345674,54.320987654320966,0)" xlink:href="#H"/><use transform="matrix(0.12345679012345674,0,0,0.12345679012345674,71.60493827160491,0)" xlink:href="#aa"/><use transform="matrix(0.12345679012345674,0,0,0.12345679012345674,96.29629629629625,0)" xlink:href="#A"/><use transform="matrix(0.12345679012345674,0,0,0.12345679012345674,108.64197530864192,0)" xlink:href="#ad"/><use transform="matrix(0.12345679012345674,0,0,0.12345679012345674,133.33333333333326,0)" xlink:href="#G"/></g><path fill="#333" d="M24 0v-248h52v208h133V0H24" id="ae"/><path fill="#333" d="M123 10C108 53 80 86 19 72V37c35 8 53-11 59-39L3-190h52l48 148c12-52 28-100 44-148h51" id="af"/><g id="k"><use transform="matrix(0.12345679012345674,0,0,0.12345679012345674,0,0)" xlink:href="#ae"/><use transform="matrix(0.12345679012345674,0,0,0.12345679012345674,27.037037037037027,0)" xlink:href="#z"/><use transform="matrix(0.12345679012345674,0,0,0.12345679012345674,51.72839506172838,0)" xlink:href="#af"/><use transform="matrix(0.12345679012345674,0,0,0.12345679012345674,76.41975308641972,0)" xlink:href="#G"/><use transform="matrix(0.12345679012345674,0,0,0.12345679012345674,101.11111111111106,0)" xlink:href="#H"/></g><path fill="#4c535d" d="M185-189c-5-48-123-54-124 2 14 75 158 14 163 119 3 78-121 87-175 55-17-10-28-26-33-46l33-7c5 56 141 63 141-1 0-78-155-14-162-118-5-82 145-84 179-34 5 7 8 16 11 25" id="ag"/><path fill="#4c535d" d="M100-194c63 0 86 42 84 106H49c0 40 14 67 53 68 26 1 43-12 49-29l28 8c-11 28-37 45-77 45C44 4 14-33 15-96c1-61 26-98 85-98zm52 81c6-60-76-77-97-28-3 7-6 17-6 28h103" id="ah"/><path fill="#4c535d" d="M114-163C36-179 61-72 57 0H25l-1-190h30c1 12-1 29 2 39 6-27 23-49 58-41v29" id="ai"/><path fill="#4c535d" d="M108 0H70L1-190h34L89-25l56-165h34" id="aj"/><path fill="#4c535d" d="M24-231v-30h32v30H24zM24 0v-190h32V0H24" id="ak"/><path fill="#4c535d" d="M96-169c-40 0-48 33-48 73s9 75 48 75c24 0 41-14 43-38l32 2c-6 37-31 61-74 61-59 0-76-41-82-99-10-93 101-131 147-64 4 7 5 14 7 22l-32 3c-4-21-16-35-41-35" id="al"/><path fill="#4c535d" d="M135-143c-3-34-86-38-87 0 15 53 115 12 119 90S17 21 10-45l28-5c4 36 97 45 98 0-10-56-113-15-118-90-4-57 82-63 122-42 12 7 21 19 24 35" id="am"/><g id="l"><use transform="matrix(0.10493827160493821,0,0,0.10493827160493821,0,0)" xlink:href="#ag"/><use transform="matrix(0.10493827160493821,0,0,0.10493827160493821,25.18518518518517,0)" xlink:href="#ah"/><use transform="matrix(0.10493827160493821,0,0,0.10493827160493821,46.17283950617281,0)" xlink:href="#ai"/><use transform="matrix(0.10493827160493821,0,0,0.10493827160493821,58.66049382716045,0)" xlink:href="#aj"/><use transform="matrix(0.10493827160493821,0,0,0.10493827160493821,77.54938271604934,0)" xlink:href="#ak"/><use transform="matrix(0.10493827160493821,0,0,0.10493827160493821,85.83950617283945,0)" xlink:href="#al"/><use transform="matrix(0.10493827160493821,0,0,0.10493827160493821,104.72839506172832,0)" xlink:href="#ah"/><use transform="matrix(0.10493827160493821,0,0,0.10493827160493821,125.71604938271598,0)" xlink:href="#am"/></g><g id="m"><use transform="matrix(0.04938271604938272,0,0,0.04938271604938272,0,0)" xlink:href="#ac"/><use transform="matrix(0.04938271604938272,0,0,0.04938271604938272,11.851851851851853,0)" xlink:href="#F"/><use transform="matrix(0.04938271604938272,0,0,0.04938271604938272,17.728395061728396,0)" xlink:href="#z"/><use transform="matrix(0.04938271604938272,0,0,0.04938271604938272,27.60493827160494,0)" xlink:href="#H"/><use transform="matrix(0.04938271604938272,0,0,0.04938271604938272,34.51851851851852,0)" xlink:href="#F"/><use transform="matrix(0.04938271604938272,0,0,0.04938271604938272,40.39506172839506,0)" xlink:href="#I"/></g><path fill="#a35d00" d="M238-95c0 69-44 99-111 99C63 4 22-25 22-93v-155h51v151c-1 38 19 59 55 60 90 1 49-130 58-211h52v153" id="an"/><g id="n"><use transform="matrix(0.10493827160493821,0,0,0.10493827160493821,0,0)" xlink:href="#an"/><use transform="matrix(0.10493827160493821,0,0,0.10493827160493821,27.179012345678995,0)" xlink:href="#T"/><use transform="matrix(0.10493827160493821,0,0,0.10493827160493821,50.160493827160465,0)" xlink:href="#O"/><use transform="matrix(0.10493827160493821,0,0,0.10493827160493821,60.65432098765429,0)" xlink:href="#P"/></g><path fill="#a35d00" d="M121-226c-27-7-43 5-38 36h38v33H83V0H34v-157H6v-33h28c-9-59 32-81 87-68v32" id="ao"/><g id="o"><use transform="matrix(0.10493827160493821,0,0,0.10493827160493821,0,0)" xlink:href="#M"/><use transform="matrix(0.10493827160493821,0,0,0.10493827160493821,22.981481481481467,0)" xlink:href="#ao"/></g><path fill="#a35d00" d="M275 0h-61l-44-196L126 0H64L0-248h53L97-49l45-199h58l43 199 44-199h52" id="ap"/><path fill="#a35d00" d="M147 0L96-86 75-71V0H25v-261h50v150l67-79h53l-66 74L201 0h-54" id="aq"/><g id="p"><use transform="matrix(0.10493827160493821,0,0,0.10493827160493821,0,0)" xlink:href="#ap"/><use transform="matrix(0.10493827160493821,0,0,0.10493827160493821,34.839506172839485,0)" xlink:href="#M"/><use transform="matrix(0.10493827160493821,0,0,0.10493827160493821,57.82098765432095,0)" xlink:href="#Q"/><use transform="matrix(0.10493827160493821,0,0,0.10493827160493821,72.5123456790123,0)" xlink:href="#aq"/></g><g id="q"><use transform="matrix(0.10493827160493821,0,0,0.10493827160493821,0,0)" xlink:href="#S"/><use transform="matrix(0.10493827160493821,0,0,0.10493827160493821,31.376543209876523,0)" xlink:href="#M"/><use transform="matrix(0.10493827160493821,0,0,0.10493827160493821,54.35802469135799,0)" xlink:href="#T"/><use transform="matrix(0.10493827160493821,0,0,0.10493827160493821,77.33950617283946,0)" xlink:href="#U"/><use transform="matrix(0.10493827160493821,0,0,0.10493827160493821,100.32098765432093,0)" xlink:href="#M"/></g><g id="r"><use transform="matrix(0.10493827160493821,0,0,0.10493827160493821,0,0)" xlink:href="#an"/><use transform="matrix(0.10493827160493821,0,0,0.10493827160493821,27.179012345678995,0)" xlink:href="#M"/><use transform="matrix(0.10493827160493821,0,0,0.10493827160493821,50.160493827160465,0)" xlink:href="#ap"/></g><path fill="#4c535d" d="M232-93c-1 65-40 97-104 97C67 4 28-28 28-90v-158h33c8 89-33 224 67 224 102 0 64-133 71-224h33v155" id="ar"/><path fill="#4c535d" d="M100-194c62-1 85 37 85 99 1 63-27 99-86 99S16-35 15-95c0-66 28-99 85-99zM99-20c44 1 53-31 53-75 0-43-8-75-51-75s-53 32-53 75 10 74 51 75" id="as"/><path fill="#4c535d" d="M266 0h-40l-56-210L115 0H75L2-248h35L96-30l15-64 43-154h32l59 218 59-218h35" id="at"/><g id="s"><use transform="matrix(0.10493827160493821,0,0,0.10493827160493821,0,0)" xlink:href="#ar"/><use transform="matrix(0.10493827160493821,0,0,0.10493827160493821,27.179012345678995,0)" xlink:href="#as"/><use transform="matrix(0.10493827160493821,0,0,0.10493827160493821,48.166666666666636,0)" xlink:href="#at"/></g><g id="t"><use transform="matrix(0.04938271604938272,0,0,0.04938271604938272,0,0)" xlink:href="#Z"/><use transform="matrix(0.04938271604938272,0,0,0.04938271604938272,4.938271604938272,0)" xlink:href="#B"/><use transform="matrix(0.04938271604938272,0,0,0.04938271604938272,15.753086419753087,0)" xlink:href="#A"/><use transform="matrix(0.04938271604938272,0,0,0.04938271604938272,20.69135802469136,0)" xlink:href="#F"/><use transform="matrix(0.04938271604938272,0,0,0.04938271604938272,26.567901234567902,0)" xlink:href="#A"/><use transform="matrix(0.04938271604938272,0,0,0.04938271604938272,31.506172839506174,0)" xlink:href="#z"/><use transform="matrix(0.04938271604938272,0,0,0.04938271604938272,41.38271604938272,0)" xlink:href="#F"/><use transform="matrix(0.04938271604938272,0,0,0.04938271604938272,47.25925925925927,0)" xlink:href="#G"/><use transform="matrix(0.04938271604938272,0,0,0.04938271604938272,57.135802469135804,0)" xlink:href="#I"/></g><path fill="#333" d="M144 0l-44-69L55 0H2l70-98-66-92h53l41 62 40-62h54l-67 91 71 99h-54" id="au"/><g id="u"><use transform="matrix(0.04938271604938272,0,0,0.04938271604938272,0,0)" xlink:href="#ad"/><use transform="matrix(0.04938271604938272,0,0,0.04938271604938272,9.876543209876544,0)" xlink:href="#x"/><use transform="matrix(0.04938271604938272,0,0,0.04938271604938272,20.69135802469136,0)" xlink:href="#B"/><use transform="matrix(0.04938271604938272,0,0,0.04938271604938272,31.506172839506174,0)" xlink:href="#F"/><use transform="matrix(0.04938271604938272,0,0,0.04938271604938272,37.38271604938272,0)" xlink:href="#G"/><use transform="matrix(0.04938271604938272,0,0,0.04938271604938272,47.25925925925927,0)" xlink:href="#au"/><use transform="matrix(0.04938271604938272,0,0,0.04938271604938272,57.135802469135804,0)" xlink:href="#F"/></g><path fill="#333" d="M24-248c93 1 206-16 204 79-1 75-69 88-152 82V0H24v-248zm52 121c47 0 100 7 100-41 0-47-54-39-100-39v80" id="av"/><g id="v"><use transform="matrix(0.04938271604938272,0,0,0.04938271604938272,0,0)" xlink:href="#av"/><use transform="matrix(0.04938271604938272,0,0,0.04938271604938272,11.851851851851853,0)" xlink:href="#H"/><use transform="matrix(0.04938271604938272,0,0,0.04938271604938272,18.765432098765434,0)" xlink:href="#x"/><use transform="matrix(0.04938271604938272,0,0,0.04938271604938272,29.58024691358025,0)" xlink:href="#aa"/><use transform="matrix(0.04938271604938272,0,0,0.04938271604938272,39.45679012345679,0)" xlink:href="#A"/><use transform="matrix(0.04938271604938272,0,0,0.04938271604938272,44.39506172839506,0)" xlink:href="#D"/><use transform="matrix(0.04938271604938272,0,0,0.04938271604938272,55.20987654320988,0)" xlink:href="#G"/><use transform="matrix(0.04938271604938272,0,0,0.04938271604938272,65.08641975308643,0)" xlink:href="#I"/></g></defs></g></svg>